STARTFONT 2.1
FONT -JDECW-Mincho-Medium-R-Normal--11-80-100-100-M-110-JISX0208.1983-1
SIZE 8 100 100
FONTBOUNDINGBOX 12 12 0 -2

STARTPROPERTIES 26
FONTNAME_REGISTRY ""
FAMILY_NAME "Mincho"
FOUNDRY "JDECW"
WEIGHT_NAME "Medium"
SLANT "R"
SETWIDTH_NAME "Normal"
ADD_STYLE_NAME ""
PIXEL_SIZE 11
POINT_SIZE 80
RESOLUTION_X 100
RESOLUTION_Y 100
SPACING "M"
AVERAGE_WIDTH 110
CHARSET_REGISTRY "JISX0208.1983"
CHARSET_ENCODING "1"
DEVICE_FONT_NAME "Mincho-JISX0208.1983-1"
CHARSET_COLLECTIONS "JISX0208.1983 1"
FULL_NAME "Mincho-JISX0208.1983-1"
COPYRIGHT "Copyright (c) 1990 1991 TYPEBANK, Digital Equipment Corporation Japan"
CAP_HEIGHT 9
X_HEIGHT 6
WEIGHT 10
QUAD_WIDTH 12
DEFAULT_CHAR 41634
FONT_DESCENT 2
FONT_ASCENT 10
ENDPROPERTIES

CHARS 6970

STARTCHAR Ca1a1
ENCODING 41377
SWIDTH 1000 0
DWIDTH 12 0
BBX 12 12 0 -2
BITMAP
0000
0000
0000
0000
0000
0000
0000
0000
0000
0000
0000
0000
ENDCHAR

STARTCHAR Ca1a2
ENCODING 41378
SWIDTH 1000 0
DWIDTH 12 0
BBX 12 12 0 -2
BITMAP
0000
0000
0000
0000
0000
0000
0000
0000
4000
2000
1000
0000
ENDCHAR

STARTCHAR Ca1a3
ENCODING 41379
SWIDTH 1000 0
DWIDTH 12 0
BBX 12 12 0 -2
BITMAP
0000
0000
0000
0000
0000
0000
0000
3000
4800
4800
3000
0000
ENDCHAR

STARTCHAR Ca1a4
ENCODING 41380
SWIDTH 1000 0
DWIDTH 12 0
BBX 12 12 0 -2
BITMAP
0000
0000
0000
0000
0000
0000
0000
6000
6000
2000
4000
0000
ENDCHAR

STARTCHAR Ca1a5
ENCODING 41381
SWIDTH 1000 0
DWIDTH 12 0
BBX 12 12 0 -2
BITMAP
0000
0000
0000
0000
0000
0000
0000
0000
6000
6000
0000
0000
ENDCHAR

STARTCHAR Ca1a6
ENCODING 41382
SWIDTH 1000 0
DWIDTH 12 0
BBX 12 12 0 -2
BITMAP
0000
0000
0000
0000
0000
0600
0600
0000
0000
0000
0000
0000
ENDCHAR

STARTCHAR Ca1a7
ENCODING 41383
SWIDTH 1000 0
DWIDTH 12 0
BBX 12 12 0 -2
BITMAP
0000
0000
0000
0600
0600
0000
0000
0600
0600
0000
0000
0000
ENDCHAR

STARTCHAR Ca1a8
ENCODING 41384
SWIDTH 1000 0
DWIDTH 12 0
BBX 12 12 0 -2
BITMAP
0000
0000
0000
0600
0600
0000
0000
0600
0600
0200
0400
0000
ENDCHAR

STARTCHAR Ca1a9
ENCODING 41385
SWIDTH 1000 0
DWIDTH 12 0
BBX 12 12 0 -2
BITMAP
0000
0E00
1100
1900
0100
0200
0400
0400
0000
0400
0400
0000
ENDCHAR

STARTCHAR Ca1aa
ENCODING 41386
SWIDTH 1000 0
DWIDTH 12 0
BBX 12 12 0 -2
BITMAP
0000
0E00
0E00
0E00
0E00
0E00
0400
0400
0000
0400
0400
0000
ENDCHAR

STARTCHAR Ca1ab
ENCODING 41387
SWIDTH 1000 0
DWIDTH 12 0
BBX 12 12 0 -2
BITMAP
0000
1000
4800
2000
0000
0000
0000
0000
0000
0000
0000
0000
ENDCHAR

STARTCHAR Ca1ac
ENCODING 41388
SWIDTH 1000 0
DWIDTH 12 0
BBX 12 12 0 -2
BITMAP
0000
2000
5000
2000
0000
0000
0000
0000
0000
0000
0000
0000
ENDCHAR

STARTCHAR Ca1ad
ENCODING 41389
SWIDTH 1000 0
DWIDTH 12 0
BBX 12 12 0 -2
BITMAP
0000
0600
0800
0000
0000
0000
0000
0000
0000
0000
0000
0000
ENDCHAR

STARTCHAR Ca1ae
ENCODING 41390
SWIDTH 1000 0
DWIDTH 12 0
BBX 12 12 0 -2
BITMAP
0000
0C00
0200
0000
0000
0000
0000
0000
0000
0000
0000
0000
ENDCHAR

STARTCHAR Ca1af
ENCODING 41391
SWIDTH 1000 0
DWIDTH 12 0
BBX 12 12 0 -2
BITMAP
0000
0A00
0000
0000
0000
0000
0000
0000
0000
0000
0000
0000
ENDCHAR

STARTCHAR Ca1b0
ENCODING 41392
SWIDTH 1000 0
DWIDTH 12 0
BBX 12 12 0 -2
BITMAP
0000
0600
0900
0000
0000
0000
0000
0000
0000
0000
0000
0000
ENDCHAR

STARTCHAR Ca1b1
ENCODING 41393
SWIDTH 1000 0
DWIDTH 12 0
BBX 12 12 0 -2
BITMAP
0000
7FE0
0000
0000
0000
0000
0000
0000
0000
0000
0000
0000
ENDCHAR

STARTCHAR Ca1b2
ENCODING 41394
SWIDTH 1000 0
DWIDTH 12 0
BBX 12 12 0 -2
BITMAP
0000
0000
0000
0000
0000
0000
0000
0000
0000
0000
7FE0
0000
ENDCHAR

STARTCHAR Ca1b3
ENCODING 41395
SWIDTH 1000 0
DWIDTH 12 0
BBX 12 12 0 -2
BITMAP
0000
0000
0000
0800
0400
0200
0100
0100
0000
0000
0000
0000
ENDCHAR

STARTCHAR Ca1b4
ENCODING 41396
SWIDTH 1000 0
DWIDTH 12 0
BBX 12 12 0 -2
BITMAP
0000
0040
0120
0880
0400
0200
0100
0100
0000
0000
0000
0000
ENDCHAR

STARTCHAR Ca1b5
ENCODING 41397
SWIDTH 1000 0
DWIDTH 12 0
BBX 12 12 0 -2
BITMAP
0000
0000
0800
0800
0400
0200
0100
0380
0400
0000
0000
0000
ENDCHAR

STARTCHAR Ca1b6
ENCODING 41398
SWIDTH 1000 0
DWIDTH 12 0
BBX 12 12 0 -2
BITMAP
0000
0040
0920
0880
0400
0200
0100
0380
0400
0000
0000
0000
ENDCHAR

STARTCHAR Ca1b7
ENCODING 41399
SWIDTH 1000 0
DWIDTH 12 0
BBX 12 12 0 -2
BITMAP
0000
0000
0000
0D80
0900
1200
1200
2400
0000
0000
0000
0000
ENDCHAR

STARTCHAR Ca1b8
ENCODING 41400
SWIDTH 1000 0
DWIDTH 12 0
BBX 12 12 0 -2
BITMAP
0000
0600
0900
1080
2040
5FA0
0400
0400
0400
7FE0
0000
0000
ENDCHAR

STARTCHAR Ca1b9
ENCODING 41401
SWIDTH 1000 0
DWIDTH 12 0
BBX 12 12 0 -2
BITMAP
0000
0000
0800
0800
0FC0
1080
1080
2500
0200
0100
0000
0000
ENDCHAR

STARTCHAR Ca1ba
ENCODING 41402
SWIDTH 1000 0
DWIDTH 12 0
BBX 12 12 0 -2
BITMAP
0000
0000
0100
0080
0100
0D00
1200
2500
2900
3000
0000
0000
ENDCHAR

STARTCHAR Ca1bb
ENCODING 41403
SWIDTH 1000 0
DWIDTH 12 0
BBX 12 12 0 -2
BITMAP
0000
0F00
30C0
2040
4020
4020
4020
4020
2040
30C0
0F00
0000
ENDCHAR

STARTCHAR Ca1bc
ENCODING 41404
SWIDTH 1000 0
DWIDTH 12 0
BBX 12 12 0 -2
BITMAP
0000
0000
0000
0000
0000
4000
3FC0
0000
0000
0000
0000
0000
ENDCHAR

STARTCHAR Ca1bd
ENCODING 41405
SWIDTH 1000 0
DWIDTH 12 0
BBX 12 12 0 -2
BITMAP
0000
0000
0000
0000
0000
0000
7FE0
0000
0000
0000
0000
0000
ENDCHAR

STARTCHAR Ca1be
ENCODING 41406
SWIDTH 1000 0
DWIDTH 12 0
BBX 12 12 0 -2
BITMAP
0000
0000
0000
0000
0000
0000
1F00
0000
0000
0000
0000
0000
ENDCHAR

STARTCHAR Ca1bf
ENCODING 41407
SWIDTH 1000 0
DWIDTH 12 0
BBX 12 12 0 -2
BITMAP
0000
0020
0040
0080
0100
0200
0400
0800
1000
2000
4000
0000
ENDCHAR

STARTCHAR Ca1c0
ENCODING 41408
SWIDTH 1000 0
DWIDTH 12 0
BBX 12 12 0 -2
BITMAP
0000
4000
2000
1000
0800
0400
0200
0100
0080
0040
0020
0000
ENDCHAR

STARTCHAR Ca1c1
ENCODING 41409
SWIDTH 1000 0
DWIDTH 12 0
BBX 12 12 0 -2
BITMAP
0000
0000
0000
0000
0000
3800
4440
0380
0000
0000
0000
0000
ENDCHAR

STARTCHAR Ca1c2
ENCODING 41410
SWIDTH 1000 0
DWIDTH 12 0
BBX 12 12 0 -2
BITMAP
0000
0A00
0A00
0A00
0A00
0A00
0A00
0A00
0A00
0A00
0A00
0000
ENDCHAR

STARTCHAR Ca1c3
ENCODING 41411
SWIDTH 1000 0
DWIDTH 12 0
BBX 12 12 0 -2
BITMAP
0000
0400
0400
0400
0400
0400
0400
0400
0400
0400
0400
0000
ENDCHAR

STARTCHAR Ca1c4
ENCODING 41412
SWIDTH 1000 0
DWIDTH 12 0
BBX 12 12 0 -2
BITMAP
0000
0000
0000
0000
0000
6660
6660
0000
0000
0000
0000
0000
ENDCHAR

STARTCHAR Ca1c5
ENCODING 41413
SWIDTH 1000 0
DWIDTH 12 0
BBX 12 12 0 -2
BITMAP
0000
0000
0000
0000
0000
1980
1980
0000
0000
0000
0000
0000
ENDCHAR

STARTCHAR Ca1c6
ENCODING 41414
SWIDTH 1000 0
DWIDTH 12 0
BBX 12 12 0 -2
BITMAP
0000
0020
0040
0060
0060
0000
0000
0000
0000
0000
0000
0000
ENDCHAR

STARTCHAR Ca1c7
ENCODING 41415
SWIDTH 1000 0
DWIDTH 12 0
BBX 12 12 0 -2
BITMAP
0000
6000
6000
2000
4000
0000
0000
0000
0000
0000
0000
0000
ENDCHAR

STARTCHAR Ca1c8
ENCODING 41416
SWIDTH 1000 0
DWIDTH 12 0
BBX 12 12 0 -2
BITMAP
0000
0120
0240
0360
0360
0000
0000
0000
0000
0000
0000
0000
ENDCHAR

STARTCHAR Ca1c9
ENCODING 41417
SWIDTH 1000 0
DWIDTH 12 0
BBX 12 12 0 -2
BITMAP
0000
6C00
6C00
2400
4800
0000
0000
0000
0000
0000
0000
0000
ENDCHAR

STARTCHAR Ca1ca
ENCODING 41418
SWIDTH 1000 0
DWIDTH 12 0
BBX 12 12 0 -2
BITMAP
0000
0020
0040
0040
0080
0080
0080
0080
0040
0040
0020
0000
ENDCHAR

STARTCHAR Ca1cb
ENCODING 41419
SWIDTH 1000 0
DWIDTH 12 0
BBX 12 12 0 -2
BITMAP
0000
4000
2000
2000
1000
1000
1000
1000
2000
2000
4000
0000
ENDCHAR

STARTCHAR Ca1cc
ENCODING 41420
SWIDTH 1000 0
DWIDTH 12 0
BBX 12 12 0 -2
BITMAP
0000
0020
0040
0080
0080
0080
0080
0080
0080
0040
0020
0000
ENDCHAR

STARTCHAR Ca1cd
ENCODING 41421
SWIDTH 1000 0
DWIDTH 12 0
BBX 12 12 0 -2
BITMAP
0000
4000
2000
1000
1000
1000
1000
1000
1000
2000
4000
0000
ENDCHAR

STARTCHAR Ca1ce
ENCODING 41422
SWIDTH 1000 0
DWIDTH 12 0
BBX 12 12 0 -2
BITMAP
0000
00E0
0080
0080
0080
0080
0080
0080
0080
0080
00E0
0000
ENDCHAR

STARTCHAR Ca1cf
ENCODING 41423
SWIDTH 1000 0
DWIDTH 12 0
BBX 12 12 0 -2
BITMAP
0000
7000
1000
1000
1000
1000
1000
1000
1000
1000
7000
0000
ENDCHAR

STARTCHAR Ca1d0
ENCODING 41424
SWIDTH 1000 0
DWIDTH 12 0
BBX 12 12 0 -2
BITMAP
0000
0020
0040
0040
0040
0080
0080
0040
0040
0040
0020
0000
ENDCHAR

STARTCHAR Ca1d1
ENCODING 41425
SWIDTH 1000 0
DWIDTH 12 0
BBX 12 12 0 -2
BITMAP
0000
4000
2000
2000
2000
1000
1000
2000
2000
2000
4000
0000
ENDCHAR

STARTCHAR Ca1d2
ENCODING 41426
SWIDTH 1000 0
DWIDTH 12 0
BBX 12 12 0 -2
BITMAP
0000
0020
0040
0080
0100
0200
0200
0100
0080
0040
0020
0000
ENDCHAR

STARTCHAR Ca1d3
ENCODING 41427
SWIDTH 1000 0
DWIDTH 12 0
BBX 12 12 0 -2
BITMAP
0000
4000
2000
1000
0800
0400
0400
0800
1000
2000
4000
0000
ENDCHAR

STARTCHAR Ca1d4
ENCODING 41428
SWIDTH 1000 0
DWIDTH 12 0
BBX 12 12 0 -2
BITMAP
0000
00A0
0140
0280
0500
0A00
0A00
0500
0280
0140
00A0
0000
ENDCHAR

STARTCHAR Ca1d5
ENCODING 41429
SWIDTH 1000 0
DWIDTH 12 0
BBX 12 12 0 -2
BITMAP
0000
5000
2800
1400
0A00
0500
0500
0A00
1400
2800
5000
0000
ENDCHAR

STARTCHAR Ca1d6
ENCODING 41430
SWIDTH 1000 0
DWIDTH 12 0
BBX 12 12 0 -2
BITMAP
0000
01E0
0100
0100
0100
0100
0100
0100
0100
0000
0000
0000
ENDCHAR

STARTCHAR Ca1d7
ENCODING 41431
SWIDTH 1000 0
DWIDTH 12 0
BBX 12 12 0 -2
BITMAP
0000
0000
0000
0800
0800
0800
0800
0800
0800
0800
7800
0000
ENDCHAR

STARTCHAR Ca1d8
ENCODING 41432
SWIDTH 1000 0
DWIDTH 12 0
BBX 12 12 0 -2
BITMAP
0000
03E0
0220
02E0
0280
0280
0280
0280
0380
0000
0000
0000
ENDCHAR

STARTCHAR Ca1d9
ENCODING 41433
SWIDTH 1000 0
DWIDTH 12 0
BBX 12 12 0 -2
BITMAP
0000
0000
0000
1C00
1400
1400
1400
1400
7400
4400
7C00
0000
ENDCHAR

STARTCHAR Ca1da
ENCODING 41434
SWIDTH 1000 0
DWIDTH 12 0
BBX 12 12 0 -2
BITMAP
0000
00E0
00C0
0080
0080
0080
0080
0080
0080
00C0
00E0
0000
ENDCHAR

STARTCHAR Ca1db
ENCODING 41435
SWIDTH 1000 0
DWIDTH 12 0
BBX 12 12 0 -2
BITMAP
0000
7000
3000
1000
1000
1000
1000
1000
1000
3000
7000
0000
ENDCHAR

STARTCHAR Ca1dc
ENCODING 41436
SWIDTH 1000 0
DWIDTH 12 0
BBX 12 12 0 -2
BITMAP
0000
0000
0400
0400
0400
3F80
0400
0400
0400
0000
0000
0000
ENDCHAR

STARTCHAR Ca1dd
ENCODING 41437
SWIDTH 1000 0
DWIDTH 12 0
BBX 12 12 0 -2
BITMAP
0000
0000
0000
0000
0000
3F80
0000
0000
0000
0000
0000
0000
ENDCHAR

STARTCHAR Ca1de
ENCODING 41438
SWIDTH 1000 0
DWIDTH 12 0
BBX 12 12 0 -2
BITMAP
0000
0400
0400
0400
3F80
0400
0400
0400
0000
3F80
0000
0000
ENDCHAR

STARTCHAR Ca1df
ENCODING 41439
SWIDTH 1000 0
DWIDTH 12 0
BBX 12 12 0 -2
BITMAP
0000
0000
2080
1100
0A00
0400
0A00
1100
2080
0000
0000
0000
ENDCHAR

STARTCHAR Ca1e0
ENCODING 41440
SWIDTH 1000 0
DWIDTH 12 0
BBX 12 12 0 -2
BITMAP
0000
0000
0400
0000
0000
3F80
0000
0000
0400
0000
0000
0000
ENDCHAR

STARTCHAR Ca1e1
ENCODING 41441
SWIDTH 1000 0
DWIDTH 12 0
BBX 12 12 0 -2
BITMAP
0000
0000
0000
0000
3F80
0000
3F80
0000
0000
0000
0000
0000
ENDCHAR

STARTCHAR Ca1e2
ENCODING 41442
SWIDTH 1000 0
DWIDTH 12 0
BBX 12 12 0 -2
BITMAP
0000
0000
0100
0200
3F80
0400
3F80
0800
1000
0000
0000
0000
ENDCHAR

STARTCHAR Ca1e3
ENCODING 41443
SWIDTH 1000 0
DWIDTH 12 0
BBX 12 12 0 -2
BITMAP
0000
00C0
0300
0C00
3000
4000
3000
0C00
0300
00C0
0000
0000
ENDCHAR

STARTCHAR Ca1e4
ENCODING 41444
SWIDTH 1000 0
DWIDTH 12 0
BBX 12 12 0 -2
BITMAP
0000
6000
1800
0600
0180
0040
0180
0600
1800
6000
0000
0000
ENDCHAR

STARTCHAR Ca1e5
ENCODING 41445
SWIDTH 1000 0
DWIDTH 12 0
BBX 12 12 0 -2
BITMAP
0000
0380
1C00
6000
1C00
0380
0000
7FC0
0000
7FC0
0000
0000
ENDCHAR

STARTCHAR Ca1e6
ENCODING 41446
SWIDTH 1000 0
DWIDTH 12 0
BBX 12 12 0 -2
BITMAP
0000
3800
0700
00C0
0700
3800
0000
7FC0
0000
7FC0
0000
0000
ENDCHAR

STARTCHAR Ca1e7
ENCODING 41447
SWIDTH 1000 0
DWIDTH 12 0
BBX 12 12 0 -2
BITMAP
0000
0000
0000
3180
4A40
4440
4A40
3180
0000
0000
0000
0000
ENDCHAR

STARTCHAR Ca1e8
ENCODING 41448
SWIDTH 1000 0
DWIDTH 12 0
BBX 12 12 0 -2
BITMAP
0000
0000
0000
0600
0600
0000
0000
30C0
30C0
0000
0000
0000
ENDCHAR

STARTCHAR Ca1e9
ENCODING 41449
SWIDTH 1000 0
DWIDTH 12 0
BBX 12 12 0 -2
BITMAP
0000
07C0
00C0
0140
0240
3C40
4400
4400
4400
3800
0000
0000
ENDCHAR

STARTCHAR Ca1ea
ENCODING 41450
SWIDTH 1000 0
DWIDTH 12 0
BBX 12 12 0 -2
BITMAP
0000
0E00
1100
1100
1100
0E00
0400
7FC0
0400
0400
0400
0000
ENDCHAR

STARTCHAR Ca1eb
ENCODING 41451
SWIDTH 1000 0
DWIDTH 12 0
BBX 12 12 0 -2
BITMAP
0000
2000
5000
2000
0000
0000
0000
0000
0000
0000
0000
0000
ENDCHAR

STARTCHAR Ca1ec
ENCODING 41452
SWIDTH 1000 0
DWIDTH 12 0
BBX 12 12 0 -2
BITMAP
0000
3000
2000
4000
4000
0000
0000
0000
0000
0000
0000
0000
ENDCHAR

STARTCHAR Ca1ed
ENCODING 41453
SWIDTH 1000 0
DWIDTH 12 0
BBX 12 12 0 -2
BITMAP
0000
3600
2400
4800
4800
0000
0000
0000
0000
0000
0000
0000
ENDCHAR

STARTCHAR Ca1ee
ENCODING 41454
SWIDTH 1000 0
DWIDTH 12 0
BBX 12 12 0 -2
BITMAP
0000
2000
5700
2880
1040
1000
1000
1040
0880
0700
0000
0000
ENDCHAR

STARTCHAR Ca1ef
ENCODING 41455
SWIDTH 1000 0
DWIDTH 12 0
BBX 12 12 0 -2
BITMAP
0000
2080
1100
0A00
7FC0
0400
7FC0
0400
0400
0400
0000
0000
ENDCHAR

STARTCHAR Ca1f0
ENCODING 41456
SWIDTH 1000 0
DWIDTH 12 0
BBX 12 12 0 -2
BITMAP
0000
0400
1F00
2480
2480
1C00
0700
2480
2480
1F00
0400
0000
ENDCHAR

STARTCHAR Ca1f1
ENCODING 41457
SWIDTH 1000 0
DWIDTH 12 0
BBX 12 12 0 -2
BITMAP
0000
0080
0100
0F00
1280
1200
1400
1480
0F00
0800
1000
0000
ENDCHAR

STARTCHAR Ca1f2
ENCODING 41458
SWIDTH 1000 0
DWIDTH 12 0
BBX 12 12 0 -2
BITMAP
0000
0700
0880
0880
0400
3F80
0400
1840
2440
1B80
0000
0000
ENDCHAR

STARTCHAR Ca1f3
ENCODING 41459
SWIDTH 1000 0
DWIDTH 12 0
BBX 12 12 0 -2
BITMAP
0000
0100
3100
4A00
4A00
3400
0580
0A40
0A40
1180
1000
0000
ENDCHAR

STARTCHAR Ca1f4
ENCODING 41460
SWIDTH 1000 0
DWIDTH 12 0
BBX 12 12 0 -2
BITMAP
0000
0480
0480
1FC0
0900
0900
0900
3F80
1200
1200
0000
0000
ENDCHAR

STARTCHAR Ca1f5
ENCODING 41461
SWIDTH 1000 0
DWIDTH 12 0
BBX 12 12 0 -2
BITMAP
0000
0C00
1200
1200
1400
09C0
1480
2280
2100
1EC0
0000
0000
ENDCHAR

STARTCHAR Ca1f6
ENCODING 41462
SWIDTH 1000 0
DWIDTH 12 0
BBX 12 12 0 -2
BITMAP
0000
0400
0E00
2480
3580
0E00
3580
2480
0E00
0400
0000
0000
ENDCHAR

STARTCHAR Ca1f7
ENCODING 41463
SWIDTH 1000 0
DWIDTH 12 0
BBX 12 12 0 -2
BITMAP
0000
0F00
3080
2640
4940
4940
4980
2600
3040
0F80
0000
0000
ENDCHAR

STARTCHAR Ca1f8
ENCODING 41464
SWIDTH 1000 0
DWIDTH 12 0
BBX 12 12 0 -2
BITMAP
0000
0F00
1080
1080
0E00
1180
1880
0700
1080
1080
0F00
0000
ENDCHAR

STARTCHAR Ca1f9
ENCODING 41465
SWIDTH 1000 0
DWIDTH 12 0
BBX 12 12 0 -2
BITMAP
0000
0400
0400
0A00
7BC0
2080
1100
1500
3B80
2080
0000
0000
ENDCHAR

STARTCHAR Ca1fa
ENCODING 41466
SWIDTH 1000 0
DWIDTH 12 0
BBX 12 12 0 -2
BITMAP
0000
0400
0400
0E00
7FC0
3F80
1F00
1F00
3B80
2080
0000
0000
ENDCHAR

STARTCHAR Ca1fb
ENCODING 41467
SWIDTH 1000 0
DWIDTH 12 0
BBX 12 12 0 -2
BITMAP
0000
0F00
30C0
2040
4020
4020
4020
4020
2040
30C0
0F00
0000
ENDCHAR

STARTCHAR Ca1fc
ENCODING 41468
SWIDTH 1000 0
DWIDTH 12 0
BBX 12 12 0 -2
BITMAP
0000
0F00
3FC0
3FC0
7FE0
7FE0
7FE0
7FE0
3FC0
3FC0
0F00
0000
ENDCHAR

STARTCHAR Ca1fd
ENCODING 41469
SWIDTH 1000 0
DWIDTH 12 0
BBX 12 12 0 -2
BITMAP
0000
0F00
30C0
2640
4920
50A0
50A0
4920
2640
30C0
0F00
0000
ENDCHAR

STARTCHAR Ca1fe
ENCODING 41470
SWIDTH 1000 0
DWIDTH 12 0
BBX 12 12 0 -2
BITMAP
0000
0600
0900
1080
2040
4020
4020
2040
1080
0900
0600
0000
ENDCHAR

STARTCHAR Ca2a1
ENCODING 41633
SWIDTH 1000 0
DWIDTH 12 0
BBX 12 12 0 -2
BITMAP
0000
0600
0F00
1F80
3FC0
7FE0
7FE0
3FC0
1F80
0F00
0600
0000
ENDCHAR

STARTCHAR Ca2a2
ENCODING 41634
SWIDTH 1000 0
DWIDTH 12 0
BBX 12 12 0 -2
BITMAP
0000
0000
7F80
4080
4080
4080
4080
4080
4080
7F80
0000
0000
ENDCHAR

STARTCHAR Ca2a3
ENCODING 41635
SWIDTH 1000 0
DWIDTH 12 0
BBX 12 12 0 -2
BITMAP
0000
0000
7F80
7F80
7F80
7F80
7F80
7F80
7F80
7F80
0000
0000
ENDCHAR

STARTCHAR Ca2a4
ENCODING 41636
SWIDTH 1000 0
DWIDTH 12 0
BBX 12 12 0 -2
BITMAP
0000
0400
0A00
0A00
1100
1100
2080
2080
4040
7FC0
0000
0000
ENDCHAR

STARTCHAR Ca2a5
ENCODING 41637
SWIDTH 1000 0
DWIDTH 12 0
BBX 12 12 0 -2
BITMAP
0000
0400
0E00
0E00
1F00
1F00
3F80
3F80
7FC0
7FC0
0000
0000
ENDCHAR

STARTCHAR Ca2a6
ENCODING 41638
SWIDTH 1000 0
DWIDTH 12 0
BBX 12 12 0 -2
BITMAP
0000
0000
7FC0
4040
2080
2080
1100
1100
0A00
0A00
0400
0000
ENDCHAR

STARTCHAR Ca2a7
ENCODING 41639
SWIDTH 1000 0
DWIDTH 12 0
BBX 12 12 0 -2
BITMAP
0000
0000
7FC0
7FC0
3F80
3F80
1F00
1F00
0E00
0E00
0400
0000
ENDCHAR

STARTCHAR Ca2a8
ENCODING 41640
SWIDTH 1000 0
DWIDTH 12 0
BBX 12 12 0 -2
BITMAP
0000
4440
2480
1100
0A00
64C0
0A00
1100
2480
4440
0000
0000
ENDCHAR

STARTCHAR Ca2a9
ENCODING 41641
SWIDTH 1000 0
DWIDTH 12 0
BBX 12 12 0 -2
BITMAP
0000
3F80
0000
0000
3F80
0400
0400
0400
0400
0400
0000
0000
ENDCHAR

STARTCHAR Ca2aa
ENCODING 41642
SWIDTH 1000 0
DWIDTH 12 0
BBX 12 12 0 -2
BITMAP
0000
0000
0000
0080
0040
7FE0
0040
0080
0000
0000
0000
0000
ENDCHAR

STARTCHAR Ca2ab
ENCODING 41643
SWIDTH 1000 0
DWIDTH 12 0
BBX 12 12 0 -2
BITMAP
0000
0000
0000
1000
2000
7FE0
2000
1000
0000
0000
0000
0000
ENDCHAR

STARTCHAR Ca2ac
ENCODING 41644
SWIDTH 1000 0
DWIDTH 12 0
BBX 12 12 0 -2
BITMAP
0000
0400
0E00
1500
0400
0400
0400
0400
0400
0400
0400
0000
ENDCHAR

STARTCHAR Ca2ad
ENCODING 41645
SWIDTH 1000 0
DWIDTH 12 0
BBX 12 12 0 -2
BITMAP
0000
0400
0400
0400
0400
0400
0400
0400
1500
0E00
0400
0000
ENDCHAR

STARTCHAR Ca2ae
ENCODING 41646
SWIDTH 1000 0
DWIDTH 12 0
BBX 12 12 0 -2
BITMAP
0000
0000
0000
0000
3FC0
0000
3FC0
0000
0000
0000
0000
0000
ENDCHAR

STARTCHAR Ca2af
ENCODING 41647
SWIDTH 1000 0
DWIDTH 12 0
BBX 12 12 0 -2
BITMAP
0000
0000
0000
0000
0000
0000
0000
0000
0000
0000
0000
0000
ENDCHAR

STARTCHAR Ca2b0
ENCODING 41648
SWIDTH 1000 0
DWIDTH 12 0
BBX 12 12 0 -2
BITMAP
0000
0000
0000
0000
0000
0000
0000
0000
0000
0000
0000
0000
ENDCHAR

STARTCHAR Ca2b1
ENCODING 41649
SWIDTH 1000 0
DWIDTH 12 0
BBX 12 12 0 -2
BITMAP
0000
0000
0000
0000
0000
0000
0000
0000
0000
0000
0000
0000
ENDCHAR

STARTCHAR Ca2b2
ENCODING 41650
SWIDTH 1000 0
DWIDTH 12 0
BBX 12 12 0 -2
BITMAP
0000
0000
0000
0000
0000
0000
0000
0000
0000
0000
0000
0000
ENDCHAR

STARTCHAR Ca2b3
ENCODING 41651
SWIDTH 1000 0
DWIDTH 12 0
BBX 12 12 0 -2
BITMAP
0000
0000
0000
0000
0000
0000
0000
0000
0000
0000
0000
0000
ENDCHAR

STARTCHAR Ca2b4
ENCODING 41652
SWIDTH 1000 0
DWIDTH 12 0
BBX 12 12 0 -2
BITMAP
0000
0000
0000
0000
0000
0000
0000
0000
0000
0000
0000
0000
ENDCHAR

STARTCHAR Ca2b5
ENCODING 41653
SWIDTH 1000 0
DWIDTH 12 0
BBX 12 12 0 -2
BITMAP
0000
0000
0000
0000
0000
0000
0000
0000
0000
0000
0000
0000
ENDCHAR

STARTCHAR Ca2b6
ENCODING 41654
SWIDTH 1000 0
DWIDTH 12 0
BBX 12 12 0 -2
BITMAP
0000
0000
0000
0000
0000
0000
0000
0000
0000
0000
0000
0000
ENDCHAR

STARTCHAR Ca2b7
ENCODING 41655
SWIDTH 1000 0
DWIDTH 12 0
BBX 12 12 0 -2
BITMAP
0000
0000
0000
0000
0000
0000
0000
0000
0000
0000
0000
0000
ENDCHAR

STARTCHAR Ca2b8
ENCODING 41656
SWIDTH 1000 0
DWIDTH 12 0
BBX 12 12 0 -2
BITMAP
0000
0000
0000
0000
0000
0000
0000
0000
0000
0000
0000
0000
ENDCHAR

STARTCHAR Ca2b9
ENCODING 41657
SWIDTH 1000 0
DWIDTH 12 0
BBX 12 12 0 -2
BITMAP
0000
0000
0000
0000
0000
0000
0000
0000
0000
0000
0000
0000
ENDCHAR

STARTCHAR Ca2ba
ENCODING 41658
SWIDTH 1000 0
DWIDTH 12 0
BBX 12 12 0 -2
BITMAP
0000
0000
1FC0
2000
4000
7FC0
4000
2000
1FC0
0000
0000
0000
ENDCHAR

STARTCHAR Ca2bb
ENCODING 41659
SWIDTH 1000 0
DWIDTH 12 0
BBX 12 12 0 -2
BITMAP
0000
0000
7F00
0080
0040
7FC0
0040
0080
7F00
0000
0000
0000
ENDCHAR

STARTCHAR Ca2bc
ENCODING 41660
SWIDTH 1000 0
DWIDTH 12 0
BBX 12 12 0 -2
BITMAP
0000
0000
1FC0
2000
4000
4000
2000
1FC0
0000
7FC0
0000
0000
ENDCHAR

STARTCHAR Ca2bd
ENCODING 41661
SWIDTH 1000 0
DWIDTH 12 0
BBX 12 12 0 -2
BITMAP
0000
0000
7F00
0080
0040
0040
0080
7F00
0000
7FC0
0000
0000
ENDCHAR

STARTCHAR Ca2be
ENCODING 41662
SWIDTH 1000 0
DWIDTH 12 0
BBX 12 12 0 -2
BITMAP
0000
0000
1FC0
2000
4000
4000
4000
2000
1FC0
0000
0000
0000
ENDCHAR

STARTCHAR Ca2bf
ENCODING 41663
SWIDTH 1000 0
DWIDTH 12 0
BBX 12 12 0 -2
BITMAP
0000
0000
7F00
0080
0040
0040
0040
0080
7F00
0000
0000
0000
ENDCHAR

STARTCHAR Ca2c0
ENCODING 41664
SWIDTH 1000 0
DWIDTH 12 0
BBX 12 12 0 -2
BITMAP
0000
2080
2080
2080
2080
2080
2080
2080
1100
0E00
0000
0000
ENDCHAR

STARTCHAR Ca2c1
ENCODING 41665
SWIDTH 1000 0
DWIDTH 12 0
BBX 12 12 0 -2
BITMAP
0000
0E00
1100
2080
2080
2080
2080
2080
2080
2080
0000
0000
ENDCHAR

STARTCHAR Ca2c2
ENCODING 41666
SWIDTH 1000 0
DWIDTH 12 0
BBX 12 12 0 -2
BITMAP
0000
0000
0000
0000
0000
0000
0000
0000
0000
0000
0000
0000
ENDCHAR

STARTCHAR Ca2c3
ENCODING 41667
SWIDTH 1000 0
DWIDTH 12 0
BBX 12 12 0 -2
BITMAP
0000
0000
0000
0000
0000
0000
0000
0000
0000
0000
0000
0000
ENDCHAR

STARTCHAR Ca2c4
ENCODING 41668
SWIDTH 1000 0
DWIDTH 12 0
BBX 12 12 0 -2
BITMAP
0000
0000
0000
0000
0000
0000
0000
0000
0000
0000
0000
0000
ENDCHAR

STARTCHAR Ca2c5
ENCODING 41669
SWIDTH 1000 0
DWIDTH 12 0
BBX 12 12 0 -2
BITMAP
0000
0000
0000
0000
0000
0000
0000
0000
0000
0000
0000
0000
ENDCHAR

STARTCHAR Ca2c6
ENCODING 41670
SWIDTH 1000 0
DWIDTH 12 0
BBX 12 12 0 -2
BITMAP
0000
0000
0000
0000
0000
0000
0000
0000
0000
0000
0000
0000
ENDCHAR

STARTCHAR Ca2c7
ENCODING 41671
SWIDTH 1000 0
DWIDTH 12 0
BBX 12 12 0 -2
BITMAP
0000
0000
0000
0000
0000
0000
0000
0000
0000
0000
0000
0000
ENDCHAR

STARTCHAR Ca2c8
ENCODING 41672
SWIDTH 1000 0
DWIDTH 12 0
BBX 12 12 0 -2
BITMAP
0000
0000
0000
0000
0000
0000
0000
0000
0000
0000
0000
0000
ENDCHAR

STARTCHAR Ca2c9
ENCODING 41673
SWIDTH 1000 0
DWIDTH 12 0
BBX 12 12 0 -2
BITMAP
0000
0000
0000
0000
0000
0000
0000
0000
0000
0000
0000
0000
ENDCHAR

STARTCHAR Ca2ca
ENCODING 41674
SWIDTH 1000 0
DWIDTH 12 0
BBX 12 12 0 -2
BITMAP
0000
0400
0A00
0A00
1100
1100
2080
2080
4040
4040
0000
0000
ENDCHAR

STARTCHAR Ca2cb
ENCODING 41675
SWIDTH 1000 0
DWIDTH 12 0
BBX 12 12 0 -2
BITMAP
0000
4040
4040
2080
2080
1100
1100
0A00
0A00
0400
0000
0000
ENDCHAR

STARTCHAR Ca2cc
ENCODING 41676
SWIDTH 1000 0
DWIDTH 12 0
BBX 12 12 0 -2
BITMAP
0000
0000
0000
0000
7FC0
0040
0040
0000
0000
0000
0000
0000
ENDCHAR

STARTCHAR Ca2cd
ENCODING 41677
SWIDTH 1000 0
DWIDTH 12 0
BBX 12 12 0 -2
BITMAP
0000
0000
0100
0080
7FC0
0020
7FC0
0080
0100
0000
0000
0000
ENDCHAR

STARTCHAR Ca2ce
ENCODING 41678
SWIDTH 1000 0
DWIDTH 12 0
BBX 12 12 0 -2
BITMAP
0000
0000
0900
1080
3FC0
4020
3FC0
1080
0900
0000
0000
0000
ENDCHAR

STARTCHAR Ca2cf
ENCODING 41679
SWIDTH 1000 0
DWIDTH 12 0
BBX 12 12 0 -2
BITMAP
0000
4040
4040
2080
3F80
1100
1100
0A00
0A00
0400
0000
0000
ENDCHAR

STARTCHAR Ca2d0
ENCODING 41680
SWIDTH 1000 0
DWIDTH 12 0
BBX 12 12 0 -2
BITMAP
0000
0000
3FC0
0040
0040
3FC0
0040
0040
0040
3FC0
0000
0000
ENDCHAR

STARTCHAR Ca2d1
ENCODING 41681
SWIDTH 1000 0
DWIDTH 12 0
BBX 12 12 0 -2
BITMAP
0000
0000
0000
0000
0000
0000
0000
0000
0000
0000
0000
0000
ENDCHAR

STARTCHAR Ca2d2
ENCODING 41682
SWIDTH 1000 0
DWIDTH 12 0
BBX 12 12 0 -2
BITMAP
0000
0000
0000
0000
0000
0000
0000
0000
0000
0000
0000
0000
ENDCHAR

STARTCHAR Ca2d3
ENCODING 41683
SWIDTH 1000 0
DWIDTH 12 0
BBX 12 12 0 -2
BITMAP
0000
0000
0000
0000
0000
0000
0000
0000
0000
0000
0000
0000
ENDCHAR

STARTCHAR Ca2d4
ENCODING 41684
SWIDTH 1000 0
DWIDTH 12 0
BBX 12 12 0 -2
BITMAP
0000
0000
0000
0000
0000
0000
0000
0000
0000
0000
0000
0000
ENDCHAR

STARTCHAR Ca2d5
ENCODING 41685
SWIDTH 1000 0
DWIDTH 12 0
BBX 12 12 0 -2
BITMAP
0000
0000
0000
0000
0000
0000
0000
0000
0000
0000
0000
0000
ENDCHAR

STARTCHAR Ca2d6
ENCODING 41686
SWIDTH 1000 0
DWIDTH 12 0
BBX 12 12 0 -2
BITMAP
0000
0000
0000
0000
0000
0000
0000
0000
0000
0000
0000
0000
ENDCHAR

STARTCHAR Ca2d7
ENCODING 41687
SWIDTH 1000 0
DWIDTH 12 0
BBX 12 12 0 -2
BITMAP
0000
0000
0000
0000
0000
0000
0000
0000
0000
0000
0000
0000
ENDCHAR

STARTCHAR Ca2d8
ENCODING 41688
SWIDTH 1000 0
DWIDTH 12 0
BBX 12 12 0 -2
BITMAP
0000
0000
0000
0000
0000
0000
0000
0000
0000
0000
0000
0000
ENDCHAR

STARTCHAR Ca2d9
ENCODING 41689
SWIDTH 1000 0
DWIDTH 12 0
BBX 12 12 0 -2
BITMAP
0000
0000
0000
0000
0000
0000
0000
0000
0000
0000
0000
0000
ENDCHAR

STARTCHAR Ca2da
ENCODING 41690
SWIDTH 1000 0
DWIDTH 12 0
BBX 12 12 0 -2
BITMAP
0000
0000
0000
0000
0000
0000
0000
0000
0000
0000
0000
0000
ENDCHAR

STARTCHAR Ca2db
ENCODING 41691
SWIDTH 1000 0
DWIDTH 12 0
BBX 12 12 0 -2
BITMAP
0000
0000
0000
0000
0000
0000
0000
0000
0000
0000
0000
0000
ENDCHAR

STARTCHAR Ca2dc
ENCODING 41692
SWIDTH 1000 0
DWIDTH 12 0
BBX 12 12 0 -2
BITMAP
0000
0040
0080
0100
0200
0400
0800
1000
2000
7FC0
0000
0000
ENDCHAR

STARTCHAR Ca2dd
ENCODING 41693
SWIDTH 1000 0
DWIDTH 12 0
BBX 12 12 0 -2
BITMAP
0000
0400
0400
0400
0400
0400
0400
0400
0400
7FC0
0000
0000
ENDCHAR

STARTCHAR Ca2de
ENCODING 41694
SWIDTH 1000 0
DWIDTH 12 0
BBX 12 12 0 -2
BITMAP
0000
0F00
30C0
4020
0000
0000
0000
0000
0000
0000
0000
0000
ENDCHAR

STARTCHAR Ca2df
ENCODING 41695
SWIDTH 1000 0
DWIDTH 12 0
BBX 12 12 0 -2
BITMAP
0000
0700
0880
0080
0080
0E80
1100
2100
2200
1C00
0000
0000
ENDCHAR

STARTCHAR Ca2e0
ENCODING 41696
SWIDTH 1000 0
DWIDTH 12 0
BBX 12 12 0 -2
BITMAP
0000
7FC0
4040
2080
2080
1100
1100
0A00
0A00
0400
0400
0000
ENDCHAR

STARTCHAR Ca2e1
ENCODING 41697
SWIDTH 1000 0
DWIDTH 12 0
BBX 12 12 0 -2
BITMAP
0000
0000
3F80
0000
0000
3F80
0000
0000
3F80
0000
0000
0000
ENDCHAR

STARTCHAR Ca2e2
ENCODING 41698
SWIDTH 1000 0
DWIDTH 12 0
BBX 12 12 0 -2
BITMAP
0000
0000
1000
0000
3F80
0000
3F80
0000
0100
0000
0000
0000
ENDCHAR

STARTCHAR Ca2e3
ENCODING 41699
SWIDTH 1000 0
DWIDTH 12 0
BBX 12 12 0 -2
BITMAP
0000
0120
0240
0480
0900
1200
0900
0480
0240
0120
0000
0000
ENDCHAR

STARTCHAR Ca2e4
ENCODING 41700
SWIDTH 1000 0
DWIDTH 12 0
BBX 12 12 0 -2
BITMAP
0000
4800
2400
1200
0900
0480
0900
1200
2400
4800
0000
0000
ENDCHAR

STARTCHAR Ca2e5
ENCODING 41701
SWIDTH 1000 0
DWIDTH 12 0
BBX 12 12 0 -2
BITMAP
0000
01E0
0100
0100
0200
0200
2200
2400
5400
4800
0800
0000
ENDCHAR

STARTCHAR Ca2e6
ENCODING 41702
SWIDTH 1000 0
DWIDTH 12 0
BBX 12 12 0 -2
BITMAP
0000
0000
0000
3180
4240
4440
4840
3180
0000
0000
0000
0000
ENDCHAR

STARTCHAR Ca2e7
ENCODING 41703
SWIDTH 1000 0
DWIDTH 12 0
BBX 12 12 0 -2
BITMAP
0000
0000
0000
3180
4A40
4400
4A40
3180
0000
0000
0000
0000
ENDCHAR

STARTCHAR Ca2e8
ENCODING 41704
SWIDTH 1000 0
DWIDTH 12 0
BBX 12 12 0 -2
BITMAP
0000
0000
0000
30C0
30C0
0000
0000
0600
0600
0000
0000
0000
ENDCHAR

STARTCHAR Ca2e9
ENCODING 41705
SWIDTH 1000 0
DWIDTH 12 0
BBX 12 12 0 -2
BITMAP
0000
0200
0500
0500
0400
0400
0400
0400
1400
1400
0800
0000
ENDCHAR

STARTCHAR Ca2ea
ENCODING 41706
SWIDTH 1000 0
DWIDTH 12 0
BBX 12 12 0 -2
BITMAP
0000
0880
1540
1540
1100
1100
1100
1100
5500
5500
2200
0000
ENDCHAR

STARTCHAR Ca2eb
ENCODING 41707
SWIDTH 1000 0
DWIDTH 12 0
BBX 12 12 0 -2
BITMAP
0000
0000
0000
0000
0000
0000
0000
0000
0000
0000
0000
0000
ENDCHAR

STARTCHAR Ca2ec
ENCODING 41708
SWIDTH 1000 0
DWIDTH 12 0
BBX 12 12 0 -2
BITMAP
0000
0000
0000
0000
0000
0000
0000
0000
0000
0000
0000
0000
ENDCHAR

STARTCHAR Ca2ed
ENCODING 41709
SWIDTH 1000 0
DWIDTH 12 0
BBX 12 12 0 -2
BITMAP
0000
0000
0000
0000
0000
0000
0000
0000
0000
0000
0000
0000
ENDCHAR

STARTCHAR Ca2ee
ENCODING 41710
SWIDTH 1000 0
DWIDTH 12 0
BBX 12 12 0 -2
BITMAP
0000
0000
0000
0000
0000
0000
0000
0000
0000
0000
0000
0000
ENDCHAR

STARTCHAR Ca2ef
ENCODING 41711
SWIDTH 1000 0
DWIDTH 12 0
BBX 12 12 0 -2
BITMAP
0000
0000
0000
0000
0000
0000
0000
0000
0000
0000
0000
0000
ENDCHAR

STARTCHAR Ca2f0
ENCODING 41712
SWIDTH 1000 0
DWIDTH 12 0
BBX 12 12 0 -2
BITMAP
0000
0000
0000
0000
0000
0000
0000
0000
0000
0000
0000
0000
ENDCHAR

STARTCHAR Ca2f1
ENCODING 41713
SWIDTH 1000 0
DWIDTH 12 0
BBX 12 12 0 -2
BITMAP
0000
0000
0000
0000
0000
0000
0000
0000
0000
0000
0000
0000
ENDCHAR

STARTCHAR Ca2f2
ENCODING 41714
SWIDTH 1000 0
DWIDTH 12 0
BBX 12 12 0 -2
BITMAP
0000
0400
0A00
0400
0A00
0A00
1100
3F80
2080
4040
0000
0000
ENDCHAR

STARTCHAR Ca2f3
ENCODING 41715
SWIDTH 1000 0
DWIDTH 12 0
BBX 12 12 0 -2
BITMAP
0000
0200
2200
5400
5400
2800
0A80
1540
1540
2280
2000
0000
ENDCHAR

STARTCHAR Ca2f4
ENCODING 41716
SWIDTH 1000 0
DWIDTH 12 0
BBX 12 12 0 -2
BITMAP
0000
0900
09C0
0F00
3900
0900
09C0
0F00
3900
0900
0000
0000
ENDCHAR

STARTCHAR Ca2f5
ENCODING 41717
SWIDTH 1000 0
DWIDTH 12 0
BBX 12 12 0 -2
BITMAP
0000
0800
0800
0800
0B00
0C80
0880
0880
0B00
0C00
0000
0000
ENDCHAR

STARTCHAR Ca2f6
ENCODING 41718
SWIDTH 1000 0
DWIDTH 12 0
BBX 12 12 0 -2
BITMAP
0000
0400
0600
0500
0480
0480
0500
0400
1C00
3C00
1800
0000
ENDCHAR

STARTCHAR Ca2f7
ENCODING 41719
SWIDTH 1000 0
DWIDTH 12 0
BBX 12 12 0 -2
BITMAP
0000
0400
0E00
1500
3F80
1500
0400
0E00
0400
0400
0400
0000
ENDCHAR

STARTCHAR Ca2f8
ENCODING 41720
SWIDTH 1000 0
DWIDTH 12 0
BBX 12 12 0 -2
BITMAP
0000
0E00
1500
3F80
1500
0400
0400
1500
3F80
1500
0E00
0000
ENDCHAR

STARTCHAR Ca2f9
ENCODING 41721
SWIDTH 1000 0
DWIDTH 12 0
BBX 12 12 0 -2
BITMAP
0000
1E00
3A00
3A00
1A00
0A00
0A00
0A00
0A00
0A00
0A00
0000
ENDCHAR

STARTCHAR Ca2fa
ENCODING 41722
SWIDTH 1000 0
DWIDTH 12 0
BBX 12 12 0 -2
BITMAP
0000
0000
0000
0000
0000
0000
0000
0000
0000
0000
0000
0000
ENDCHAR

STARTCHAR Ca2fb
ENCODING 41723
SWIDTH 1000 0
DWIDTH 12 0
BBX 12 12 0 -2
BITMAP
0000
0000
0000
0000
0000
0000
0000
0000
0000
0000
0000
0000
ENDCHAR

STARTCHAR Ca2fc
ENCODING 41724
SWIDTH 1000 0
DWIDTH 12 0
BBX 12 12 0 -2
BITMAP
0000
0000
0000
0000
0000
0000
0000
0000
0000
0000
0000
0000
ENDCHAR

STARTCHAR Ca2fd
ENCODING 41725
SWIDTH 1000 0
DWIDTH 12 0
BBX 12 12 0 -2
BITMAP
0000
0000
0000
0000
0000
0000
0000
0000
0000
0000
0000
0000
ENDCHAR

STARTCHAR Ca2fe
ENCODING 41726
SWIDTH 1000 0
DWIDTH 12 0
BBX 12 12 0 -2
BITMAP
0000
0F00
30C0
2040
4020
4020
4020
4020
2040
30C0
0F00
0000
ENDCHAR

STARTCHAR Ca3a2
ENCODING 41890
SWIDTH 1000 0
DWIDTH 12 0
BBX 12 12 0 -2
BITMAP
0000
0000
0000
0000
0000
0000
0000
0000
0000
0000
0000
0000
ENDCHAR

STARTCHAR Ca3a3
ENCODING 41891
SWIDTH 1000 0
DWIDTH 12 0
BBX 12 12 0 -2
BITMAP
0000
0000
0000
0000
0000
0000
0000
0000
0000
0000
0000
0000
ENDCHAR

STARTCHAR Ca3a4
ENCODING 41892
SWIDTH 1000 0
DWIDTH 12 0
BBX 12 12 0 -2
BITMAP
0000
0000
0000
0000
0000
0000
0000
0000
0000
0000
0000
0000
ENDCHAR

STARTCHAR Ca3a5
ENCODING 41893
SWIDTH 1000 0
DWIDTH 12 0
BBX 12 12 0 -2
BITMAP
0000
0000
0000
0000
0000
0000
0000
0000
0000
0000
0000
0000
ENDCHAR

STARTCHAR Ca3a6
ENCODING 41894
SWIDTH 1000 0
DWIDTH 12 0
BBX 12 12 0 -2
BITMAP
0000
0000
0000
0000
0000
0000
0000
0000
0000
0000
0000
0000
ENDCHAR

STARTCHAR Ca3a7
ENCODING 41895
SWIDTH 1000 0
DWIDTH 12 0
BBX 12 12 0 -2
BITMAP
0000
0000
0000
0000
0000
0000
0000
0000
0000
0000
0000
0000
ENDCHAR

STARTCHAR Ca3a8
ENCODING 41896
SWIDTH 1000 0
DWIDTH 12 0
BBX 12 12 0 -2
BITMAP
0000
0000
0000
0000
0000
0000
0000
0000
0000
0000
0000
0000
ENDCHAR

STARTCHAR Ca3a9
ENCODING 41897
SWIDTH 1000 0
DWIDTH 12 0
BBX 12 12 0 -2
BITMAP
0000
0000
0000
0000
0000
0000
0000
0000
0000
0000
0000
0000
ENDCHAR

STARTCHAR Ca3aa
ENCODING 41898
SWIDTH 1000 0
DWIDTH 12 0
BBX 12 12 0 -2
BITMAP
0000
0000
0000
0000
0000
0000
0000
0000
0000
0000
0000
0000
ENDCHAR

STARTCHAR Ca3ab
ENCODING 41899
SWIDTH 1000 0
DWIDTH 12 0
BBX 12 12 0 -2
BITMAP
0000
0000
0000
0000
0000
0000
0000
0000
0000
0000
0000
0000
ENDCHAR

STARTCHAR Ca3ac
ENCODING 41900
SWIDTH 1000 0
DWIDTH 12 0
BBX 12 12 0 -2
BITMAP
0000
0000
0000
0000
0000
0000
0000
0000
0000
0000
0000
0000
ENDCHAR

STARTCHAR Ca3ad
ENCODING 41901
SWIDTH 1000 0
DWIDTH 12 0
BBX 12 12 0 -2
BITMAP
0000
0000
0000
0000
0000
0000
0000
0000
0000
0000
0000
0000
ENDCHAR

STARTCHAR Ca3ae
ENCODING 41902
SWIDTH 1000 0
DWIDTH 12 0
BBX 12 12 0 -2
BITMAP
0000
0000
0000
0000
0000
0000
0000
0000
0000
0000
0000
0000
ENDCHAR

STARTCHAR Ca3af
ENCODING 41903
SWIDTH 1000 0
DWIDTH 12 0
BBX 12 12 0 -2
BITMAP
0000
0000
0000
0000
0000
0000
0000
0000
0000
0000
0000
0000
ENDCHAR

STARTCHAR Ca3b0
ENCODING 41904
SWIDTH 1000 0
DWIDTH 12 0
BBX 12 12 0 -2
BITMAP
0000
0F00
1080
1080
1080
1080
1080
1080
1080
0F00
0000
0000
ENDCHAR

STARTCHAR Ca3b1
ENCODING 41905
SWIDTH 1000 0
DWIDTH 12 0
BBX 12 12 0 -2
BITMAP
0000
0200
0600
0A00
0200
0200
0200
0200
0200
0200
0000
0000
ENDCHAR

STARTCHAR Ca3b2
ENCODING 41906
SWIDTH 1000 0
DWIDTH 12 0
BBX 12 12 0 -2
BITMAP
0000
0F00
1080
1080
0080
0100
0600
0800
1000
1F80
0000
0000
ENDCHAR

STARTCHAR Ca3b3
ENCODING 41907
SWIDTH 1000 0
DWIDTH 12 0
BBX 12 12 0 -2
BITMAP
0000
0F00
1080
1080
0080
0700
0080
1080
1080
0F00
0000
0000
ENDCHAR

STARTCHAR Ca3b4
ENCODING 41908
SWIDTH 1000 0
DWIDTH 12 0
BBX 12 12 0 -2
BITMAP
0000
0100
0300
0500
0900
1100
2100
3F80
0100
0100
0000
0000
ENDCHAR

STARTCHAR Ca3b5
ENCODING 41909
SWIDTH 1000 0
DWIDTH 12 0
BBX 12 12 0 -2
BITMAP
0000
1F00
1000
1000
1F00
1080
0080
0080
1080
0F00
0000
0000
ENDCHAR

STARTCHAR Ca3b6
ENCODING 41910
SWIDTH 1000 0
DWIDTH 12 0
BBX 12 12 0 -2
BITMAP
0000
0F00
1080
1080
1000
1F00
1080
1080
1080
0F00
0000
0000
ENDCHAR

STARTCHAR Ca3b7
ENCODING 41911
SWIDTH 1000 0
DWIDTH 12 0
BBX 12 12 0 -2
BITMAP
0000
3F80
0080
0100
0100
0200
0200
0400
0400
0400
0000
0000
ENDCHAR

STARTCHAR Ca3b8
ENCODING 41912
SWIDTH 1000 0
DWIDTH 12 0
BBX 12 12 0 -2
BITMAP
0000
0F00
1080
1080
1080
0F00
1080
1080
1080
0F00
0000
0000
ENDCHAR

STARTCHAR Ca3b9
ENCODING 41913
SWIDTH 1000 0
DWIDTH 12 0
BBX 12 12 0 -2
BITMAP
0000
0F00
1080
1080
1080
0F80
0080
0080
1080
0F00
0000
0000
ENDCHAR

STARTCHAR Ca3ba
ENCODING 41914
SWIDTH 1000 0
DWIDTH 12 0
BBX 12 12 0 -2
BITMAP
0000
0000
0000
0000
0000
0000
0000
0000
0000
0000
0000
0000
ENDCHAR

STARTCHAR Ca3bb
ENCODING 41915
SWIDTH 1000 0
DWIDTH 12 0
BBX 12 12 0 -2
BITMAP
0000
0000
0000
0000
0000
0000
0000
0000
0000
0000
0000
0000
ENDCHAR

STARTCHAR Ca3bc
ENCODING 41916
SWIDTH 1000 0
DWIDTH 12 0
BBX 12 12 0 -2
BITMAP
0000
0000
0000
0000
0000
0000
0000
0000
0000
0000
0000
0000
ENDCHAR

STARTCHAR Ca3bd
ENCODING 41917
SWIDTH 1000 0
DWIDTH 12 0
BBX 12 12 0 -2
BITMAP
0000
0000
0000
0000
0000
0000
0000
0000
0000
0000
0000
0000
ENDCHAR

STARTCHAR Ca3be
ENCODING 41918
SWIDTH 1000 0
DWIDTH 12 0
BBX 12 12 0 -2
BITMAP
0000
0000
0000
0000
0000
0000
0000
0000
0000
0000
0000
0000
ENDCHAR

STARTCHAR Ca3bf
ENCODING 41919
SWIDTH 1000 0
DWIDTH 12 0
BBX 12 12 0 -2
BITMAP
0000
0000
0000
0000
0000
0000
0000
0000
0000
0000
0000
0000
ENDCHAR

STARTCHAR Ca3c0
ENCODING 41920
SWIDTH 1000 0
DWIDTH 12 0
BBX 12 12 0 -2
BITMAP
0000
0000
0000
0000
0000
0000
0000
0000
0000
0000
0000
0000
ENDCHAR

STARTCHAR Ca3c1
ENCODING 41921
SWIDTH 1000 0
DWIDTH 12 0
BBX 12 12 0 -2
BITMAP
0000
0400
0A00
0A00
1100
1100
2080
3F80
4040
4040
0000
0000
ENDCHAR

STARTCHAR Ca3c2
ENCODING 41922
SWIDTH 1000 0
DWIDTH 12 0
BBX 12 12 0 -2
BITMAP
0000
3F00
2080
2080
2080
3F00
2080
2040
2040
3F80
0000
0000
ENDCHAR

STARTCHAR Ca3c3
ENCODING 41923
SWIDTH 1000 0
DWIDTH 12 0
BBX 12 12 0 -2
BITMAP
0000
0F00
1080
2040
2000
2000
2000
2040
1080
0F00
0000
0000
ENDCHAR

STARTCHAR Ca3c4
ENCODING 41924
SWIDTH 1000 0
DWIDTH 12 0
BBX 12 12 0 -2
BITMAP
0000
3E00
2100
2080
2080
2080
2080
2080
2100
3E00
0000
0000
ENDCHAR

STARTCHAR Ca3c5
ENCODING 41925
SWIDTH 1000 0
DWIDTH 12 0
BBX 12 12 0 -2
BITMAP
0000
3F80
2000
2000
2000
3F00
2000
2000
2000
3F80
0000
0000
ENDCHAR

STARTCHAR Ca3c6
ENCODING 41926
SWIDTH 1000 0
DWIDTH 12 0
BBX 12 12 0 -2
BITMAP
0000
3F80
2000
2000
2000
3F00
2000
2000
2000
2000
0000
0000
ENDCHAR

STARTCHAR Ca3c7
ENCODING 41927
SWIDTH 1000 0
DWIDTH 12 0
BBX 12 12 0 -2
BITMAP
0000
0F00
1080
2040
2000
2000
23C0
2040
10C0
0F40
0000
0000
ENDCHAR

STARTCHAR Ca3c8
ENCODING 41928
SWIDTH 1000 0
DWIDTH 12 0
BBX 12 12 0 -2
BITMAP
0000
2080
2080
2080
2080
3F80
2080
2080
2080
2080
0000
0000
ENDCHAR

STARTCHAR Ca3c9
ENCODING 41929
SWIDTH 1000 0
DWIDTH 12 0
BBX 12 12 0 -2
BITMAP
0000
0400
0400
0400
0400
0400
0400
0400
0400
0400
0000
0000
ENDCHAR

STARTCHAR Ca3ca
ENCODING 41930
SWIDTH 1000 0
DWIDTH 12 0
BBX 12 12 0 -2
BITMAP
0000
0100
0100
0100
0100
0100
0100
2100
2100
1E00
0000
0000
ENDCHAR

STARTCHAR Ca3cb
ENCODING 41931
SWIDTH 1000 0
DWIDTH 12 0
BBX 12 12 0 -2
BITMAP
0000
2080
2100
2200
2400
2C00
3200
2100
2080
2040
0000
0000
ENDCHAR

STARTCHAR Ca3cc
ENCODING 41932
SWIDTH 1000 0
DWIDTH 12 0
BBX 12 12 0 -2
BITMAP
0000
1000
1000
1000
1000
1000
1000
1000
1000
1FC0
0000
0000
ENDCHAR

STARTCHAR Ca3cd
ENCODING 41933
SWIDTH 1000 0
DWIDTH 12 0
BBX 12 12 0 -2
BITMAP
0000
60C0
5140
5140
4A40
4A40
4A40
4440
4440
4040
0000
0000
ENDCHAR

STARTCHAR Ca3ce
ENCODING 41934
SWIDTH 1000 0
DWIDTH 12 0
BBX 12 12 0 -2
BITMAP
0000
3040
2840
2840
2440
2240
2140
2140
20C0
2040
0000
0000
ENDCHAR

STARTCHAR Ca3cf
ENCODING 41935
SWIDTH 1000 0
DWIDTH 12 0
BBX 12 12 0 -2
BITMAP
0000
0F00
1080
2040
2040
2040
2040
2040
1080
0F00
0000
0000
ENDCHAR

STARTCHAR Ca3d0
ENCODING 41936
SWIDTH 1000 0
DWIDTH 12 0
BBX 12 12 0 -2
BITMAP
0000
1F80
1040
1040
1040
1F80
1000
1000
1000
1000
0000
0000
ENDCHAR

STARTCHAR Ca3d1
ENCODING 41937
SWIDTH 1000 0
DWIDTH 12 0
BBX 12 12 0 -2
BITMAP
0000
0F00
1080
2040
2040
2040
2240
2140
1080
0F40
0040
0000
ENDCHAR

STARTCHAR Ca3d2
ENCODING 41938
SWIDTH 1000 0
DWIDTH 12 0
BBX 12 12 0 -2
BITMAP
0000
3F00
2080
2080
2080
3F00
2200
2100
2080
2040
0000
0000
ENDCHAR

STARTCHAR Ca3d3
ENCODING 41939
SWIDTH 1000 0
DWIDTH 12 0
BBX 12 12 0 -2
BITMAP
0000
1F00
2080
2080
1800
0400
0300
2080
2080
1F00
0000
0000
ENDCHAR

STARTCHAR Ca3d4
ENCODING 41940
SWIDTH 1000 0
DWIDTH 12 0
BBX 12 12 0 -2
BITMAP
0000
7FC0
0400
0400
0400
0400
0400
0400
0400
0400
0000
0000
ENDCHAR

STARTCHAR Ca3d5
ENCODING 41941
SWIDTH 1000 0
DWIDTH 12 0
BBX 12 12 0 -2
BITMAP
0000
2080
2080
2080
2080
2080
2080
2080
1100
0E00
0000
0000
ENDCHAR

STARTCHAR Ca3d6
ENCODING 41942
SWIDTH 1000 0
DWIDTH 12 0
BBX 12 12 0 -2
BITMAP
0000
4040
4040
2080
2080
1100
1100
0A00
0A00
0400
0000
0000
ENDCHAR

STARTCHAR Ca3d7
ENCODING 41943
SWIDTH 1000 0
DWIDTH 12 0
BBX 12 12 0 -2
BITMAP
0000
4440
4440
4440
4440
2A80
2A80
2A80
1100
1100
0000
0000
ENDCHAR

STARTCHAR Ca3d8
ENCODING 41944
SWIDTH 1000 0
DWIDTH 12 0
BBX 12 12 0 -2
BITMAP
0000
4040
2080
1100
0A00
0400
0A00
1100
2080
4040
0000
0000
ENDCHAR

STARTCHAR Ca3d9
ENCODING 41945
SWIDTH 1000 0
DWIDTH 12 0
BBX 12 12 0 -2
BITMAP
0000
4040
2080
1100
0A00
0400
0400
0400
0400
0400
0000
0000
ENDCHAR

STARTCHAR Ca3da
ENCODING 41946
SWIDTH 1000 0
DWIDTH 12 0
BBX 12 12 0 -2
BITMAP
0000
3F80
0100
0200
0400
0400
0800
1000
2000
7F80
0000
0000
ENDCHAR

STARTCHAR Ca3db
ENCODING 41947
SWIDTH 1000 0
DWIDTH 12 0
BBX 12 12 0 -2
BITMAP
0000
0000
0000
0000
0000
0000
0000
0000
0000
0000
0000
0000
ENDCHAR

STARTCHAR Ca3dc
ENCODING 41948
SWIDTH 1000 0
DWIDTH 12 0
BBX 12 12 0 -2
BITMAP
0000
0000
0000
0000
0000
0000
0000
0000
0000
0000
0000
0000
ENDCHAR

STARTCHAR Ca3dd
ENCODING 41949
SWIDTH 1000 0
DWIDTH 12 0
BBX 12 12 0 -2
BITMAP
0000
0000
0000
0000
0000
0000
0000
0000
0000
0000
0000
0000
ENDCHAR

STARTCHAR Ca3de
ENCODING 41950
SWIDTH 1000 0
DWIDTH 12 0
BBX 12 12 0 -2
BITMAP
0000
0000
0000
0000
0000
0000
0000
0000
0000
0000
0000
0000
ENDCHAR

STARTCHAR Ca3df
ENCODING 41951
SWIDTH 1000 0
DWIDTH 12 0
BBX 12 12 0 -2
BITMAP
0000
0000
0000
0000
0000
0000
0000
0000
0000
0000
0000
0000
ENDCHAR

STARTCHAR Ca3e0
ENCODING 41952
SWIDTH 1000 0
DWIDTH 12 0
BBX 12 12 0 -2
BITMAP
0000
0000
0000
0000
0000
0000
0000
0000
0000
0000
0000
0000
ENDCHAR

STARTCHAR Ca3e1
ENCODING 41953
SWIDTH 1000 0
DWIDTH 12 0
BBX 12 12 0 -2
BITMAP
0000
0000
0000
0000
0E00
1100
0F00
1100
1100
0E80
0000
0000
ENDCHAR

STARTCHAR Ca3e2
ENCODING 41954
SWIDTH 1000 0
DWIDTH 12 0
BBX 12 12 0 -2
BITMAP
0000
1000
1000
1000
1700
1880
1080
1080
1880
1700
0000
0000
ENDCHAR

STARTCHAR Ca3e3
ENCODING 41955
SWIDTH 1000 0
DWIDTH 12 0
BBX 12 12 0 -2
BITMAP
0000
0000
0000
0000
0F00
1080
1000
1000
1080
0F00
0000
0000
ENDCHAR

STARTCHAR Ca3e4
ENCODING 41956
SWIDTH 1000 0
DWIDTH 12 0
BBX 12 12 0 -2
BITMAP
0000
0080
0080
0080
0E80
1180
1080
1080
1180
0E80
0000
0000
ENDCHAR

STARTCHAR Ca3e5
ENCODING 41957
SWIDTH 1000 0
DWIDTH 12 0
BBX 12 12 0 -2
BITMAP
0000
0000
0000
0000
0F00
1080
1F80
1000
1080
0F00
0000
0000
ENDCHAR

STARTCHAR Ca3e6
ENCODING 41958
SWIDTH 1000 0
DWIDTH 12 0
BBX 12 12 0 -2
BITMAP
0000
0300
0480
0400
1F00
0400
0400
0400
0400
0400
0000
0000
ENDCHAR

STARTCHAR Ca3e7
ENCODING 41959
SWIDTH 1000 0
DWIDTH 12 0
BBX 12 12 0 -2
BITMAP
0000
0000
0000
0E80
1100
1100
0E00
1000
0F00
1080
1F00
0000
ENDCHAR

STARTCHAR Ca3e8
ENCODING 41960
SWIDTH 1000 0
DWIDTH 12 0
BBX 12 12 0 -2
BITMAP
0000
1000
1000
1000
1700
1880
1080
1080
1080
1080
0000
0000
ENDCHAR

STARTCHAR Ca3e9
ENCODING 41961
SWIDTH 1000 0
DWIDTH 12 0
BBX 12 12 0 -2
BITMAP
0000
0400
0400
0000
0400
0400
0400
0400
0400
0400
0000
0000
ENDCHAR

STARTCHAR Ca3ea
ENCODING 41962
SWIDTH 1000 0
DWIDTH 12 0
BBX 12 12 0 -2
BITMAP
0000
0100
0100
0000
0100
0100
0100
0100
1100
1100
0E00
0000
ENDCHAR

STARTCHAR Ca3eb
ENCODING 41963
SWIDTH 1000 0
DWIDTH 12 0
BBX 12 12 0 -2
BITMAP
0000
1000
1000
1000
1080
1100
1600
1A00
1100
1080
0000
0000
ENDCHAR

STARTCHAR Ca3ec
ENCODING 41964
SWIDTH 1000 0
DWIDTH 12 0
BBX 12 12 0 -2
BITMAP
0000
0400
0400
0400
0400
0400
0400
0400
0400
0400
0000
0000
ENDCHAR

STARTCHAR Ca3ed
ENCODING 41965
SWIDTH 1000 0
DWIDTH 12 0
BBX 12 12 0 -2
BITMAP
0000
0000
0000
0000
2B00
3480
2480
2480
2480
2480
0000
0000
ENDCHAR

STARTCHAR Ca3ee
ENCODING 41966
SWIDTH 1000 0
DWIDTH 12 0
BBX 12 12 0 -2
BITMAP
0000
0000
0000
0000
1700
1880
1080
1080
1080
1080
0000
0000
ENDCHAR

STARTCHAR Ca3ef
ENCODING 41967
SWIDTH 1000 0
DWIDTH 12 0
BBX 12 12 0 -2
BITMAP
0000
0000
0000
0000
0F00
1080
1080
1080
1080
0F00
0000
0000
ENDCHAR

STARTCHAR Ca3f0
ENCODING 41968
SWIDTH 1000 0
DWIDTH 12 0
BBX 12 12 0 -2
BITMAP
0000
0000
0000
0000
1700
1880
1080
1880
1700
1000
1000
0000
ENDCHAR

STARTCHAR Ca3f1
ENCODING 41969
SWIDTH 1000 0
DWIDTH 12 0
BBX 12 12 0 -2
BITMAP
0000
0000
0000
0000
0E80
1180
1080
1180
0E80
0080
0080
0000
ENDCHAR

STARTCHAR Ca3f2
ENCODING 41970
SWIDTH 1000 0
DWIDTH 12 0
BBX 12 12 0 -2
BITMAP
0000
0000
0000
0000
0B80
0C00
0800
0800
0800
0800
0000
0000
ENDCHAR

STARTCHAR Ca3f3
ENCODING 41971
SWIDTH 1000 0
DWIDTH 12 0
BBX 12 12 0 -2
BITMAP
0000
0000
0000
0000
0F00
1080
0C00
0300
1080
0F00
0000
0000
ENDCHAR

STARTCHAR Ca3f4
ENCODING 41972
SWIDTH 1000 0
DWIDTH 12 0
BBX 12 12 0 -2
BITMAP
0000
0400
0400
0400
1F00
0400
0400
0400
0440
0380
0000
0000
ENDCHAR

STARTCHAR Ca3f5
ENCODING 41973
SWIDTH 1000 0
DWIDTH 12 0
BBX 12 12 0 -2
BITMAP
0000
0000
0000
0000
1080
1080
1080
1080
1180
0E80
0000
0000
ENDCHAR

STARTCHAR Ca3f6
ENCODING 41974
SWIDTH 1000 0
DWIDTH 12 0
BBX 12 12 0 -2
BITMAP
0000
0000
0000
0000
2080
1100
1100
0A00
0A00
0400
0000
0000
ENDCHAR

STARTCHAR Ca3f7
ENCODING 41975
SWIDTH 1000 0
DWIDTH 12 0
BBX 12 12 0 -2
BITMAP
0000
0000
0000
0000
4440
4440
2A80
2A80
1100
1100
0000
0000
ENDCHAR

STARTCHAR Ca3f8
ENCODING 41976
SWIDTH 1000 0
DWIDTH 12 0
BBX 12 12 0 -2
BITMAP
0000
0000
0000
0000
1100
0A00
0400
0400
0A00
1100
0000
0000
ENDCHAR

STARTCHAR Ca3f9
ENCODING 41977
SWIDTH 1000 0
DWIDTH 12 0
BBX 12 12 0 -2
BITMAP
0000
0000
0000
0000
1080
0880
0900
0500
0200
0400
1800
0000
ENDCHAR

STARTCHAR Ca3fa
ENCODING 41978
SWIDTH 1000 0
DWIDTH 12 0
BBX 12 12 0 -2
BITMAP
0000
0000
0000
0000
1F80
0100
0200
0400
0800
1F80
0000
0000
ENDCHAR

STARTCHAR Ca4a1
ENCODING 42145
SWIDTH 1000 0
DWIDTH 12 0
BBX 12 12 0 -2
BITMAP
0000
0000
0000
0800
0F00
3800
0F80
1A40
2A40
2440
1980
0000
ENDCHAR

STARTCHAR Ca4a2
ENCODING 42146
SWIDTH 1000 0
DWIDTH 12 0
BBX 12 12 0 -2
BITMAP
0000
0800
0F00
7800
0800
0F80
1A40
2A20
4420
4840
3380
0000
ENDCHAR

STARTCHAR Ca4a3
ENCODING 42147
SWIDTH 1000 0
DWIDTH 12 0
BBX 12 12 0 -2
BITMAP
0000
0000
0000
0000
2200
2100
2080
1080
1400
0800
0000
0000
ENDCHAR

STARTCHAR Ca4a4
ENCODING 42148
SWIDTH 1000 0
DWIDTH 12 0
BBX 12 12 0 -2
BITMAP
0000
0000
4000
4100
4080
4080
4840
2840
3000
1000
0000
0000
ENDCHAR

STARTCHAR Ca4a5
ENCODING 42149
SWIDTH 1000 0
DWIDTH 12 0
BBX 12 12 0 -2
BITMAP
0000
0000
0800
0600
0000
0E00
3100
0100
0100
0200
0C00
0000
ENDCHAR

STARTCHAR Ca4a6
ENCODING 42150
SWIDTH 1000 0
DWIDTH 12 0
BBX 12 12 0 -2
BITMAP
0000
0C00
0300
0000
0F00
3080
0080
0080
0080
0100
0E00
0000
ENDCHAR

STARTCHAR Ca4a7
ENCODING 42151
SWIDTH 1000 0
DWIDTH 12 0
BBX 12 12 0 -2
BITMAP
0000
0000
0000
0800
0600
0000
0700
1A00
0400
0A00
1380
0000
ENDCHAR

STARTCHAR Ca4a8
ENCODING 42152
SWIDTH 1000 0
DWIDTH 12 0
BBX 12 12 0 -2
BITMAP
0000
1800
0600
0000
0700
3A00
0400
0800
1400
2400
43C0
0000
ENDCHAR

STARTCHAR Ca4a9
ENCODING 42153
SWIDTH 1000 0
DWIDTH 12 0
BBX 12 12 0 -2
BITMAP
0000
0000
0000
0800
0E80
3840
0840
0F00
1880
2880
1B00
0000
ENDCHAR

STARTCHAR Ca4aa
ENCODING 42154
SWIDTH 1000 0
DWIDTH 12 0
BBX 12 12 0 -2
BITMAP
0000
0800
0840
0F20
7820
0800
0F80
3840
4840
4840
3380
0000
ENDCHAR

STARTCHAR Ca4ab
ENCODING 42155
SWIDTH 1000 0
DWIDTH 12 0
BBX 12 12 0 -2
BITMAP
0000
1000
1000
1C80
7240
1240
2220
2220
2200
4A00
4400
0000
ENDCHAR

STARTCHAR Ca4ac
ENCODING 42156
SWIDTH 1000 0
DWIDTH 12 0
BBX 12 12 0 -2
BITMAP
0000
1040
10A0
1D40
7280
1280
2240
2240
2200
4A00
4400
0000
ENDCHAR

STARTCHAR Ca4ad
ENCODING 42157
SWIDTH 1000 0
DWIDTH 12 0
BBX 12 12 0 -2
BITMAP
0000
0400
0700
3C00
0380
3E00
0100
1F80
2080
2000
1F80
0000
ENDCHAR

STARTCHAR Ca4ae
ENCODING 42158
SWIDTH 1000 0
DWIDTH 12 0
BBX 12 12 0 -2
BITMAP
0000
0540
06A0
3C00
0380
3E00
0100
1F80
2080
2000
1F80
0000
ENDCHAR

STARTCHAR Ca4af
ENCODING 42159
SWIDTH 1000 0
DWIDTH 12 0
BBX 12 12 0 -2
BITMAP
0000
0100
0200
0400
0800
1000
0800
0400
0200
0100
0080
0000
ENDCHAR

STARTCHAR Ca4b0
ENCODING 42160
SWIDTH 1000 0
DWIDTH 12 0
BBX 12 12 0 -2
BITMAP
0000
0100
0240
0520
0880
1000
0800
0400
0200
0100
0080
0000
ENDCHAR

STARTCHAR Ca4b1
ENCODING 42161
SWIDTH 1000 0
DWIDTH 12 0
BBX 12 12 0 -2
BITMAP
0000
2100
2100
41C0
4F00
4100
4100
5100
6100
2200
0400
0000
ENDCHAR

STARTCHAR Ca4b2
ENCODING 42162
SWIDTH 1000 0
DWIDTH 12 0
BBX 12 12 0 -2
BITMAP
0000
2140
2120
41C0
4F00
4100
4100
5100
6100
2200
0400
0000
ENDCHAR

STARTCHAR Ca4b3
ENCODING 42163
SWIDTH 1000 0
DWIDTH 12 0
BBX 12 12 0 -2
BITMAP
0000
0000
0000
1F80
0100
0200
0000
0000
2000
2000
1FC0
0000
ENDCHAR

STARTCHAR Ca4b4
ENCODING 42164
SWIDTH 1000 0
DWIDTH 12 0
BBX 12 12 0 -2
BITMAP
0000
0140
00A0
1F80
0100
0200
0000
0000
2000
2000
1FC0
0000
ENDCHAR

STARTCHAR Ca4b5
ENCODING 42165
SWIDTH 1000 0
DWIDTH 12 0
BBX 12 12 0 -2
BITMAP
0000
0400
0400
0380
3E00
0200
0100
1F80
2080
2000
1F80
0000
ENDCHAR

STARTCHAR Ca4b6
ENCODING 42166
SWIDTH 1000 0
DWIDTH 12 0
BBX 12 12 0 -2
BITMAP
0000
0540
04A0
0380
3E00
0200
0100
1F80
2080
2000
1F80
0000
ENDCHAR

STARTCHAR Ca4b7
ENCODING 42167
SWIDTH 1000 0
DWIDTH 12 0
BBX 12 12 0 -2
BITMAP
0000
2000
2000
2000
2000
2000
2000
2080
2080
2100
1E00
0000
ENDCHAR

STARTCHAR Ca4b8
ENCODING 42168
SWIDTH 1000 0
DWIDTH 12 0
BBX 12 12 0 -2
BITMAP
0000
2080
2240
2100
2000
2000
2000
2080
2080
2100
1E00
0000
ENDCHAR

STARTCHAR Ca4b9
ENCODING 42169
SWIDTH 1000 0
DWIDTH 12 0
BBX 12 12 0 -2
BITMAP
0000
0200
7FC0
0200
0E00
1200
1300
0D00
0100
0200
0C00
0000
ENDCHAR

STARTCHAR Ca4ba
ENCODING 42170
SWIDTH 1000 0
DWIDTH 12 0
BBX 12 12 0 -2
BITMAP
0000
0240
7FA0
0200
0E00
1200
1300
0D00
0100
0200
0C00
0000
ENDCHAR

STARTCHAR Ca4bb
ENCODING 42171
SWIDTH 1000 0
DWIDTH 12 0
BBX 12 12 0 -2
BITMAP
0000
0100
1100
1100
17C0
7900
1100
1300
1000
0F80
0000
0000
ENDCHAR

STARTCHAR Ca4bc
ENCODING 42172
SWIDTH 1000 0
DWIDTH 12 0
BBX 12 12 0 -2
BITMAP
0000
0140
1120
1140
17A0
7900
1100
1300
1000
0F80
0000
0000
ENDCHAR

STARTCHAR Ca4bd
ENCODING 42173
SWIDTH 1000 0
DWIDTH 12 0
BBX 12 12 0 -2
BITMAP
0000
0000
3F00
0200
0400
0FC0
7400
0800
0800
0800
0700
0000
ENDCHAR

STARTCHAR Ca4be
ENCODING 42174
SWIDTH 1000 0
DWIDTH 12 0
BBX 12 12 0 -2
BITMAP
0000
0140
3EA0
0200
0400
0FC0
7400
0800
0800
0800
0700
0000
ENDCHAR

STARTCHAR Ca4bf
ENCODING 42175
SWIDTH 1000 0
DWIDTH 12 0
BBX 12 12 0 -2
BITMAP
0000
0800
0800
0F00
7800
0800
1380
1000
2000
2400
43C0
0000
ENDCHAR

STARTCHAR Ca4c0
ENCODING 42176
SWIDTH 1000 0
DWIDTH 12 0
BBX 12 12 0 -2
BITMAP
0000
0840
0920
0E80
7800
0800
1380
1000
2000
2400
43C0
0000
ENDCHAR

STARTCHAR Ca4c1
ENCODING 42177
SWIDTH 1000 0
DWIDTH 12 0
BBX 12 12 0 -2
BITMAP
0000
0800
0800
0F00
7800
1000
1780
1840
1040
0080
0700
0000
ENDCHAR

STARTCHAR Ca4c2
ENCODING 42178
SWIDTH 1000 0
DWIDTH 12 0
BBX 12 12 0 -2
BITMAP
0000
0940
08A0
0F00
7800
1000
1780
1840
1040
0080
0700
0000
ENDCHAR

STARTCHAR Ca4c3
ENCODING 42179
SWIDTH 1000 0
DWIDTH 12 0
BBX 12 12 0 -2
BITMAP
0000
0000
0000
0000
0000
0F00
3080
0080
0100
0E00
0000
0000
ENDCHAR

STARTCHAR Ca4c4
ENCODING 42180
SWIDTH 1000 0
DWIDTH 12 0
BBX 12 12 0 -2
BITMAP
0000
0000
0000
0F00
7080
0040
0040
0040
0180
0E00
0000
0000
ENDCHAR

STARTCHAR Ca4c5
ENCODING 42181
SWIDTH 1000 0
DWIDTH 12 0
BBX 12 12 0 -2
BITMAP
0000
0140
00A0
0F00
7080
0040
0040
0040
0180
0E00
0000
0000
ENDCHAR

STARTCHAR Ca4c6
ENCODING 42182
SWIDTH 1000 0
DWIDTH 12 0
BBX 12 12 0 -2
BITMAP
0000
0000
07C0
7A00
0400
0800
0800
0800
0800
0400
0380
0000
ENDCHAR

STARTCHAR Ca4c7
ENCODING 42183
SWIDTH 1000 0
DWIDTH 12 0
BBX 12 12 0 -2
BITMAP
0000
0000
07C0
7A00
0440
0920
0880
0800
0800
0400
0380
0000
ENDCHAR

STARTCHAR Ca4c8
ENCODING 42184
SWIDTH 1000 0
DWIDTH 12 0
BBX 12 12 0 -2
BITMAP
0000
0000
2000
1000
1080
1300
0C00
1000
2000
2000
1F80
0000
ENDCHAR

STARTCHAR Ca4c9
ENCODING 42185
SWIDTH 1000 0
DWIDTH 12 0
BBX 12 12 0 -2
BITMAP
0000
0000
2040
1120
1080
1300
0C00
1000
2000
2000
1F80
0000
ENDCHAR

STARTCHAR Ca4ca
ENCODING 42186
SWIDTH 1000 0
DWIDTH 12 0
BBX 12 12 0 -2
BITMAP
0000
0800
0B00
7C40
1020
1120
2100
2100
4780
0940
0720
0000
ENDCHAR

STARTCHAR Ca4cb
ENCODING 42187
SWIDTH 1000 0
DWIDTH 12 0
BBX 12 12 0 -2
BITMAP
0000
2000
2000
2780
4000
4000
4000
5000
5400
23C0
2000
0000
ENDCHAR

STARTCHAR Ca4cc
ENCODING 42188
SWIDTH 1000 0
DWIDTH 12 0
BBX 12 12 0 -2
BITMAP
0000
0400
2400
2F00
3480
2440
5440
5440
4940
4A80
3140
0000
ENDCHAR

STARTCHAR Ca4cd
ENCODING 42189
SWIDTH 1000 0
DWIDTH 12 0
BBX 12 12 0 -2
BITMAP
0000
1000
1000
1300
7480
1840
1040
3040
5340
1480
1340
0000
ENDCHAR

STARTCHAR Ca4ce
ENCODING 42190
SWIDTH 1000 0
DWIDTH 12 0
BBX 12 12 0 -2
BITMAP
0000
0000
0000
0F00
3480
2440
4440
4840
4840
5080
2700
0000
ENDCHAR

STARTCHAR Ca4cf
ENCODING 42191
SWIDTH 1000 0
DWIDTH 12 0
BBX 12 12 0 -2
BITMAP
0000
2100
2100
21C0
4F00
4100
4100
4100
4780
6940
2720
0000
ENDCHAR

STARTCHAR Ca4d0
ENCODING 42192
SWIDTH 1000 0
DWIDTH 12 0
BBX 12 12 0 -2
BITMAP
0000
2140
21A0
2100
4FC0
4100
4100
4100
4780
6940
2720
0000
ENDCHAR

STARTCHAR Ca4d1
ENCODING 42193
SWIDTH 1000 0
DWIDTH 12 0
BBX 12 12 0 -2
BITMAP
0000
2140
21A0
2140
4FC0
4100
4100
4100
4780
6940
2720
0000
ENDCHAR

STARTCHAR Ca4d2
ENCODING 42194
SWIDTH 1000 0
DWIDTH 12 0
BBX 12 12 0 -2
BITMAP
0000
0080
1880
6840
1040
10A0
2080
2080
2080
1100
0E00
0000
ENDCHAR

STARTCHAR Ca4d3
ENCODING 42195
SWIDTH 1000 0
DWIDTH 12 0
BBX 12 12 0 -2
BITMAP
0000
0140
1920
6880
1080
1040
20A0
2080
2080
1100
0E00
0000
ENDCHAR

STARTCHAR Ca4d4
ENCODING 42196
SWIDTH 1000 0
DWIDTH 12 0
BBX 12 12 0 -2
BITMAP
0000
0140
19A0
68C0
1080
1040
20A0
2080
2080
1100
0E00
0000
ENDCHAR

STARTCHAR Ca4d5
ENCODING 42197
SWIDTH 1000 0
DWIDTH 12 0
BBX 12 12 0 -2
BITMAP
0000
0C00
0300
0200
0400
0480
1240
1120
2120
4900
0600
0000
ENDCHAR

STARTCHAR Ca4d6
ENCODING 42198
SWIDTH 1000 0
DWIDTH 12 0
BBX 12 12 0 -2
BITMAP
0000
0D40
03A0
0200
0400
0480
1240
1120
2120
4900
0600
0000
ENDCHAR

STARTCHAR Ca4d7
ENCODING 42199
SWIDTH 1000 0
DWIDTH 12 0
BBX 12 12 0 -2
BITMAP
0000
0C40
03A0
0240
0400
0480
1240
1120
2120
4900
0600
0000
ENDCHAR

STARTCHAR Ca4d8
ENCODING 42200
SWIDTH 1000 0
DWIDTH 12 0
BBX 12 12 0 -2
BITMAP
0000
0000
0000
0400
0A00
1100
6080
0040
0020
0000
0000
0000
ENDCHAR

STARTCHAR Ca4d9
ENCODING 42201
SWIDTH 1000 0
DWIDTH 12 0
BBX 12 12 0 -2
BITMAP
0000
0040
0120
0480
0A00
1100
6080
0040
0020
0000
0000
0000
ENDCHAR

STARTCHAR Ca4da
ENCODING 42202
SWIDTH 1000 0
DWIDTH 12 0
BBX 12 12 0 -2
BITMAP
0000
0000
0040
04A0
0A40
1100
6080
0040
0020
0000
0000
0000
ENDCHAR

STARTCHAR Ca4db
ENCODING 42203
SWIDTH 1000 0
DWIDTH 12 0
BBX 12 12 0 -2
BITMAP
0000
2000
2FC0
2100
4100
4FC0
4100
4100
4780
6940
2720
0000
ENDCHAR

STARTCHAR Ca4dc
ENCODING 42204
SWIDTH 1000 0
DWIDTH 12 0
BBX 12 12 0 -2
BITMAP
0000
2140
2FA0
2100
4100
4FC0
4100
4100
4780
6940
2720
0000
ENDCHAR

STARTCHAR Ca4dd
ENCODING 42205
SWIDTH 1000 0
DWIDTH 12 0
BBX 12 12 0 -2
BITMAP
0000
2040
2FA0
2140
4100
4FC0
4100
4100
4780
6940
2720
0000
ENDCHAR

STARTCHAR Ca4de
ENCODING 42206
SWIDTH 1000 0
DWIDTH 12 0
BBX 12 12 0 -2
BITMAP
0000
0200
0200
3FC0
0200
1F80
0200
0200
1F00
2280
1E40
0000
ENDCHAR

STARTCHAR Ca4df
ENCODING 42207
SWIDTH 1000 0
DWIDTH 12 0
BBX 12 12 0 -2
BITMAP
0000
0000
1C00
0400
0480
0480
1E80
2980
48C0
5120
2600
0000
ENDCHAR

STARTCHAR Ca4e0
ENCODING 42208
SWIDTH 1000 0
DWIDTH 12 0
BBX 12 12 0 -2
BITMAP
0000
1000
1D00
7080
1040
3040
5000
5080
3080
2080
1F00
0000
ENDCHAR

STARTCHAR Ca4e1
ENCODING 42209
SWIDTH 1000 0
DWIDTH 12 0
BBX 12 12 0 -2
BITMAP
0000
0200
2200
2F00
1280
2240
5440
5440
4840
4880
3300
0000
ENDCHAR

STARTCHAR Ca4e2
ENCODING 42210
SWIDTH 1000 0
DWIDTH 12 0
BBX 12 12 0 -2
BITMAP
0000
0400
0400
7F00
0800
0800
3F00
0840
0840
0840
0780
0000
ENDCHAR

STARTCHAR Ca4e3
ENCODING 42211
SWIDTH 1000 0
DWIDTH 12 0
BBX 12 12 0 -2
BITMAP
0000
0000
0000
0200
1100
0B80
0C40
3440
0580
0200
0200
0000
ENDCHAR

STARTCHAR Ca4e4
ENCODING 42212
SWIDTH 1000 0
DWIDTH 12 0
BBX 12 12 0 -2
BITMAP
0000
0400
2200
13C0
1C20
6820
09C0
0400
0400
0200
0200
0000
ENDCHAR

STARTCHAR Ca4e5
ENCODING 42213
SWIDTH 1000 0
DWIDTH 12 0
BBX 12 12 0 -2
BITMAP
0000
0000
0000
0200
2200
2700
2A80
3280
2700
0200
0400
0000
ENDCHAR

STARTCHAR Ca4e6
ENCODING 42214
SWIDTH 1000 0
DWIDTH 12 0
BBX 12 12 0 -2
BITMAP
0000
0100
2100
2380
4540
4920
5120
5540
2380
2100
0600
0000
ENDCHAR

STARTCHAR Ca4e7
ENCODING 42215
SWIDTH 1000 0
DWIDTH 12 0
BBX 12 12 0 -2
BITMAP
0000
0000
0000
0200
0200
0380
0200
0200
0E00
1300
0C80
0000
ENDCHAR

STARTCHAR Ca4e8
ENCODING 42216
SWIDTH 1000 0
DWIDTH 12 0
BBX 12 12 0 -2
BITMAP
0000
0200
0200
0200
03C0
0200
0200
0200
1E00
2380
1E40
0000
ENDCHAR

STARTCHAR Ca4e9
ENCODING 42217
SWIDTH 1000 0
DWIDTH 12 0
BBX 12 12 0 -2
BITMAP
0000
0C00
0200
0800
0800
1000
1780
1840
1040
0040
0780
0000
ENDCHAR

STARTCHAR Ca4ea
ENCODING 42218
SWIDTH 1000 0
DWIDTH 12 0
BBX 12 12 0 -2
BITMAP
0000
0100
1080
1080
1080
1480
1480
0880
0080
0100
0600
0000
ENDCHAR

STARTCHAR Ca4eb
ENCODING 42219
SWIDTH 1000 0
DWIDTH 12 0
BBX 12 12 0 -2
BITMAP
0000
0700
3900
0200
0400
0F00
1080
2040
4C40
1280
0F00
0000
ENDCHAR

STARTCHAR Ca4ec
ENCODING 42220
SWIDTH 1000 0
DWIDTH 12 0
BBX 12 12 0 -2
BITMAP
0000
1000
1000
1300
7480
1880
1080
3080
50A0
10A0
1040
0000
ENDCHAR

STARTCHAR Ca4ed
ENCODING 42221
SWIDTH 1000 0
DWIDTH 12 0
BBX 12 12 0 -2
BITMAP
0000
0700
3900
0200
0400
0F00
1080
2040
4040
0080
0F00
0000
ENDCHAR

STARTCHAR Ca4ee
ENCODING 42222
SWIDTH 1000 0
DWIDTH 12 0
BBX 12 12 0 -2
BITMAP
0000
0000
0000
0800
0800
3B80
0C40
0840
1840
2980
0800
0000
ENDCHAR

STARTCHAR Ca4ef
ENCODING 42223
SWIDTH 1000 0
DWIDTH 12 0
BBX 12 12 0 -2
BITMAP
0000
1000
1000
1000
7700
1880
1040
3040
5040
5080
1300
0000
ENDCHAR

STARTCHAR Ca4f0
ENCODING 42224
SWIDTH 1000 0
DWIDTH 12 0
BBX 12 12 0 -2
BITMAP
0000
0E00
0200
0200
0F00
3480
2440
4840
49C0
5240
2180
0000
ENDCHAR

STARTCHAR Ca4f1
ENCODING 42225
SWIDTH 1000 0
DWIDTH 12 0
BBX 12 12 0 -2
BITMAP
0000
1E00
0400
0F00
1480
2A80
0700
0800
1580
2240
4220
0000
ENDCHAR

STARTCHAR Ca4f2
ENCODING 42226
SWIDTH 1000 0
DWIDTH 12 0
BBX 12 12 0 -2
BITMAP
0000
0400
0780
3C00
0800
0CC0
1300
2500
0900
0800
07C0
0000
ENDCHAR

STARTCHAR Ca4f3
ENCODING 42227
SWIDTH 1000 0
DWIDTH 12 0
BBX 12 12 0 -2
BITMAP
0000
0400
0400
0400
0800
0800
1C00
1220
2220
2240
4180
0000
ENDCHAR

STARTCHAR Ca5a1
ENCODING 42401
SWIDTH 1000 0
DWIDTH 12 0
BBX 12 12 0 -2
BITMAP
0000
0000
0000
0000
3F80
0080
0500
0600
0400
0400
0800
0000
ENDCHAR

STARTCHAR Ca5a2
ENCODING 42402
SWIDTH 1000 0
DWIDTH 12 0
BBX 12 12 0 -2
BITMAP
0000
0000
7FC0
0040
0080
0500
0600
0400
0400
0800
1000
0000
ENDCHAR

STARTCHAR Ca5a3
ENCODING 42403
SWIDTH 1000 0
DWIDTH 12 0
BBX 12 12 0 -2
BITMAP
0000
0000
0000
0080
0100
0200
0600
1A00
0200
0200
0200
0000
ENDCHAR

STARTCHAR Ca5a4
ENCODING 42404
SWIDTH 1000 0
DWIDTH 12 0
BBX 12 12 0 -2
BITMAP
0000
0040
0040
0080
0100
0300
0D00
3100
0100
0100
0100
0000
ENDCHAR

STARTCHAR Ca5a5
ENCODING 42405
SWIDTH 1000 0
DWIDTH 12 0
BBX 12 12 0 -2
BITMAP
0000
0000
0000
0400
0400
3F80
2080
2080
0080
0100
0600
0000
ENDCHAR

STARTCHAR Ca5a6
ENCODING 42406
SWIDTH 1000 0
DWIDTH 12 0
BBX 12 12 0 -2
BITMAP
0000
0400
0400
3FC0
2040
2040
2040
0080
0080
0100
0600
0000
ENDCHAR

STARTCHAR Ca5a7
ENCODING 42407
SWIDTH 1000 0
DWIDTH 12 0
BBX 12 12 0 -2
BITMAP
0000
0000
0000
0000
0000
1F80
0400
0400
0400
3FC0
0000
0000
ENDCHAR

STARTCHAR Ca5a8
ENCODING 42408
SWIDTH 1000 0
DWIDTH 12 0
BBX 12 12 0 -2
BITMAP
0000
0000
0000
3F80
0400
0400
0400
0400
0400
7FC0
0000
0000
ENDCHAR

STARTCHAR Ca5a9
ENCODING 42409
SWIDTH 1000 0
DWIDTH 12 0
BBX 12 12 0 -2
BITMAP
0000
0000
0000
0100
0100
3F80
0500
0500
0900
1100
2300
0000
ENDCHAR

STARTCHAR Ca5aa
ENCODING 42410
SWIDTH 1000 0
DWIDTH 12 0
BBX 12 12 0 -2
BITMAP
0000
0100
0100
0100
7FC0
0500
0500
0900
1100
2100
4700
0000
ENDCHAR

STARTCHAR Ca5ab
ENCODING 42411
SWIDTH 1000 0
DWIDTH 12 0
BBX 12 12 0 -2
BITMAP
0000
0400
0400
0400
3FC0
0440
0440
0840
0880
1280
2100
0000
ENDCHAR

STARTCHAR Ca5ac
ENCODING 42412
SWIDTH 1000 0
DWIDTH 12 0
BBX 12 12 0 -2
BITMAP
0000
0440
0520
0480
3FC0
0440
0440
0840
0880
1280
2100
0000
ENDCHAR

STARTCHAR Ca5ad
ENCODING 42413
SWIDTH 1000 0
DWIDTH 12 0
BBX 12 12 0 -2
BITMAP
0000
0400
0400
0780
3C00
0200
03C0
3E00
0100
0100
0100
0000
ENDCHAR

STARTCHAR Ca5ae
ENCODING 42414
SWIDTH 1000 0
DWIDTH 12 0
BBX 12 12 0 -2
BITMAP
0000
0540
04A0
0780
3C00
0200
03C0
3E00
0100
0100
0100
0000
ENDCHAR

STARTCHAR Ca5af
ENCODING 42415
SWIDTH 1000 0
DWIDTH 12 0
BBX 12 12 0 -2
BITMAP
0000
0400
0400
0FC0
0840
1040
2080
0080
0100
0600
1800
0000
ENDCHAR

STARTCHAR Ca5b0
ENCODING 42416
SWIDTH 1000 0
DWIDTH 12 0
BBX 12 12 0 -2
BITMAP
0000
0540
04A0
0FC0
0840
1040
2080
0080
0100
0600
1800
0000
ENDCHAR

STARTCHAR Ca5b1
ENCODING 42417
SWIDTH 1000 0
DWIDTH 12 0
BBX 12 12 0 -2
BITMAP
0000
0800
0800
1000
1FC0
2200
4200
0200
0200
0400
1800
0000
ENDCHAR

STARTCHAR Ca5b2
ENCODING 42418
SWIDTH 1000 0
DWIDTH 12 0
BBX 12 12 0 -2
BITMAP
0000
0940
08A0
1000
1FC0
2200
4200
0200
0200
0400
1800
0000
ENDCHAR

STARTCHAR Ca5b3
ENCODING 42419
SWIDTH 1000 0
DWIDTH 12 0
BBX 12 12 0 -2
BITMAP
0000
0000
0000
3FC0
0040
0040
0040
0040
0040
3FC0
0000
0000
ENDCHAR

STARTCHAR Ca5b4
ENCODING 42420
SWIDTH 1000 0
DWIDTH 12 0
BBX 12 12 0 -2
BITMAP
0000
0140
00A0
7F80
0080
0080
0080
0080
0080
7F80
0000
0000
ENDCHAR

STARTCHAR Ca5b5
ENCODING 42421
SWIDTH 1000 0
DWIDTH 12 0
BBX 12 12 0 -2
BITMAP
0000
0100
1100
1100
7FC0
1100
1100
1100
0100
0200
0C00
0000
ENDCHAR

STARTCHAR Ca5b6
ENCODING 42422
SWIDTH 1000 0
DWIDTH 12 0
BBX 12 12 0 -2
BITMAP
0000
0140
11A0
1100
7FC0
1100
1100
1100
0100
0200
0C00
0000
ENDCHAR

STARTCHAR Ca5b7
ENCODING 42423
SWIDTH 1000 0
DWIDTH 12 0
BBX 12 12 0 -2
BITMAP
0000
0000
3000
0840
0040
6080
1080
0100
0200
0C00
3000
0000
ENDCHAR

STARTCHAR Ca5b8
ENCODING 42424
SWIDTH 1000 0
DWIDTH 12 0
BBX 12 12 0 -2
BITMAP
0000
0140
30A0
0840
0040
6080
1080
0100
0200
0C00
3000
0000
ENDCHAR

STARTCHAR Ca5b9
ENCODING 42425
SWIDTH 1000 0
DWIDTH 12 0
BBX 12 12 0 -2
BITMAP
0000
0000
0000
3F00
0100
0200
0200
0400
0B00
1080
6040
0000
ENDCHAR

STARTCHAR Ca5ba
ENCODING 42426
SWIDTH 1000 0
DWIDTH 12 0
BBX 12 12 0 -2
BITMAP
0000
0140
00A0
3F00
0100
0200
0200
0400
0B00
1080
6040
0000
ENDCHAR

STARTCHAR Ca5bb
ENCODING 42427
SWIDTH 1000 0
DWIDTH 12 0
BBX 12 12 0 -2
BITMAP
0000
1000
1000
1000
17C0
7840
1080
1100
1000
1000
0FC0
0000
ENDCHAR

STARTCHAR Ca5bc
ENCODING 42428
SWIDTH 1000 0
DWIDTH 12 0
BBX 12 12 0 -2
BITMAP
0000
1040
1120
1080
17C0
7840
1080
1100
1000
1000
0FC0
0000
ENDCHAR

STARTCHAR Ca5bd
ENCODING 42429
SWIDTH 1000 0
DWIDTH 12 0
BBX 12 12 0 -2
BITMAP
0000
0000
4040
2040
1040
1080
0080
0100
0200
0C00
3000
0000
ENDCHAR

STARTCHAR Ca5be
ENCODING 42430
SWIDTH 1000 0
DWIDTH 12 0
BBX 12 12 0 -2
BITMAP
0000
0140
40A0
2040
1040
1080
0080
0100
0200
0C00
3000
0000
ENDCHAR

STARTCHAR Ca5bf
ENCODING 42431
SWIDTH 1000 0
DWIDTH 12 0
BBX 12 12 0 -2
BITMAP
0000
0400
0400
0FC0
0840
1440
2280
0180
0100
0600
1800
0000
ENDCHAR

STARTCHAR Ca5c0
ENCODING 42432
SWIDTH 1000 0
DWIDTH 12 0
BBX 12 12 0 -2
BITMAP
0000
0540
04A0
0FC0
0840
1440
2280
0180
0100
0600
1800
0000
ENDCHAR

STARTCHAR Ca5c1
ENCODING 42433
SWIDTH 1000 0
DWIDTH 12 0
BBX 12 12 0 -2
BITMAP
0000
0300
3C00
0400
0400
7FC0
0400
0400
0400
0800
3000
0000
ENDCHAR

STARTCHAR Ca5c2
ENCODING 42434
SWIDTH 1000 0
DWIDTH 12 0
BBX 12 12 0 -2
BITMAP
0000
0340
3CA0
0400
0400
7FC0
0400
0400
0400
0800
3000
0000
ENDCHAR

STARTCHAR Ca5c3
ENCODING 42435
SWIDTH 1000 0
DWIDTH 12 0
BBX 12 12 0 -2
BITMAP
0000
0000
0000
0000
0840
2440
1480
1080
0100
0600
1800
0000
ENDCHAR

STARTCHAR Ca5c4
ENCODING 42436
SWIDTH 1000 0
DWIDTH 12 0
BBX 12 12 0 -2
BITMAP
0000
0000
0840
4440
2440
2080
0080
0100
0200
0C00
3000
0000
ENDCHAR

STARTCHAR Ca5c5
ENCODING 42437
SWIDTH 1000 0
DWIDTH 12 0
BBX 12 12 0 -2
BITMAP
0000
0140
08A0
4440
2440
2080
0080
0100
0200
0C00
3000
0000
ENDCHAR

STARTCHAR Ca5c6
ENCODING 42438
SWIDTH 1000 0
DWIDTH 12 0
BBX 12 12 0 -2
BITMAP
0000
0000
1F00
0000
0000
7FC0
0400
0400
0400
0800
3000
0000
ENDCHAR

STARTCHAR Ca5c7
ENCODING 42439
SWIDTH 1000 0
DWIDTH 12 0
BBX 12 12 0 -2
BITMAP
0000
0140
1FA0
0000
0000
7FC0
0400
0400
0400
0800
3000
0000
ENDCHAR

STARTCHAR Ca5c8
ENCODING 42440
SWIDTH 1000 0
DWIDTH 12 0
BBX 12 12 0 -2
BITMAP
0000
0800
0800
0800
0800
0C00
0B00
0880
0800
0800
0800
0000
ENDCHAR

STARTCHAR Ca5c9
ENCODING 42441
SWIDTH 1000 0
DWIDTH 12 0
BBX 12 12 0 -2
BITMAP
0000
0880
0A40
0900
0800
0C00
0B00
0880
0800
0800
0800
0000
ENDCHAR

STARTCHAR Ca5ca
ENCODING 42442
SWIDTH 1000 0
DWIDTH 12 0
BBX 12 12 0 -2
BITMAP
0000
0400
0400
0400
7FC0
0400
0400
0400
0400
0800
3000
0000
ENDCHAR

STARTCHAR Ca5cb
ENCODING 42443
SWIDTH 1000 0
DWIDTH 12 0
BBX 12 12 0 -2
BITMAP
0000
0000
0000
1F80
0000
0000
0000
0000
0000
7FE0
0000
0000
ENDCHAR

STARTCHAR Ca5cc
ENCODING 42444
SWIDTH 1000 0
DWIDTH 12 0
BBX 12 12 0 -2
BITMAP
0000
0000
3FC0
0040
0080
1880
0500
0300
0480
1840
6000
0000
ENDCHAR

STARTCHAR Ca5cd
ENCODING 42445
SWIDTH 1000 0
DWIDTH 12 0
BBX 12 12 0 -2
BITMAP
0000
0800
0400
3F00
0200
0400
0D00
1480
6440
0400
0400
0000
ENDCHAR

STARTCHAR Ca5ce
ENCODING 42446
SWIDTH 1000 0
DWIDTH 12 0
BBX 12 12 0 -2
BITMAP
0000
0000
0080
0080
0080
0100
0100
0200
0400
0800
3000
0000
ENDCHAR

STARTCHAR Ca5cf
ENCODING 42447
SWIDTH 1000 0
DWIDTH 12 0
BBX 12 12 0 -2
BITMAP
0000
0000
0000
0100
0880
0840
1040
1020
2020
4020
0000
0000
ENDCHAR

STARTCHAR Ca5d0
ENCODING 42448
SWIDTH 1000 0
DWIDTH 12 0
BBX 12 12 0 -2
BITMAP
0000
0140
00A0
0100
0880
0840
1040
1020
2020
4020
0000
0000
ENDCHAR

STARTCHAR Ca5d1
ENCODING 42449
SWIDTH 1000 0
DWIDTH 12 0
BBX 12 12 0 -2
BITMAP
0000
0040
00A0
0140
0880
0840
1040
1020
2020
4020
0000
0000
ENDCHAR

STARTCHAR Ca5d2
ENCODING 42450
SWIDTH 1000 0
DWIDTH 12 0
BBX 12 12 0 -2
BITMAP
0000
0000
2000
2000
2180
3E00
2000
2000
2000
2000
1FC0
0000
ENDCHAR

STARTCHAR Ca5d3
ENCODING 42451
SWIDTH 1000 0
DWIDTH 12 0
BBX 12 12 0 -2
BITMAP
0000
0140
20A0
2000
2180
3E00
2000
2000
2000
2000
1FC0
0000
ENDCHAR

STARTCHAR Ca5d4
ENCODING 42452
SWIDTH 1000 0
DWIDTH 12 0
BBX 12 12 0 -2
BITMAP
0000
0040
20A0
2040
2180
3E00
2000
2000
2000
2000
1FC0
0000
ENDCHAR

STARTCHAR Ca5d5
ENCODING 42453
SWIDTH 1000 0
DWIDTH 12 0
BBX 12 12 0 -2
BITMAP
0000
0000
0000
3FC0
0040
0040
0080
0080
0100
0600
1800
0000
ENDCHAR

STARTCHAR Ca5d6
ENCODING 42454
SWIDTH 1000 0
DWIDTH 12 0
BBX 12 12 0 -2
BITMAP
0000
0140
00A0
3FC0
0040
0040
0080
0080
0100
0600
1800
0000
ENDCHAR

STARTCHAR Ca5d7
ENCODING 42455
SWIDTH 1000 0
DWIDTH 12 0
BBX 12 12 0 -2
BITMAP
0000
0040
00A0
3FC0
0040
0040
0080
0080
0100
0600
1800
0000
ENDCHAR

STARTCHAR Ca5d8
ENCODING 42456
SWIDTH 1000 0
DWIDTH 12 0
BBX 12 12 0 -2
BITMAP
0000
0000
0000
0400
0A00
1100
2080
4040
0020
0000
0000
0000
ENDCHAR

STARTCHAR Ca5d9
ENCODING 42457
SWIDTH 1000 0
DWIDTH 12 0
BBX 12 12 0 -2
BITMAP
0000
0040
0120
0480
0A00
1100
2080
4040
0020
0000
0000
0000
ENDCHAR

STARTCHAR Ca5da
ENCODING 42458
SWIDTH 1000 0
DWIDTH 12 0
BBX 12 12 0 -2
BITMAP
0000
0040
00A0
0440
0A00
1100
2080
4040
0020
0000
0000
0000
ENDCHAR

STARTCHAR Ca5db
ENCODING 42459
SWIDTH 1000 0
DWIDTH 12 0
BBX 12 12 0 -2
BITMAP
0000
0400
0400
7FC0
0400
0400
2500
2480
4440
4440
1C00
0000
ENDCHAR

STARTCHAR Ca5dc
ENCODING 42460
SWIDTH 1000 0
DWIDTH 12 0
BBX 12 12 0 -2
BITMAP
0000
0540
04A0
7FC0
0400
0400
2500
2480
4440
4440
1C00
0000
ENDCHAR

STARTCHAR Ca5dd
ENCODING 42461
SWIDTH 1000 0
DWIDTH 12 0
BBX 12 12 0 -2
BITMAP
0000
0440
04A0
7FC0
0400
0400
2500
2480
4440
4440
1C00
0000
ENDCHAR

STARTCHAR Ca5de
ENCODING 42462
SWIDTH 1000 0
DWIDTH 12 0
BBX 12 12 0 -2
BITMAP
0000
0000
0000
7FC0
0040
0080
0100
1A00
0400
0200
0100
0000
ENDCHAR

STARTCHAR Ca5df
ENCODING 42463
SWIDTH 1000 0
DWIDTH 12 0
BBX 12 12 0 -2
BITMAP
0000
0000
1800
0600
0100
1800
0600
0100
3800
0600
0180
0000
ENDCHAR

STARTCHAR Ca5e0
ENCODING 42464
SWIDTH 1000 0
DWIDTH 12 0
BBX 12 12 0 -2
BITMAP
0000
0400
0400
0400
0800
0900
0880
1040
13C0
7C20
0020
0000
ENDCHAR

STARTCHAR Ca5e1
ENCODING 42465
SWIDTH 1000 0
DWIDTH 12 0
BBX 12 12 0 -2
BITMAP
0000
0000
0080
0080
0080
1900
0500
0200
0500
1880
6000
0000
ENDCHAR

STARTCHAR Ca5e2
ENCODING 42466
SWIDTH 1000 0
DWIDTH 12 0
BBX 12 12 0 -2
BITMAP
0000
0000
0000
3F80
0400
0400
7FC0
0400
0400
0400
03C0
0000
ENDCHAR

STARTCHAR Ca5e3
ENCODING 42467
SWIDTH 1000 0
DWIDTH 12 0
BBX 12 12 0 -2
BITMAP
0000
0000
0000
0800
0800
07C0
3C40
0480
0200
0200
0200
0000
ENDCHAR

STARTCHAR Ca5e4
ENCODING 42468
SWIDTH 1000 0
DWIDTH 12 0
BBX 12 12 0 -2
BITMAP
0000
0800
0800
0BC0
7C40
0480
0500
0400
0200
0200
0200
0000
ENDCHAR

STARTCHAR Ca5e5
ENCODING 42469
SWIDTH 1000 0
DWIDTH 12 0
BBX 12 12 0 -2
BITMAP
0000
0000
0000
0000
0000
1F00
0100
0100
0100
3FC0
0000
0000
ENDCHAR

STARTCHAR Ca5e6
ENCODING 42470
SWIDTH 1000 0
DWIDTH 12 0
BBX 12 12 0 -2
BITMAP
0000
0000
0000
3F00
0100
0100
0100
0100
0100
7FE0
0000
0000
ENDCHAR

STARTCHAR Ca5e7
ENCODING 42471
SWIDTH 1000 0
DWIDTH 12 0
BBX 12 12 0 -2
BITMAP
0000
0000
0000
0000
0000
1F80
0080
0F80
0080
1F80
0000
0000
ENDCHAR

STARTCHAR Ca5e8
ENCODING 42472
SWIDTH 1000 0
DWIDTH 12 0
BBX 12 12 0 -2
BITMAP
0000
0000
0000
3F80
0080
0080
1F80
0080
0080
3F80
0000
0000
ENDCHAR

STARTCHAR Ca5e9
ENCODING 42473
SWIDTH 1000 0
DWIDTH 12 0
BBX 12 12 0 -2
BITMAP
0000
0000
1F80
0000
0000
3FC0
0040
0080
0080
0300
1C00
0000
ENDCHAR

STARTCHAR Ca5ea
ENCODING 42474
SWIDTH 1000 0
DWIDTH 12 0
BBX 12 12 0 -2
BITMAP
0000
0080
1080
1080
1080
1080
1080
0100
0100
0200
0C00
0000
ENDCHAR

STARTCHAR Ca5eb
ENCODING 42475
SWIDTH 1000 0
DWIDTH 12 0
BBX 12 12 0 -2
BITMAP
0000
0200
1200
1200
1200
1200
1220
1220
2240
2280
4300
0000
ENDCHAR

STARTCHAR Ca5ec
ENCODING 42476
SWIDTH 1000 0
DWIDTH 12 0
BBX 12 12 0 -2
BITMAP
0000
1000
1000
1000
1000
1040
1040
1080
1100
1600
1800
0000
ENDCHAR

STARTCHAR Ca5ed
ENCODING 42477
SWIDTH 1000 0
DWIDTH 12 0
BBX 12 12 0 -2
BITMAP
0000
0000
0000
3FC0
2040
2040
2040
2040
2040
3FC0
0000
0000
ENDCHAR

STARTCHAR Ca5ee
ENCODING 42478
SWIDTH 1000 0
DWIDTH 12 0
BBX 12 12 0 -2
BITMAP
0000
0000
0000
0000
3F80
2080
2080
0100
0100
0200
0C00
0000
ENDCHAR

STARTCHAR Ca5ef
ENCODING 42479
SWIDTH 1000 0
DWIDTH 12 0
BBX 12 12 0 -2
BITMAP
0000
0000
3FC0
2040
2040
2040
0080
0080
0100
0200
0C00
0000
ENDCHAR

STARTCHAR Ca5f0
ENCODING 42480
SWIDTH 1000 0
DWIDTH 12 0
BBX 12 12 0 -2
BITMAP
0000
0200
0200
3F80
1200
1200
1200
7FC0
0200
0200
0200
0000
ENDCHAR

STARTCHAR Ca5f1
ENCODING 42481
SWIDTH 1000 0
DWIDTH 12 0
BBX 12 12 0 -2
BITMAP
0000
0000
0000
3FC0
0080
0100
0600
0400
0400
7FE0
0000
0000
ENDCHAR

STARTCHAR Ca5f2
ENCODING 42482
SWIDTH 1000 0
DWIDTH 12 0
BBX 12 12 0 -2
BITMAP
0000
0000
3FC0
0040
0040
1FC0
0080
0080
0100
0200
0C00
0000
ENDCHAR

STARTCHAR Ca5f3
ENCODING 42483
SWIDTH 1000 0
DWIDTH 12 0
BBX 12 12 0 -2
BITMAP
0000
0000
4000
3040
0840
0080
0080
0100
0200
0C00
7000
0000
ENDCHAR

STARTCHAR Ca5f4
ENCODING 42484
SWIDTH 1000 0
DWIDTH 12 0
BBX 12 12 0 -2
BITMAP
0000
0540
04A0
3FC0
2040
2040
2040
0080
0080
0100
0600
0000
ENDCHAR

STARTCHAR Ca5f5
ENCODING 42485
SWIDTH 1000 0
DWIDTH 12 0
BBX 12 12 0 -2
BITMAP
0000
0000
0000
0400
0400
1F80
0480
0480
0880
0A80
1100
0000
ENDCHAR

STARTCHAR Ca5f6
ENCODING 42486
SWIDTH 1000 0
DWIDTH 12 0
BBX 12 12 0 -2
BITMAP
0000
0000
0000
0800
0800
0FC0
1100
2100
0100
0200
0C00
0000
ENDCHAR

STARTCHAR Ca6a1
ENCODING 42657
SWIDTH 1000 0
DWIDTH 12 0
BBX 12 12 0 -2
BITMAP
0000
0400
0A00
0A00
1100
1100
2080
3F80
4040
4040
0000
0000
ENDCHAR

STARTCHAR Ca6a2
ENCODING 42658
SWIDTH 1000 0
DWIDTH 12 0
BBX 12 12 0 -2
BITMAP
0000
3F00
2080
2080
2080
3F00
2080
2040
2040
3F80
0000
0000
ENDCHAR

STARTCHAR Ca6a3
ENCODING 42659
SWIDTH 1000 0
DWIDTH 12 0
BBX 12 12 0 -2
BITMAP
0000
1FC0
1000
1000
1000
1000
1000
1000
1000
1000
0000
0000
ENDCHAR

STARTCHAR Ca6a4
ENCODING 42660
SWIDTH 1000 0
DWIDTH 12 0
BBX 12 12 0 -2
BITMAP
0000
0400
0A00
0A00
1100
1100
2080
2080
4040
7FC0
0000
0000
ENDCHAR

STARTCHAR Ca6a5
ENCODING 42661
SWIDTH 1000 0
DWIDTH 12 0
BBX 12 12 0 -2
BITMAP
0000
1FC0
1000
1000
1000
1F80
1000
1000
1000
1FC0
0000
0000
ENDCHAR

STARTCHAR Ca6a6
ENCODING 42662
SWIDTH 1000 0
DWIDTH 12 0
BBX 12 12 0 -2
BITMAP
0000
1FC0
0080
0100
0200
0200
0400
0800
1000
3FC0
0000
0000
ENDCHAR

STARTCHAR Ca6a7
ENCODING 42663
SWIDTH 1000 0
DWIDTH 12 0
BBX 12 12 0 -2
BITMAP
0000
2080
2080
2080
2080
3F80
2080
2080
2080
2080
0000
0000
ENDCHAR

STARTCHAR Ca6a8
ENCODING 42664
SWIDTH 1000 0
DWIDTH 12 0
BBX 12 12 0 -2
BITMAP
0000
0F00
1080
2040
2040
2F40
2040
2040
1080
0F00
0000
0000
ENDCHAR

STARTCHAR Ca6a9
ENCODING 42665
SWIDTH 1000 0
DWIDTH 12 0
BBX 12 12 0 -2
BITMAP
0000
0400
0400
0400
0400
0400
0400
0400
0400
0400
0000
0000
ENDCHAR

STARTCHAR Ca6aa
ENCODING 42666
SWIDTH 1000 0
DWIDTH 12 0
BBX 12 12 0 -2
BITMAP
0000
2080
2100
2200
2400
2C00
3200
2100
2080
2040
0000
0000
ENDCHAR

STARTCHAR Ca6ab
ENCODING 42667
SWIDTH 1000 0
DWIDTH 12 0
BBX 12 12 0 -2
BITMAP
0000
0400
0A00
0A00
1100
1100
2080
2080
4040
4040
0000
0000
ENDCHAR

STARTCHAR Ca6ac
ENCODING 42668
SWIDTH 1000 0
DWIDTH 12 0
BBX 12 12 0 -2
BITMAP
0000
60C0
5140
5140
4A40
4A40
4A40
4440
4440
4040
0000
0000
ENDCHAR

STARTCHAR Ca6ad
ENCODING 42669
SWIDTH 1000 0
DWIDTH 12 0
BBX 12 12 0 -2
BITMAP
0000
3040
2840
2840
2440
2240
2140
2140
20C0
2040
0000
0000
ENDCHAR

STARTCHAR Ca6ae
ENCODING 42670
SWIDTH 1000 0
DWIDTH 12 0
BBX 12 12 0 -2
BITMAP
0000
3F80
0000
0000
0000
1F00
0000
0000
0000
3F80
0000
0000
ENDCHAR

STARTCHAR Ca6af
ENCODING 42671
SWIDTH 1000 0
DWIDTH 12 0
BBX 12 12 0 -2
BITMAP
0000
0F00
1080
2040
2040
2040
2040
2040
1080
0F00
0000
0000
ENDCHAR

STARTCHAR Ca6b0
ENCODING 42672
SWIDTH 1000 0
DWIDTH 12 0
BBX 12 12 0 -2
BITMAP
0000
3F80
2080
2080
2080
2080
2080
2080
2080
2080
0000
0000
ENDCHAR

STARTCHAR Ca6b1
ENCODING 42673
SWIDTH 1000 0
DWIDTH 12 0
BBX 12 12 0 -2
BITMAP
0000
1F80
1040
1040
1040
1F80
1000
1000
1000
1000
0000
0000
ENDCHAR

STARTCHAR Ca6b2
ENCODING 42674
SWIDTH 1000 0
DWIDTH 12 0
BBX 12 12 0 -2
BITMAP
0000
3FC0
1000
0800
0400
0200
0400
0800
1000
3FC0
0000
0000
ENDCHAR

STARTCHAR Ca6b3
ENCODING 42675
SWIDTH 1000 0
DWIDTH 12 0
BBX 12 12 0 -2
BITMAP
0000
7FC0
0400
0400
0400
0400
0400
0400
0400
0400
0000
0000
ENDCHAR

STARTCHAR Ca6b4
ENCODING 42676
SWIDTH 1000 0
DWIDTH 12 0
BBX 12 12 0 -2
BITMAP
0000
3180
4A40
4440
0400
0400
0400
0400
0400
0400
0000
0000
ENDCHAR

STARTCHAR Ca6b5
ENCODING 42677
SWIDTH 1000 0
DWIDTH 12 0
BBX 12 12 0 -2
BITMAP
0000
0400
0400
3F80
4440
4440
4440
3F80
0400
0400
0000
0000
ENDCHAR

STARTCHAR Ca6b6
ENCODING 42678
SWIDTH 1000 0
DWIDTH 12 0
BBX 12 12 0 -2
BITMAP
0000
4040
2080
1100
0A00
0400
0A00
1100
2080
4040
0000
0000
ENDCHAR

STARTCHAR Ca6b7
ENCODING 42679
SWIDTH 1000 0
DWIDTH 12 0
BBX 12 12 0 -2
BITMAP
0000
2480
5540
5540
5540
1500
1500
0E00
0400
0400
0000
0000
ENDCHAR

STARTCHAR Ca6b8
ENCODING 42680
SWIDTH 1000 0
DWIDTH 12 0
BBX 12 12 0 -2
BITMAP
0000
0F00
1080
2040
2040
2040
2040
1080
0900
39C0
0000
0000
ENDCHAR

STARTCHAR Ca6b9
ENCODING 42681
SWIDTH 1000 0
DWIDTH 12 0
BBX 12 12 0 -2
BITMAP
0000
0000
0000
0000
0000
0000
0000
0000
0000
0000
0000
0000
ENDCHAR

STARTCHAR Ca6ba
ENCODING 42682
SWIDTH 1000 0
DWIDTH 12 0
BBX 12 12 0 -2
BITMAP
0000
0000
0000
0000
0000
0000
0000
0000
0000
0000
0000
0000
ENDCHAR

STARTCHAR Ca6bb
ENCODING 42683
SWIDTH 1000 0
DWIDTH 12 0
BBX 12 12 0 -2
BITMAP
0000
0000
0000
0000
0000
0000
0000
0000
0000
0000
0000
0000
ENDCHAR

STARTCHAR Ca6bc
ENCODING 42684
SWIDTH 1000 0
DWIDTH 12 0
BBX 12 12 0 -2
BITMAP
0000
0000
0000
0000
0000
0000
0000
0000
0000
0000
0000
0000
ENDCHAR

STARTCHAR Ca6bd
ENCODING 42685
SWIDTH 1000 0
DWIDTH 12 0
BBX 12 12 0 -2
BITMAP
0000
0000
0000
0000
0000
0000
0000
0000
0000
0000
0000
0000
ENDCHAR

STARTCHAR Ca6be
ENCODING 42686
SWIDTH 1000 0
DWIDTH 12 0
BBX 12 12 0 -2
BITMAP
0000
0000
0000
0000
0000
0000
0000
0000
0000
0000
0000
0000
ENDCHAR

STARTCHAR Ca6bf
ENCODING 42687
SWIDTH 1000 0
DWIDTH 12 0
BBX 12 12 0 -2
BITMAP
0000
0000
0000
0000
0000
0000
0000
0000
0000
0000
0000
0000
ENDCHAR

STARTCHAR Ca6c0
ENCODING 42688
SWIDTH 1000 0
DWIDTH 12 0
BBX 12 12 0 -2
BITMAP
0000
0000
0000
0000
0000
0000
0000
0000
0000
0000
0000
0000
ENDCHAR

STARTCHAR Ca6c1
ENCODING 42689
SWIDTH 1000 0
DWIDTH 12 0
BBX 12 12 0 -2
BITMAP
0000
0000
0000
0000
0C80
1300
2200
2200
2480
1B00
0000
0000
ENDCHAR

STARTCHAR Ca6c2
ENCODING 42690
SWIDTH 1000 0
DWIDTH 12 0
BBX 12 12 0 -2
BITMAP
0000
0300
0480
0480
0880
0B00
1080
1080
1080
2F00
2000
0000
ENDCHAR

STARTCHAR Ca6c3
ENCODING 42691
SWIDTH 1000 0
DWIDTH 12 0
BBX 12 12 0 -2
BITMAP
0000
0000
0000
0000
1840
2480
0500
0200
0200
0400
0400
0000
ENDCHAR

STARTCHAR Ca6c4
ENCODING 42692
SWIDTH 1000 0
DWIDTH 12 0
BBX 12 12 0 -2
BITMAP
0000
0700
0880
0800
0600
0900
1100
1100
1200
0C00
0000
0000
ENDCHAR

STARTCHAR Ca6c5
ENCODING 42693
SWIDTH 1000 0
DWIDTH 12 0
BBX 12 12 0 -2
BITMAP
0000
0000
0000
0000
0E00
1100
0C00
1000
1100
0E00
0000
0000
ENDCHAR

STARTCHAR Ca6c6
ENCODING 42694
SWIDTH 1000 0
DWIDTH 12 0
BBX 12 12 0 -2
BITMAP
0000
0980
0B00
0400
0800
1000
1000
0E00
0100
1100
0E00
0000
ENDCHAR

STARTCHAR Ca6c7
ENCODING 42695
SWIDTH 1000 0
DWIDTH 12 0
BBX 12 12 0 -2
BITMAP
0000
0000
0000
0000
0B00
1480
0480
0880
0900
0900
0100
0000
ENDCHAR

STARTCHAR Ca6c8
ENCODING 42696
SWIDTH 1000 0
DWIDTH 12 0
BBX 12 12 0 -2
BITMAP
0000
0300
0480
0880
0880
0F80
1100
1100
1200
0C00
0000
0000
ENDCHAR

STARTCHAR Ca6c9
ENCODING 42697
SWIDTH 1000 0
DWIDTH 12 0
BBX 12 12 0 -2
BITMAP
0000
0000
0000
0000
0400
0800
0800
1000
1100
0E00
0000
0000
ENDCHAR

STARTCHAR Ca6ca
ENCODING 42698
SWIDTH 1000 0
DWIDTH 12 0
BBX 12 12 0 -2
BITMAP
0000
0000
0000
0000
0440
0580
0600
0C00
0A80
1100
0000
0000
ENDCHAR

STARTCHAR Ca6cb
ENCODING 42699
SWIDTH 1000 0
DWIDTH 12 0
BBX 12 12 0 -2
BITMAP
0000
0C00
1200
0200
0200
0500
0500
0880
1080
2040
0000
0000
ENDCHAR

STARTCHAR Ca6cc
ENCODING 42700
SWIDTH 1000 0
DWIDTH 12 0
BBX 12 12 0 -2
BITMAP
0000
0000
0000
0000
0480
0480
0900
0900
0940
1680
1000
0000
ENDCHAR

STARTCHAR Ca6cd
ENCODING 42701
SWIDTH 1000 0
DWIDTH 12 0
BBX 12 12 0 -2
BITMAP
0000
0000
0000
0000
1080
2880
0900
0900
0A00
0C00
0000
0000
ENDCHAR

STARTCHAR Ca6ce
ENCODING 42702
SWIDTH 1000 0
DWIDTH 12 0
BBX 12 12 0 -2
BITMAP
0000
0200
0700
0800
0600
0800
1000
1000
0E00
0100
0E00
0000
ENDCHAR

STARTCHAR Ca6cf
ENCODING 42703
SWIDTH 1000 0
DWIDTH 12 0
BBX 12 12 0 -2
BITMAP
0000
0000
0000
0000
0700
0880
1080
1080
1100
0E00
0000
0000
ENDCHAR

STARTCHAR Ca6d0
ENCODING 42704
SWIDTH 1000 0
DWIDTH 12 0
BBX 12 12 0 -2
BITMAP
0000
0000
0000
0000
0000
1FC0
2500
0A00
0A40
1180
0000
0000
ENDCHAR

STARTCHAR Ca6d1
ENCODING 42705
SWIDTH 1000 0
DWIDTH 12 0
BBX 12 12 0 -2
BITMAP
0000
0000
0000
0000
0300
0480
0480
0880
0900
1600
1000
0000
ENDCHAR

STARTCHAR Ca6d2
ENCODING 42706
SWIDTH 1000 0
DWIDTH 12 0
BBX 12 12 0 -2
BITMAP
0000
0000
0000
0000
0780
0A00
1100
1100
1200
0C00
0000
0000
ENDCHAR

STARTCHAR Ca6d3
ENCODING 42707
SWIDTH 1000 0
DWIDTH 12 0
BBX 12 12 0 -2
BITMAP
0000
0000
0000
0000
1F80
2400
0400
0800
0900
0600
0000
0000
ENDCHAR

STARTCHAR Ca6d4
ENCODING 42708
SWIDTH 1000 0
DWIDTH 12 0
BBX 12 12 0 -2
BITMAP
0000
0000
0000
0000
0900
1480
0480
0880
0900
0600
0000
0000
ENDCHAR

STARTCHAR Ca6d5
ENCODING 42709
SWIDTH 1000 0
DWIDTH 12 0
BBX 12 12 0 -2
BITMAP
0000
0200
0200
0F00
1480
2480
2480
2500
1E00
0800
0800
0000
ENDCHAR

STARTCHAR Ca6d6
ENCODING 42710
SWIDTH 1000 0
DWIDTH 12 0
BBX 12 12 0 -2
BITMAP
0000
0000
0000
0000
0880
1480
0500
0200
0500
0900
10C0
0000
ENDCHAR

STARTCHAR Ca6d7
ENCODING 42711
SWIDTH 1000 0
DWIDTH 12 0
BBX 12 12 0 -2
BITMAP
0000
0200
0200
0400
1500
2480
2880
2900
1E00
0800
0800
0000
ENDCHAR

STARTCHAR Ca6d8
ENCODING 42712
SWIDTH 1000 0
DWIDTH 12 0
BBX 12 12 0 -2
BITMAP
0000
0000
0000
0000
0880
1040
2240
2440
2480
1B00
0000
0000
ENDCHAR

STARTCHAR Ca7a1
ENCODING 42913
SWIDTH 1000 0
DWIDTH 12 0
BBX 12 12 0 -2
BITMAP
0000
0400
0A00
0A00
1100
1100
2080
3F80
4040
4040
0000
0000
ENDCHAR

STARTCHAR Ca7a2
ENCODING 42914
SWIDTH 1000 0
DWIDTH 12 0
BBX 12 12 0 -2
BITMAP
0000
3F80
2000
2000
2000
3F00
2080
2040
2040
3F80
0000
0000
ENDCHAR

STARTCHAR Ca7a3
ENCODING 42915
SWIDTH 1000 0
DWIDTH 12 0
BBX 12 12 0 -2
BITMAP
0000
3F00
2080
2080
2080
3F00
2080
2040
2040
3F80
0000
0000
ENDCHAR

STARTCHAR Ca7a4
ENCODING 42916
SWIDTH 1000 0
DWIDTH 12 0
BBX 12 12 0 -2
BITMAP
0000
1FC0
1000
1000
1000
1000
1000
1000
1000
1000
0000
0000
ENDCHAR

STARTCHAR Ca7a5
ENCODING 42917
SWIDTH 1000 0
DWIDTH 12 0
BBX 12 12 0 -2
BITMAP
0000
0F80
0880
0880
0880
0880
0880
1080
1080
3FC0
2040
0000
ENDCHAR

STARTCHAR Ca7a6
ENCODING 42918
SWIDTH 1000 0
DWIDTH 12 0
BBX 12 12 0 -2
BITMAP
0000
3F80
2000
2000
2000
3F00
2000
2000
2000
3F80
0000
0000
ENDCHAR

STARTCHAR Ca7a7
ENCODING 42919
SWIDTH 1000 0
DWIDTH 12 0
BBX 12 12 0 -2
BITMAP
0000
0A00
3F80
2000
2000
3F00
2000
2000
2000
3F80
0000
0000
ENDCHAR

STARTCHAR Ca7a8
ENCODING 42920
SWIDTH 1000 0
DWIDTH 12 0
BBX 12 12 0 -2
BITMAP
0000
2480
5540
1500
1500
0E00
1500
2480
2480
4440
0000
0000
ENDCHAR

STARTCHAR Ca7a9
ENCODING 42921
SWIDTH 1000 0
DWIDTH 12 0
BBX 12 12 0 -2
BITMAP
0000
0F00
1080
2080
0080
0F00
0080
2080
2080
1F00
0000
0000
ENDCHAR

STARTCHAR Ca7aa
ENCODING 42922
SWIDTH 1000 0
DWIDTH 12 0
BBX 12 12 0 -2
BITMAP
0000
20C0
2140
2140
2240
2440
2840
2840
3040
2040
0000
0000
ENDCHAR

STARTCHAR Ca7ab
ENCODING 42923
SWIDTH 1000 0
DWIDTH 12 0
BBX 12 12 0 -2
BITMAP
0000
2940
2640
20C0
2140
2240
2440
2840
3040
2040
0000
0000
ENDCHAR

STARTCHAR Ca7ac
ENCODING 42924
SWIDTH 1000 0
DWIDTH 12 0
BBX 12 12 0 -2
BITMAP
0000
2080
2080
2100
2200
3C00
2200
2100
2080
2040
0000
0000
ENDCHAR

STARTCHAR Ca7ad
ENCODING 42925
SWIDTH 1000 0
DWIDTH 12 0
BBX 12 12 0 -2
BITMAP
0000
0F80
0880
0880
0880
0880
0880
0880
4880
3080
0000
0000
ENDCHAR

STARTCHAR Ca7ae
ENCODING 42926
SWIDTH 1000 0
DWIDTH 12 0
BBX 12 12 0 -2
BITMAP
0000
60C0
5140
5140
4A40
4A40
4A40
4440
4440
4040
0000
0000
ENDCHAR

STARTCHAR Ca7af
ENCODING 42927
SWIDTH 1000 0
DWIDTH 12 0
BBX 12 12 0 -2
BITMAP
0000
2080
2080
2080
2080
3F80
2080
2080
2080
2080
0000
0000
ENDCHAR

STARTCHAR Ca7b0
ENCODING 42928
SWIDTH 1000 0
DWIDTH 12 0
BBX 12 12 0 -2
BITMAP
0000
0F00
1080
2040
2040
2040
2040
2040
1080
0F00
0000
0000
ENDCHAR

STARTCHAR Ca7b1
ENCODING 42929
SWIDTH 1000 0
DWIDTH 12 0
BBX 12 12 0 -2
BITMAP
0000
3F80
2080
2080
2080
2080
2080
2080
2080
2080
0000
0000
ENDCHAR

STARTCHAR Ca7b2
ENCODING 42930
SWIDTH 1000 0
DWIDTH 12 0
BBX 12 12 0 -2
BITMAP
0000
1F80
1040
1040
1040
1F80
1000
1000
1000
1000
0000
0000
ENDCHAR

STARTCHAR Ca7b3
ENCODING 42931
SWIDTH 1000 0
DWIDTH 12 0
BBX 12 12 0 -2
BITMAP
0000
0F00
1080
2040
2000
2000
2000
2040
1080
0F00
0000
0000
ENDCHAR

STARTCHAR Ca7b4
ENCODING 42932
SWIDTH 1000 0
DWIDTH 12 0
BBX 12 12 0 -2
BITMAP
0000
7FC0
0400
0400
0400
0400
0400
0400
0400
0400
0000
0000
ENDCHAR

STARTCHAR Ca7b5
ENCODING 42933
SWIDTH 1000 0
DWIDTH 12 0
BBX 12 12 0 -2
BITMAP
0000
1040
0880
0880
0500
0500
0200
0200
2400
1800
0000
0000
ENDCHAR

STARTCHAR Ca7b6
ENCODING 42934
SWIDTH 1000 0
DWIDTH 12 0
BBX 12 12 0 -2
BITMAP
0000
0400
1F00
2480
4440
4440
2480
1F00
0400
0400
0000
0000
ENDCHAR

STARTCHAR Ca7b7
ENCODING 42935
SWIDTH 1000 0
DWIDTH 12 0
BBX 12 12 0 -2
BITMAP
0000
4040
2080
1100
0A00
0400
0A00
1100
2080
4040
0000
0000
ENDCHAR

STARTCHAR Ca7b8
ENCODING 42936
SWIDTH 1000 0
DWIDTH 12 0
BBX 12 12 0 -2
BITMAP
0000
2100
2100
2100
2100
2100
2100
2100
2100
3F80
0080
0000
ENDCHAR

STARTCHAR Ca7b9
ENCODING 42937
SWIDTH 1000 0
DWIDTH 12 0
BBX 12 12 0 -2
BITMAP
0000
1080
1080
1080
1080
1080
1180
0E80
0080
0080
0000
0000
ENDCHAR

STARTCHAR Ca7ba
ENCODING 42938
SWIDTH 1000 0
DWIDTH 12 0
BBX 12 12 0 -2
BITMAP
0000
2480
2480
2480
2480
2480
2480
2480
2480
3F80
0000
0000
ENDCHAR

STARTCHAR Ca7bb
ENCODING 42939
SWIDTH 1000 0
DWIDTH 12 0
BBX 12 12 0 -2
BITMAP
0000
2480
2480
2480
2480
2480
2480
2480
2480
3FC0
0040
0000
ENDCHAR

STARTCHAR Ca7bc
ENCODING 42940
SWIDTH 1000 0
DWIDTH 12 0
BBX 12 12 0 -2
BITMAP
0000
3800
0800
0800
0800
0F80
0840
0840
0840
0F80
0000
0000
ENDCHAR

STARTCHAR Ca7bd
ENCODING 42941
SWIDTH 1000 0
DWIDTH 12 0
BBX 12 12 0 -2
BITMAP
0000
2040
2040
2040
2040
3E40
2140
2140
2140
3E40
0000
0000
ENDCHAR

STARTCHAR Ca7be
ENCODING 42942
SWIDTH 1000 0
DWIDTH 12 0
BBX 12 12 0 -2
BITMAP
0000
1000
1000
1000
1000
1F00
1080
1080
1080
1F00
0000
0000
ENDCHAR

STARTCHAR Ca7bf
ENCODING 42943
SWIDTH 1000 0
DWIDTH 12 0
BBX 12 12 0 -2
BITMAP
0000
0F00
1080
2040
0040
1FC0
0040
2040
1080
0F00
0000
0000
ENDCHAR

STARTCHAR Ca7c0
ENCODING 42944
SWIDTH 1000 0
DWIDTH 12 0
BBX 12 12 0 -2
BITMAP
0000
2380
2440
2440
2440
3C40
2440
2440
2440
2380
0000
0000
ENDCHAR

STARTCHAR Ca7c1
ENCODING 42945
SWIDTH 1000 0
DWIDTH 12 0
BBX 12 12 0 -2
BITMAP
0000
1F80
2080
2080
2080
1F80
0880
1080
2080
4080
0000
0000
ENDCHAR

STARTCHAR Ca7c2
ENCODING 42946
SWIDTH 1000 0
DWIDTH 12 0
BBX 12 12 0 -2
BITMAP
0000
0000
0000
0000
0000
0000
0000
0000
0000
0000
0000
0000
ENDCHAR

STARTCHAR Ca7c3
ENCODING 42947
SWIDTH 1000 0
DWIDTH 12 0
BBX 12 12 0 -2
BITMAP
0000
0000
0000
0000
0000
0000
0000
0000
0000
0000
0000
0000
ENDCHAR

STARTCHAR Ca7c4
ENCODING 42948
SWIDTH 1000 0
DWIDTH 12 0
BBX 12 12 0 -2
BITMAP
0000
0000
0000
0000
0000
0000
0000
0000
0000
0000
0000
0000
ENDCHAR

STARTCHAR Ca7c5
ENCODING 42949
SWIDTH 1000 0
DWIDTH 12 0
BBX 12 12 0 -2
BITMAP
0000
0000
0000
0000
0000
0000
0000
0000
0000
0000
0000
0000
ENDCHAR

STARTCHAR Ca7c6
ENCODING 42950
SWIDTH 1000 0
DWIDTH 12 0
BBX 12 12 0 -2
BITMAP
0000
0000
0000
0000
0000
0000
0000
0000
0000
0000
0000
0000
ENDCHAR

STARTCHAR Ca7c7
ENCODING 42951
SWIDTH 1000 0
DWIDTH 12 0
BBX 12 12 0 -2
BITMAP
0000
0000
0000
0000
0000
0000
0000
0000
0000
0000
0000
0000
ENDCHAR

STARTCHAR Ca7c8
ENCODING 42952
SWIDTH 1000 0
DWIDTH 12 0
BBX 12 12 0 -2
BITMAP
0000
0000
0000
0000
0000
0000
0000
0000
0000
0000
0000
0000
ENDCHAR

STARTCHAR Ca7c9
ENCODING 42953
SWIDTH 1000 0
DWIDTH 12 0
BBX 12 12 0 -2
BITMAP
0000
0000
0000
0000
0000
0000
0000
0000
0000
0000
0000
0000
ENDCHAR

STARTCHAR Ca7ca
ENCODING 42954
SWIDTH 1000 0
DWIDTH 12 0
BBX 12 12 0 -2
BITMAP
0000
0000
0000
0000
0000
0000
0000
0000
0000
0000
0000
0000
ENDCHAR

STARTCHAR Ca7cb
ENCODING 42955
SWIDTH 1000 0
DWIDTH 12 0
BBX 12 12 0 -2
BITMAP
0000
0000
0000
0000
0000
0000
0000
0000
0000
0000
0000
0000
ENDCHAR

STARTCHAR Ca7cc
ENCODING 42956
SWIDTH 1000 0
DWIDTH 12 0
BBX 12 12 0 -2
BITMAP
0000
0000
0000
0000
0000
0000
0000
0000
0000
0000
0000
0000
ENDCHAR

STARTCHAR Ca7cd
ENCODING 42957
SWIDTH 1000 0
DWIDTH 12 0
BBX 12 12 0 -2
BITMAP
0000
0000
0000
0000
0000
0000
0000
0000
0000
0000
0000
0000
ENDCHAR

STARTCHAR Ca7ce
ENCODING 42958
SWIDTH 1000 0
DWIDTH 12 0
BBX 12 12 0 -2
BITMAP
0000
0000
0000
0000
0000
0000
0000
0000
0000
0000
0000
0000
ENDCHAR

STARTCHAR Ca7cf
ENCODING 42959
SWIDTH 1000 0
DWIDTH 12 0
BBX 12 12 0 -2
BITMAP
0000
0000
0000
0000
0000
0000
0000
0000
0000
0000
0000
0000
ENDCHAR

STARTCHAR Ca7d0
ENCODING 42960
SWIDTH 1000 0
DWIDTH 12 0
BBX 12 12 0 -2
BITMAP
0000
0000
0000
0000
0000
0000
0000
0000
0000
0000
0000
0000
ENDCHAR

STARTCHAR Ca7d1
ENCODING 42961
SWIDTH 1000 0
DWIDTH 12 0
BBX 12 12 0 -2
BITMAP
0000
0000
0000
0000
0E00
1100
0F00
1100
1100
0E80
0000
0000
ENDCHAR

STARTCHAR Ca7d2
ENCODING 42962
SWIDTH 1000 0
DWIDTH 12 0
BBX 12 12 0 -2
BITMAP
0000
0200
0C00
1000
1600
1900
1100
1100
1100
0E00
0000
0000
ENDCHAR

STARTCHAR Ca7d3
ENCODING 42963
SWIDTH 1000 0
DWIDTH 12 0
BBX 12 12 0 -2
BITMAP
0000
0000
0000
0000
1F00
1080
1F00
1080
1080
1F00
0000
0000
ENDCHAR

STARTCHAR Ca7d4
ENCODING 42964
SWIDTH 1000 0
DWIDTH 12 0
BBX 12 12 0 -2
BITMAP
0000
0000
0000
0000
1F00
1000
1000
1000
1000
1000
0000
0000
ENDCHAR

STARTCHAR Ca7d5
ENCODING 42965
SWIDTH 1000 0
DWIDTH 12 0
BBX 12 12 0 -2
BITMAP
0000
0000
0000
0000
0F00
0900
0900
1100
1100
3F80
2080
0000
ENDCHAR

STARTCHAR Ca7d6
ENCODING 42966
SWIDTH 1000 0
DWIDTH 12 0
BBX 12 12 0 -2
BITMAP
0000
0000
0000
0000
0F00
1080
1F80
1000
1080
0F00
0000
0000
ENDCHAR

STARTCHAR Ca7d7
ENCODING 42967
SWIDTH 1000 0
DWIDTH 12 0
BBX 12 12 0 -2
BITMAP
0000
0000
0A00
0000
0F00
1080
1F80
1000
1080
0F00
0000
0000
ENDCHAR

STARTCHAR Ca7d8
ENCODING 42968
SWIDTH 1000 0
DWIDTH 12 0
BBX 12 12 0 -2
BITMAP
0000
0000
0000
0000
2480
1500
1500
0E00
1500
2480
0000
0000
ENDCHAR

STARTCHAR Ca7d9
ENCODING 42969
SWIDTH 1000 0
DWIDTH 12 0
BBX 12 12 0 -2
BITMAP
0000
0000
0000
0000
0F00
1080
0700
0080
1080
0F00
0000
0000
ENDCHAR

STARTCHAR Ca7da
ENCODING 42970
SWIDTH 1000 0
DWIDTH 12 0
BBX 12 12 0 -2
BITMAP
0000
0000
0000
0000
1080
1180
1280
1480
1880
1080
0000
0000
ENDCHAR

STARTCHAR Ca7db
ENCODING 42971
SWIDTH 1000 0
DWIDTH 12 0
BBX 12 12 0 -2
BITMAP
0000
0900
0600
0000
1080
1180
1280
1480
1880
1080
0000
0000
ENDCHAR

STARTCHAR Ca7dc
ENCODING 42972
SWIDTH 1000 0
DWIDTH 12 0
BBX 12 12 0 -2
BITMAP
0000
0000
0000
0000
1100
1100
1E00
1200
1100
1080
0000
0000
ENDCHAR

STARTCHAR Ca7dd
ENCODING 42973
SWIDTH 1000 0
DWIDTH 12 0
BBX 12 12 0 -2
BITMAP
0000
0000
0000
0000
0F80
0880
0880
0880
2880
1080
0000
0000
ENDCHAR

STARTCHAR Ca7de
ENCODING 42974
SWIDTH 1000 0
DWIDTH 12 0
BBX 12 12 0 -2
BITMAP
0000
0000
0000
0000
2080
3180
2A80
2480
2480
2080
0000
0000
ENDCHAR

STARTCHAR Ca7df
ENCODING 42975
SWIDTH 1000 0
DWIDTH 12 0
BBX 12 12 0 -2
BITMAP
0000
0000
0000
0000
1080
1080
1F80
1080
1080
1080
0000
0000
ENDCHAR

STARTCHAR Ca7e0
ENCODING 42976
SWIDTH 1000 0
DWIDTH 12 0
BBX 12 12 0 -2
BITMAP
0000
0000
0000
0000
0F00
1080
1080
1080
1080
0F00
0000
0000
ENDCHAR

STARTCHAR Ca7e1
ENCODING 42977
SWIDTH 1000 0
DWIDTH 12 0
BBX 12 12 0 -2
BITMAP
0000
0000
0000
0000
1F00
1100
1100
1100
1100
1100
0000
0000
ENDCHAR

STARTCHAR Ca7e2
ENCODING 42978
SWIDTH 1000 0
DWIDTH 12 0
BBX 12 12 0 -2
BITMAP
0000
0000
0000
0000
1700
1880
1080
1880
1700
1000
1000
0000
ENDCHAR

STARTCHAR Ca7e3
ENCODING 42979
SWIDTH 1000 0
DWIDTH 12 0
BBX 12 12 0 -2
BITMAP
0000
0000
0000
0000
0F00
1080
1000
1000
1080
0F00
0000
0000
ENDCHAR

STARTCHAR Ca7e4
ENCODING 42980
SWIDTH 1000 0
DWIDTH 12 0
BBX 12 12 0 -2
BITMAP
0000
0000
0000
0000
3F80
0400
0400
0400
0400
0400
0000
0000
ENDCHAR

STARTCHAR Ca7e5
ENCODING 42981
SWIDTH 1000 0
DWIDTH 12 0
BBX 12 12 0 -2
BITMAP
0000
0000
0000
0000
1080
0880
0900
0500
0200
0400
1800
0000
ENDCHAR

STARTCHAR Ca7e6
ENCODING 42982
SWIDTH 1000 0
DWIDTH 12 0
BBX 12 12 0 -2
BITMAP
0000
0400
0400
1500
2E80
2480
2480
2E80
1500
0400
0400
0000
ENDCHAR

STARTCHAR Ca7e7
ENCODING 42983
SWIDTH 1000 0
DWIDTH 12 0
BBX 12 12 0 -2
BITMAP
0000
0000
0000
0000
1100
0A00
0400
0400
0A00
1100
0000
0000
ENDCHAR

STARTCHAR Ca7e8
ENCODING 42984
SWIDTH 1000 0
DWIDTH 12 0
BBX 12 12 0 -2
BITMAP
0000
0000
0000
0000
1100
1100
1100
1100
1100
1F80
0080
0000
ENDCHAR

STARTCHAR Ca7e9
ENCODING 42985
SWIDTH 1000 0
DWIDTH 12 0
BBX 12 12 0 -2
BITMAP
0000
0000
0000
0000
1100
1100
1100
0F00
0100
0100
0000
0000
ENDCHAR

STARTCHAR Ca7ea
ENCODING 42986
SWIDTH 1000 0
DWIDTH 12 0
BBX 12 12 0 -2
BITMAP
0000
0000
0000
0000
2480
2480
2480
2480
2480
3F80
0000
0000
ENDCHAR

STARTCHAR Ca7eb
ENCODING 42987
SWIDTH 1000 0
DWIDTH 12 0
BBX 12 12 0 -2
BITMAP
0000
0000
0000
0000
2480
2480
2480
2480
2480
3FC0
0040
0000
ENDCHAR

STARTCHAR Ca7ec
ENCODING 42988
SWIDTH 1000 0
DWIDTH 12 0
BBX 12 12 0 -2
BITMAP
0000
0000
0000
0000
3800
0800
0F00
0880
0880
0F00
0000
0000
ENDCHAR

STARTCHAR Ca7ed
ENCODING 42989
SWIDTH 1000 0
DWIDTH 12 0
BBX 12 12 0 -2
BITMAP
0000
0000
0000
0000
2080
2080
3C80
2280
2280
3C80
0000
0000
ENDCHAR

STARTCHAR Ca7ee
ENCODING 42990
SWIDTH 1000 0
DWIDTH 12 0
BBX 12 12 0 -2
BITMAP
0000
0000
0000
0000
1000
1000
1E00
1100
1100
1E00
0000
0000
ENDCHAR

STARTCHAR Ca7ef
ENCODING 42991
SWIDTH 1000 0
DWIDTH 12 0
BBX 12 12 0 -2
BITMAP
0000
0000
0000
0000
0F00
1080
0780
0080
1080
0F00
0000
0000
ENDCHAR

STARTCHAR Ca7f0
ENCODING 42992
SWIDTH 1000 0
DWIDTH 12 0
BBX 12 12 0 -2
BITMAP
0000
0000
0000
0000
1300
1480
1C80
1480
1480
1300
0000
0000
ENDCHAR

STARTCHAR Ca7f1
ENCODING 42993
SWIDTH 1000 0
DWIDTH 12 0
BBX 12 12 0 -2
BITMAP
0000
0000
0000
0000
0F00
1100
1100
0F00
0900
1100
0000
0000
ENDCHAR

STARTCHAR Ca8a1
ENCODING 43169
SWIDTH 1000 0
DWIDTH 12 0
BBX 12 12 0 -2
BITMAP
0000
0000
0000
0000
0000
FFF0
0000
0000
0000
0000
0000
0000
ENDCHAR

STARTCHAR Ca8a2
ENCODING 43170
SWIDTH 1000 0
DWIDTH 12 0
BBX 12 12 0 -2
BITMAP
0400
0400
0400
0400
0400
0400
0400
0400
0400
0400
0400
0400
ENDCHAR

STARTCHAR Ca8a3
ENCODING 43171
SWIDTH 1000 0
DWIDTH 12 0
BBX 12 12 0 -2
BITMAP
0000
0000
0000
0000
0000
07F0
0400
0400
0400
0400
0400
0400
ENDCHAR

STARTCHAR Ca8a4
ENCODING 43172
SWIDTH 1000 0
DWIDTH 12 0
BBX 12 12 0 -2
BITMAP
0000
0000
0000
0000
0000
FC00
0400
0400
0400
0400
0400
0400
ENDCHAR

STARTCHAR Ca8a5
ENCODING 43173
SWIDTH 1000 0
DWIDTH 12 0
BBX 12 12 0 -2
BITMAP
0400
0400
0400
0400
0400
FC00
0000
0000
0000
0000
0000
0000
ENDCHAR

STARTCHAR Ca8a6
ENCODING 43174
SWIDTH 1000 0
DWIDTH 12 0
BBX 12 12 0 -2
BITMAP
0400
0400
0400
0400
0400
07F0
0000
0000
0000
0000
0000
0000
ENDCHAR

STARTCHAR Ca8a7
ENCODING 43175
SWIDTH 1000 0
DWIDTH 12 0
BBX 12 12 0 -2
BITMAP
0400
0400
0400
0400
0400
07F0
0400
0400
0400
0400
0400
0400
ENDCHAR

STARTCHAR Ca8a8
ENCODING 43176
SWIDTH 1000 0
DWIDTH 12 0
BBX 12 12 0 -2
BITMAP
0000
0000
0000
0000
0000
FFF0
0400
0400
0400
0400
0400
0400
ENDCHAR

STARTCHAR Ca8a9
ENCODING 43177
SWIDTH 1000 0
DWIDTH 12 0
BBX 12 12 0 -2
BITMAP
0400
0400
0400
0400
0400
FC00
0400
0400
0400
0400
0400
0400
ENDCHAR

STARTCHAR Ca8aa
ENCODING 43178
SWIDTH 1000 0
DWIDTH 12 0
BBX 12 12 0 -2
BITMAP
0400
0400
0400
0400
0400
FFF0
0000
0000
0000
0000
0000
0000
ENDCHAR

STARTCHAR Ca8ab
ENCODING 43179
SWIDTH 1000 0
DWIDTH 12 0
BBX 12 12 0 -2
BITMAP
0400
0400
0400
0400
0400
FFF0
0400
0400
0400
0400
0400
0400
ENDCHAR

STARTCHAR Ca8ac
ENCODING 43180
SWIDTH 1000 0
DWIDTH 12 0
BBX 12 12 0 -2
BITMAP
0000
0000
0000
0000
0000
FFF0
FFF0
0000
0000
0000
0000
0000
ENDCHAR

STARTCHAR Ca8ad
ENCODING 43181
SWIDTH 1000 0
DWIDTH 12 0
BBX 12 12 0 -2
BITMAP
0600
0600
0600
0600
0600
0600
0600
0600
0600
0600
0600
0600
ENDCHAR

STARTCHAR Ca8ae
ENCODING 43182
SWIDTH 1000 0
DWIDTH 12 0
BBX 12 12 0 -2
BITMAP
0000
0000
0000
0000
0000
07F0
07F0
0600
0600
0600
0600
0600
ENDCHAR

STARTCHAR Ca8af
ENCODING 43183
SWIDTH 1000 0
DWIDTH 12 0
BBX 12 12 0 -2
BITMAP
0000
0000
0000
0000
0000
FE00
FE00
0600
0600
0600
0600
0600
ENDCHAR

STARTCHAR Ca8b0
ENCODING 43184
SWIDTH 1000 0
DWIDTH 12 0
BBX 12 12 0 -2
BITMAP
0600
0600
0600
0600
0600
FE00
FE00
0000
0000
0000
0000
0000
ENDCHAR

STARTCHAR Ca8b1
ENCODING 43185
SWIDTH 1000 0
DWIDTH 12 0
BBX 12 12 0 -2
BITMAP
0600
0600
0600
0600
0600
07F0
07F0
0000
0000
0000
0000
0000
ENDCHAR

STARTCHAR Ca8b2
ENCODING 43186
SWIDTH 1000 0
DWIDTH 12 0
BBX 12 12 0 -2
BITMAP
0600
0600
0600
0600
0600
07F0
07F0
0600
0600
0600
0600
0600
ENDCHAR

STARTCHAR Ca8b3
ENCODING 43187
SWIDTH 1000 0
DWIDTH 12 0
BBX 12 12 0 -2
BITMAP
0000
0000
0000
0000
0000
FFF0
FFF0
0600
0600
0600
0600
0600
ENDCHAR

STARTCHAR Ca8b4
ENCODING 43188
SWIDTH 1000 0
DWIDTH 12 0
BBX 12 12 0 -2
BITMAP
0600
0600
0600
0600
0600
FE00
FE00
0600
0600
0600
0600
0600
ENDCHAR

STARTCHAR Ca8b5
ENCODING 43189
SWIDTH 1000 0
DWIDTH 12 0
BBX 12 12 0 -2
BITMAP
0600
0600
0600
0600
0600
FFF0
FFF0
0000
0000
0000
0000
0000
ENDCHAR

STARTCHAR Ca8b6
ENCODING 43190
SWIDTH 1000 0
DWIDTH 12 0
BBX 12 12 0 -2
BITMAP
0600
0600
0600
0600
0600
FFF0
FFF0
0600
0600
0600
0600
0600
ENDCHAR

STARTCHAR Ca8b7
ENCODING 43191
SWIDTH 1000 0
DWIDTH 12 0
BBX 12 12 0 -2
BITMAP
0600
0600
0600
0600
0600
07F0
0600
0600
0600
0600
0600
0600
ENDCHAR

STARTCHAR Ca8b8
ENCODING 43192
SWIDTH 1000 0
DWIDTH 12 0
BBX 12 12 0 -2
BITMAP
0000
0000
0000
0000
0000
FFF0
FFF0
0400
0400
0400
0400
0400
ENDCHAR

STARTCHAR Ca8b9
ENCODING 43193
SWIDTH 1000 0
DWIDTH 12 0
BBX 12 12 0 -2
BITMAP
0600
0600
0600
0600
0600
FE00
0600
0600
0600
0600
0600
0600
ENDCHAR

STARTCHAR Ca8ba
ENCODING 43194
SWIDTH 1000 0
DWIDTH 12 0
BBX 12 12 0 -2
BITMAP
0400
0400
0400
0400
0400
FFF0
FFF0
0000
0000
0000
0000
0000
ENDCHAR

STARTCHAR Ca8bb
ENCODING 43195
SWIDTH 1000 0
DWIDTH 12 0
BBX 12 12 0 -2
BITMAP
0400
0400
0400
0400
0400
FFF0
FFF0
0400
0400
0400
0400
0400
ENDCHAR

STARTCHAR Ca8bc
ENCODING 43196
SWIDTH 1000 0
DWIDTH 12 0
BBX 12 12 0 -2
BITMAP
0400
0400
0400
0400
0400
07F0
07F0
0400
0400
0400
0400
0400
ENDCHAR

STARTCHAR Ca8bd
ENCODING 43197
SWIDTH 1000 0
DWIDTH 12 0
BBX 12 12 0 -2
BITMAP
0000
0000
0000
0000
0000
FFF0
0600
0600
0600
0600
0600
0600
ENDCHAR

STARTCHAR Ca8be
ENCODING 43198
SWIDTH 1000 0
DWIDTH 12 0
BBX 12 12 0 -2
BITMAP
0400
0400
0400
0400
0400
FC00
FC00
0400
0400
0400
0400
0400
ENDCHAR

STARTCHAR Ca8bf
ENCODING 43199
SWIDTH 1000 0
DWIDTH 12 0
BBX 12 12 0 -2
BITMAP
0600
0600
0600
0600
0600
FFF0
0000
0000
0000
0000
0000
0000
ENDCHAR

STARTCHAR Ca8c0
ENCODING 43200
SWIDTH 1000 0
DWIDTH 12 0
BBX 12 12 0 -2
BITMAP
0600
0600
0600
0600
0600
FFF0
0600
0600
0600
0600
0600
0600
ENDCHAR

STARTCHAR Cb0a1
ENCODING 45217
SWIDTH 1000 0
DWIDTH 12 0
BBX 12 12 0 -2
BITMAP
0000
0000
3FC0
0900
3FC0
2940
2940
3FC0
0900
0900
7FE0
0000
ENDCHAR

STARTCHAR Cb0a2
ENCODING 45218
SWIDTH 1000 0
DWIDTH 12 0
BBX 12 12 0 -2
BITMAP
0000
0000
7FC0
5500
5FC0
5540
5540
5FC0
7500
0500
1FE0
0000
ENDCHAR

STARTCHAR Cb0a3
ENCODING 45219
SWIDTH 1000 0
DWIDTH 12 0
BBX 12 12 0 -2
BITMAP
0000
2100
2100
7BC0
2900
2FE0
4900
6BC0
1100
2900
4FE0
0000
ENDCHAR

STARTCHAR Cb0a4
ENCODING 45220
SWIDTH 1000 0
DWIDTH 12 0
BBX 12 12 0 -2
BITMAP
0000
0000
77E0
5040
6740
5540
5540
5740
6040
4040
41C0
0000
ENDCHAR

STARTCHAR Cb0a5
ENCODING 45221
SWIDTH 1000 0
DWIDTH 12 0
BBX 12 12 0 -2
BITMAP
0000
0400
7FE0
0000
3FC0
2040
3FC0
0A20
1940
6880
1E60
0000
ENDCHAR

STARTCHAR Cb0a6
ENCODING 45222
SWIDTH 1000 0
DWIDTH 12 0
BBX 12 12 0 -2
BITMAP
0000
3FC0
1480
7FE0
4820
2F40
4420
0FC0
3880
0700
78E0
0000
ENDCHAR

STARTCHAR Cb0a7
ENCODING 45223
SWIDTH 1000 0
DWIDTH 12 0
BBX 12 12 0 -2
BITMAP
0000
2200
2440
7FA0
2200
23C0
3500
6100
2FE0
2280
6C60
0000
ENDCHAR

STARTCHAR Cb0a8
ENCODING 45224
SWIDTH 1000 0
DWIDTH 12 0
BBX 12 12 0 -2
BITMAP
0000
2100
2280
7C40
2820
2BC0
4800
6BC0
1240
2A40
43C0
0000
ENDCHAR

STARTCHAR Cb0a9
ENCODING 45225
SWIDTH 1000 0
DWIDTH 12 0
BBX 12 12 0 -2
BITMAP
0000
4200
23C0
2C40
0380
1D60
6380
2100
27C0
2100
5FE0
0000
ENDCHAR

STARTCHAR Cb0aa
ENCODING 45226
SWIDTH 1000 0
DWIDTH 12 0
BBX 12 12 0 -2
BITMAP
0000
1080
7FE0
1080
7E20
2940
1E80
6460
1F80
0900
70E0
0000
ENDCHAR

STARTCHAR Cb0ab
ENCODING 45227
SWIDTH 1000 0
DWIDTH 12 0
BBX 12 12 0 -2
BITMAP
0000
1080
7FE0
1080
7FE0
1200
7FC0
5240
63C0
4040
7FC0
0000
ENDCHAR

STARTCHAR Cb0ac
ENCODING 45228
SWIDTH 1000 0
DWIDTH 12 0
BBX 12 12 0 -2
BITMAP
0000
09C0
7680
13C0
1240
7FE0
1520
3D20
57E0
5100
11E0
0000
ENDCHAR

STARTCHAR Cb0ad
ENCODING 45229
SWIDTH 1000 0
DWIDTH 12 0
BBX 12 12 0 -2
BITMAP
0000
3FC0
0900
3FC0
2940
3FC0
0900
7FE0
2A40
28A0
4FA0
0000
ENDCHAR

STARTCHAR Cb0ae
ENCODING 45230
SWIDTH 1000 0
DWIDTH 12 0
BBX 12 12 0 -2
BITMAP
0000
2FC0
2840
7FC0
2900
2A40
3FA0
6900
2BC0
3100
67E0
0000
ENDCHAR

STARTCHAR Cb0af
ENCODING 45231
SWIDTH 1000 0
DWIDTH 12 0
BBX 12 12 0 -2
BITMAP
0000
4FC0
2840
0FC0
4900
2A40
0FA0
2900
2BC0
4900
57E0
0000
ENDCHAR

STARTCHAR Cb0b0
ENCODING 45232
SWIDTH 1000 0
DWIDTH 12 0
BBX 12 12 0 -2
BITMAP
0000
2000
23C0
7A40
2A40
2BC0
2A40
2A40
2BC0
4820
47E0
0000
ENDCHAR

STARTCHAR Cb0b1
ENCODING 45233
SWIDTH 1000 0
DWIDTH 12 0
BBX 12 12 0 -2
BITMAP
0000
1100
7FE0
1500
0900
7FE0
1080
3F80
2100
7FE0
0100
0000
ENDCHAR

STARTCHAR Cb0b2
ENCODING 45234
SWIDTH 1000 0
DWIDTH 12 0
BBX 12 12 0 -2
BITMAP
0000
1100
7FE0
1100
3FC0
0000
3FC0
2040
3FC0
2000
4000
0000
ENDCHAR

STARTCHAR Cb0b3
ENCODING 45235
SWIDTH 1000 0
DWIDTH 12 0
BBX 12 12 0 -2
BITMAP
0000
3A40
4FA0
1100
7FE0
4A80
4C60
7880
0300
5440
5580
0000
ENDCHAR

STARTCHAR Cb0b4
ENCODING 45236
SWIDTH 1000 0
DWIDTH 12 0
BBX 12 12 0 -2
BITMAP
0000
1100
17C0
7A80
1280
1FE0
3100
5900
57E0
5100
1100
0000
ENDCHAR

STARTCHAR Cb0b5
ENCODING 45237
SWIDTH 1000 0
DWIDTH 12 0
BBX 12 12 0 -2
BITMAP
0000
0000
3FE0
2000
2100
2100
27C0
2100
2100
4100
4FE0
0000
ENDCHAR

STARTCHAR Cb0b6
ENCODING 45238
SWIDTH 1000 0
DWIDTH 12 0
BBX 12 12 0 -2
BITMAP
0000
1180
7A40
1420
7940
48C0
4A40
7960
17C0
7840
1040
0000
ENDCHAR

STARTCHAR Cb0b7
ENCODING 45239
SWIDTH 1000 0
DWIDTH 12 0
BBX 12 12 0 -2
BITMAP
0000
1000
17C0
7A40
1240
12E0
1A20
7520
1540
1880
3360
0000
ENDCHAR

STARTCHAR Cb0b8
ENCODING 45240
SWIDTH 1000 0
DWIDTH 12 0
BBX 12 12 0 -2
BITMAP
0000
0400
7FE0
4020
2000
3BC0
2A40
5AC0
0A00
1220
63E0
0000
ENDCHAR

STARTCHAR Cb0b9
ENCODING 45241
SWIDTH 1000 0
DWIDTH 12 0
BBX 12 12 0 -2
BITMAP
0000
2000
23C0
7A40
2BC0
2A40
4A40
6BC0
1240
2A40
47E0
0000
ENDCHAR

STARTCHAR Cb0ba
ENCODING 45242
SWIDTH 1000 0
DWIDTH 12 0
BBX 12 12 0 -2
BITMAP
0000
1080
1080
7C80
55E0
5500
7D00
1100
1500
1D00
64E0
0000
ENDCHAR

STARTCHAR Cb0bb
ENCODING 45243
SWIDTH 1000 0
DWIDTH 12 0
BBX 12 12 0 -2
BITMAP
0000
1880
2480
5300
3D20
27E0
2400
3DE0
2120
2520
7BE0
0000
ENDCHAR

STARTCHAR Cb0bc
ENCODING 45244
SWIDTH 1000 0
DWIDTH 12 0
BBX 12 12 0 -2
BITMAP
0000
1400
27E0
6820
13A0
2AA0
7BA0
12A0
5BA0
5020
10C0
0000
ENDCHAR

STARTCHAR Cb0bd
ENCODING 45245
SWIDTH 1000 0
DWIDTH 12 0
BBX 12 12 0 -2
BITMAP
0000
1100
23C0
6900
17E0
2A40
7D20
11C0
5640
5180
1660
0000
ENDCHAR

STARTCHAR Cb0be
ENCODING 45246
SWIDTH 1000 0
DWIDTH 12 0
BBX 12 12 0 -2
BITMAP
0000
3880
4880
10E0
7880
4880
4BE0
7A20
0220
5620
53E0
0000
ENDCHAR

STARTCHAR Cb0bf
ENCODING 45247
SWIDTH 1000 0
DWIDTH 12 0
BBX 12 12 0 -2
BITMAP
0000
0140
0120
7FE0
0100
3D00
2540
3D40
0080
0CA0
7160
0000
ENDCHAR

STARTCHAR Cb0c0
ENCODING 45248
SWIDTH 1000 0
DWIDTH 12 0
BBX 12 12 0 -2
BITMAP
0000
7FE0
0900
3FC0
2940
3FC0
1480
7FE0
1500
2480
4460
0000
ENDCHAR

STARTCHAR Cb0c1
ENCODING 45249
SWIDTH 1000 0
DWIDTH 12 0
BBX 12 12 0 -2
BITMAP
0000
2100
2280
7440
1820
17C0
2000
77C0
2440
2440
27C0
0000
ENDCHAR

STARTCHAR Cb0c2
ENCODING 45250
SWIDTH 1000 0
DWIDTH 12 0
BBX 12 12 0 -2
BITMAP
0000
0400
7FE0
4020
0400
7FE0
0880
3880
0700
0CC0
7020
0000
ENDCHAR

STARTCHAR Cb0c3
ENCODING 45251
SWIDTH 1000 0
DWIDTH 12 0
BBX 12 12 0 -2
BITMAP
0000
0200
3FE0
2200
3FE0
2480
2FC0
3AA0
2F80
2220
43E0
0000
ENDCHAR

STARTCHAR Cb0c4
ENCODING 45252
SWIDTH 1000 0
DWIDTH 12 0
BBX 12 12 0 -2
BITMAP
0000
1100
17E0
7C20
1100
17E0
1940
7240
1280
1180
3660
0000
ENDCHAR

STARTCHAR Cb0c5
ENCODING 45253
SWIDTH 1000 0
DWIDTH 12 0
BBX 12 12 0 -2
BITMAP
0000
0100
77C0
5280
5FE0
7000
57C0
5440
77C0
0440
07C0
0000
ENDCHAR

STARTCHAR Cb0c6
ENCODING 45254
SWIDTH 1000 0
DWIDTH 12 0
BBX 12 12 0 -2
BITMAP
0000
0400
7FE0
5120
3900
0600
39C0
0400
7FE0
1480
6460
0000
ENDCHAR

STARTCHAR Cb0c7
ENCODING 45255
SWIDTH 1000 0
DWIDTH 12 0
BBX 12 12 0 -2
BITMAP
0000
79E0
4920
79E0
4420
5F20
4A20
7FA0
5120
5120
5F60
0000
ENDCHAR

STARTCHAR Cb0c8
ENCODING 45256
SWIDTH 1000 0
DWIDTH 12 0
BBX 12 12 0 -2
BITMAP
0000
2880
7FE0
2A20
3880
13E0
7D40
5540
7F80
10C0
1320
0000
ENDCHAR

STARTCHAR Cb0c9
ENCODING 45257
SWIDTH 1000 0
DWIDTH 12 0
BBX 12 12 0 -2
BITMAP
0000
0400
7FE0
1500
1480
2460
4000
3F80
2080
2080
3F80
0000
ENDCHAR

STARTCHAR Cb0ca
ENCODING 45258
SWIDTH 1000 0
DWIDTH 12 0
BBX 12 12 0 -2
BITMAP
0000
0040
1440
1240
1240
1040
1040
1080
1C80
6140
0620
0000
ENDCHAR

STARTCHAR Cb0cb
ENCODING 45259
SWIDTH 1000 0
DWIDTH 12 0
BBX 12 12 0 -2
BITMAP
0000
1000
17C0
1140
2FE0
2140
6140
27C0
2100
2100
2600
0000
ENDCHAR

STARTCHAR Cb0cc
ENCODING 45260
SWIDTH 1000 0
DWIDTH 12 0
BBX 12 12 0 -2
BITMAP
0000
1100
1100
1FE0
2000
2440
6440
2240
2280
2080
2FE0
0000
ENDCHAR

STARTCHAR Cb0cd
ENCODING 45261
SWIDTH 1000 0
DWIDTH 12 0
BBX 12 12 0 -2
BITMAP
0000
1100
1100
1FE0
2280
24A0
6CC0
3480
2440
2740
2C20
0000
ENDCHAR

STARTCHAR Cb0ce
ENCODING 45262
SWIDTH 1000 0
DWIDTH 12 0
BBX 12 12 0 -2
BITMAP
0000
1100
17C0
1240
2FE0
2440
67C0
2280
2FE0
2080
2080
0000
ENDCHAR

STARTCHAR Cb0cf
ENCODING 45263
SWIDTH 1000 0
DWIDTH 12 0
BBX 12 12 0 -2
BITMAP
0000
7FC0
4040
4A40
5F40
4A40
4A40
5F40
4A40
5240
7FC0
0000
ENDCHAR

STARTCHAR Cb0d0
ENCODING 45264
SWIDTH 1000 0
DWIDTH 12 0
BBX 12 12 0 -2
BITMAP
0000
0400
7FE0
0400
3F80
0480
3F80
2400
3FC0
0A40
71E0
0000
ENDCHAR

STARTCHAR Cb0d1
ENCODING 45265
SWIDTH 1000 0
DWIDTH 12 0
BBX 12 12 0 -2
BITMAP
0000
3FC0
0400
7FE0
1500
64E0
0800
7FE0
1100
0E00
71E0
0000
ENDCHAR

STARTCHAR Cb0d2
ENCODING 45266
SWIDTH 1000 0
DWIDTH 12 0
BBX 12 12 0 -2
BITMAP
0000
00A0
3FE0
2080
3E80
24A0
3EA0
2A40
2A40
4CA0
3320
0000
ENDCHAR

STARTCHAR Cb0d3
ENCODING 45267
SWIDTH 1000 0
DWIDTH 12 0
BBX 12 12 0 -2
BITMAP
0000
0040
3E40
2240
3FE0
2040
3D40
20C0
3E40
4840
5AC0
0000
ENDCHAR

STARTCHAR Cb0d4
ENCODING 45268
SWIDTH 1000 0
DWIDTH 12 0
BBX 12 12 0 -2
BITMAP
0000
1240
1480
17E0
5C80
57C0
1480
17C0
1480
1480
17E0
0000
ENDCHAR

STARTCHAR Cb0d5
ENCODING 45269
SWIDTH 1000 0
DWIDTH 12 0
BBX 12 12 0 -2
BITMAP
0000
0400
3FC0
0900
7FE0
1080
1F80
1080
1F80
2940
4FA0
0000
ENDCHAR

STARTCHAR Cb0d6
ENCODING 45270
SWIDTH 1000 0
DWIDTH 12 0
BBX 12 12 0 -2
BITMAP
0000
3C40
27E0
3C40
2240
3D40
4840
28C0
0400
2940
4F20
0000
ENDCHAR

STARTCHAR Cb0d7
ENCODING 45271
SWIDTH 1000 0
DWIDTH 12 0
BBX 12 12 0 -2
BITMAP
0000
3FC0
2040
3FC0
2040
3FC0
1000
1FE0
24A0
4920
12C0
0000
ENDCHAR

STARTCHAR Cb0d8
ENCODING 45272
SWIDTH 1000 0
DWIDTH 12 0
BBX 12 12 0 -2
BITMAP
0000
1100
17C0
7A80
1440
1FE0
3040
5F40
5540
5740
10C0
0000
ENDCHAR

STARTCHAR Cb0d9
ENCODING 45273
SWIDTH 1000 0
DWIDTH 12 0
BBX 12 12 0 -2
BITMAP
0000
2200
1400
7F80
0880
1FC0
1040
3FE0
4020
2A20
4AC0
0000
ENDCHAR

STARTCHAR Cb0da
ENCODING 45274
SWIDTH 1000 0
DWIDTH 12 0
BBX 12 12 0 -2
BITMAP
0000
3FC0
2440
3FC0
2440
3FC0
0000
7FE0
1240
1180
7C60
0000
ENDCHAR

STARTCHAR Cb0db
ENCODING 45275
SWIDTH 1000 0
DWIDTH 12 0
BBX 12 12 0 -2
BITMAP
0000
3F80
2480
3F80
2480
2480
7FC0
1100
7FE0
1100
60E0
0000
ENDCHAR

STARTCHAR Cb0dc
ENCODING 45276
SWIDTH 1000 0
DWIDTH 12 0
BBX 12 12 0 -2
BITMAP
0000
09C0
7640
1140
1080
7B00
10E0
3320
58A0
5040
1380
0000
ENDCHAR

STARTCHAR Cb0dd
ENCODING 45277
SWIDTH 1000 0
DWIDTH 12 0
BBX 12 12 0 -2
BITMAP
0000
1140
2280
6BE0
1680
23C0
7E80
13C0
5A80
5280
13E0
0000
ENDCHAR

STARTCHAR Cb0de
ENCODING 45278
SWIDTH 1000 0
DWIDTH 12 0
BBX 12 12 0 -2
BITMAP
0000
1080
23C0
6940
17E0
2240
7FE0
1280
5FE0
5080
1080
0000
ENDCHAR

STARTCHAR Cb0df
ENCODING 45279
SWIDTH 1000 0
DWIDTH 12 0
BBX 12 12 0 -2
BITMAP
0000
3FC0
2440
3FC0
2440
3FC0
1080
1F80
1080
1F80
1080
0000
ENDCHAR

STARTCHAR Cb0e0
ENCODING 45280
SWIDTH 1000 0
DWIDTH 12 0
BBX 12 12 0 -2
BITMAP
0000
1080
7FE0
1480
7FE0
1500
2480
7FE0
0900
0E00
71C0
0000
ENDCHAR

STARTCHAR Cb0e1
ENCODING 45281
SWIDTH 1000 0
DWIDTH 12 0
BBX 12 12 0 -2
BITMAP
0000
0400
0400
7FE0
0A00
1240
3280
5100
1100
1C80
6060
0000
ENDCHAR

STARTCHAR Cb0e2
ENCODING 45282
SWIDTH 1000 0
DWIDTH 12 0
BBX 12 12 0 -2
BITMAP
0000
77E0
0520
7FE0
0520
77E0
0240
73C0
5240
53C0
7240
0000
ENDCHAR

STARTCHAR Cb0e3
ENCODING 45283
SWIDTH 1000 0
DWIDTH 12 0
BBX 12 12 0 -2
BITMAP
0000
4100
27C0
2240
0FE0
0440
67E0
2280
2FE0
2080
5FE0
0000
ENDCHAR

STARTCHAR Cb0e4
ENCODING 45284
SWIDTH 1000 0
DWIDTH 12 0
BBX 12 12 0 -2
BITMAP
0000
4100
27C0
2540
0FE0
0440
67C0
2440
27C0
2280
5FE0
0000
ENDCHAR

STARTCHAR Cb0e5
ENCODING 45285
SWIDTH 1000 0
DWIDTH 12 0
BBX 12 12 0 -2
BITMAP
0000
0000
7FC0
4800
4F80
5200
4200
5FC0
4500
4880
7FC0
0000
ENDCHAR

STARTCHAR Cb0e6
ENCODING 45286
SWIDTH 1000 0
DWIDTH 12 0
BBX 12 12 0 -2
BITMAP
0000
0880
0880
3FE0
0880
0880
0880
7FE0
0880
1080
2080
0000
ENDCHAR

STARTCHAR Cb0e7
ENCODING 45287
SWIDTH 1000 0
DWIDTH 12 0
BBX 12 12 0 -2
BITMAP
0000
0200
7FE0
0200
1480
0D00
0240
0C80
7100
06C0
3820
0000
ENDCHAR

STARTCHAR Cb0e8
ENCODING 45288
SWIDTH 1000 0
DWIDTH 12 0
BBX 12 12 0 -2
BITMAP
0000
20A0
2080
2FE0
7080
2EA0
2AA0
2E40
3340
4CA0
0120
0000
ENDCHAR

STARTCHAR Cb0e9
ENCODING 45289
SWIDTH 1000 0
DWIDTH 12 0
BBX 12 12 0 -2
BITMAP
0000
0400
7FE0
1080
3F40
0000
1F80
1080
1F80
1080
1180
0000
ENDCHAR

STARTCHAR Cb0ea
ENCODING 45290
SWIDTH 1000 0
DWIDTH 12 0
BBX 12 12 0 -2
BITMAP
0000
11E0
7D20
1120
3D40
6520
3D20
2520
3DC0
2500
2D00
0000
ENDCHAR

STARTCHAR Cb0eb
ENCODING 45291
SWIDTH 1000 0
DWIDTH 12 0
BBX 12 12 0 -2
BITMAP
0000
04A0
7AC0
14A0
26E0
3880
6BE0
2A80
2AA0
3A40
04A0
0000
ENDCHAR

STARTCHAR Cb0ec
ENCODING 45292
SWIDTH 1000 0
DWIDTH 12 0
BBX 12 12 0 -2
BITMAP
0000
0000
0000
0000
0000
0000
7FE0
0000
0000
0000
0000
0000
ENDCHAR

STARTCHAR Cb0ed
ENCODING 45293
SWIDTH 1000 0
DWIDTH 12 0
BBX 12 12 0 -2
BITMAP
0000
0400
7FE0
0400
3FC0
0000
7FE0
5120
1E00
1040
1FC0
0000
ENDCHAR

STARTCHAR Cb0ee
ENCODING 45294
SWIDTH 1000 0
DWIDTH 12 0
BBX 12 12 0 -2
BITMAP
0000
4440
2280
0FE0
4280
2440
0820
27C0
2540
4540
4FE0
0000
ENDCHAR

STARTCHAR Cb0ef
ENCODING 45295
SWIDTH 1000 0
DWIDTH 12 0
BBX 12 12 0 -2
BITMAP
0000
4380
2500
2FC0
1A40
0A40
6FC0
2520
29E0
2000
5FE0
0000
ENDCHAR

STARTCHAR Cb0f0
ENCODING 45296
SWIDTH 1000 0
DWIDTH 12 0
BBX 12 12 0 -2
BITMAP
0000
0860
7780
1520
12A0
7800
12E0
32A0
5AE0
52A0
12E0
0000
ENDCHAR

STARTCHAR Cb0f1
ENCODING 45297
SWIDTH 1000 0
DWIDTH 12 0
BBX 12 12 0 -2
BITMAP
0000
1100
7FE0
1100
4400
27E0
0520
2940
2100
4280
4C60
0000
ENDCHAR

STARTCHAR Cb0f2
ENCODING 45298
SWIDTH 1000 0
DWIDTH 12 0
BBX 12 12 0 -2
BITMAP
0000
0880
7FE0
0880
3FC0
0200
0200
7FE0
0200
0200
0E00
0000
ENDCHAR

STARTCHAR Cb0f3
ENCODING 45299
SWIDTH 1000 0
DWIDTH 12 0
BBX 12 12 0 -2
BITMAP
0000
3B60
4920
1360
7A40
4B60
4920
7DA0
0360
55A0
5360
0000
ENDCHAR

STARTCHAR Cb0f4
ENCODING 45300
SWIDTH 1000 0
DWIDTH 12 0
BBX 12 12 0 -2
BITMAP
0000
0400
0400
0880
1040
7FA0
0020
0900
0900
1120
61E0
0000
ENDCHAR

STARTCHAR Cb0f5
ENCODING 45301
SWIDTH 1000 0
DWIDTH 12 0
BBX 12 12 0 -2
BITMAP
0000
1800
63C0
4240
4240
7A40
4240
4240
7AC0
4200
0200
0000
ENDCHAR

STARTCHAR Cb0f6
ENCODING 45302
SWIDTH 1000 0
DWIDTH 12 0
BBX 12 12 0 -2
BITMAP
0000
0000
07E0
7520
5520
57E0
5520
56A0
7460
0420
07E0
0000
ENDCHAR

STARTCHAR Cb0f7
ENCODING 45303
SWIDTH 1000 0
DWIDTH 12 0
BBX 12 12 0 -2
BITMAP
0000
1F80
1080
3FC0
2040
3FC0
2040
2040
3FC0
0900
70E0
0000
ENDCHAR

STARTCHAR Cb0f8
ENCODING 45304
SWIDTH 1000 0
DWIDTH 12 0
BBX 12 12 0 -2
BITMAP
0000
7FC0
4440
4440
5F40
4440
4440
4A40
5140
4040
7FC0
0000
ENDCHAR

STARTCHAR Cb0f9
ENCODING 45305
SWIDTH 1000 0
DWIDTH 12 0
BBX 12 12 0 -2
BITMAP
0000
2000
2FE0
7920
2920
2FE0
4920
6AA0
1C60
2820
4FE0
0000
ENDCHAR

STARTCHAR Cb0fa
ENCODING 45306
SWIDTH 1000 0
DWIDTH 12 0
BBX 12 12 0 -2
BITMAP
0000
0040
3E40
0240
0240
3E40
2040
3E40
0240
0240
3C40
0000
ENDCHAR

STARTCHAR Cb0fb
ENCODING 45307
SWIDTH 1000 0
DWIDTH 12 0
BBX 12 12 0 -2
BITMAP
0000
1100
2900
55E0
3AA0
2A80
2880
3880
2140
2940
7620
0000
ENDCHAR

STARTCHAR Cb0fc
ENCODING 45308
SWIDTH 1000 0
DWIDTH 12 0
BBX 12 12 0 -2
BITMAP
0000
4060
2F80
0A20
4540
2060
0780
2100
2FE0
4100
47C0
0000
ENDCHAR

STARTCHAR Cb0fd
ENCODING 45309
SWIDTH 1000 0
DWIDTH 12 0
BBX 12 12 0 -2
BITMAP
0000
2480
2A80
2480
2A80
3F80
2A80
2E80
2AA0
4EA0
4AE0
0000
ENDCHAR

STARTCHAR Cb0fe
ENCODING 45310
SWIDTH 1000 0
DWIDTH 12 0
BBX 12 12 0 -2
BITMAP
0000
0900
7FE0
0900
7280
5440
6BA0
5080
57E0
6240
47A0
0000
ENDCHAR

STARTCHAR Cb1a1
ENCODING 45473
SWIDTH 1000 0
DWIDTH 12 0
BBX 12 12 0 -2
BITMAP
0000
7100
57E0
5420
63C0
5000
57E0
5280
6280
44A0
48E0
0000
ENDCHAR

STARTCHAR Cb1a2
ENCODING 45474
SWIDTH 1000 0
DWIDTH 12 0
BBX 12 12 0 -2
BITMAP
0000
7100
5280
57C0
68A0
5100
57C0
5000
6FE0
4440
4FA0
0000
ENDCHAR

STARTCHAR Cb1a3
ENCODING 45475
SWIDTH 1000 0
DWIDTH 12 0
BBX 12 12 0 -2
BITMAP
0000
7060
57A0
52A0
67C0
5040
57C0
5040
67C0
4A20
53A0
0000
ENDCHAR

STARTCHAR Cb1a4
ENCODING 45476
SWIDTH 1000 0
DWIDTH 12 0
BBX 12 12 0 -2
BITMAP
0000
11C0
7D40
2BE0
7E20
03E0
7A20
4A20
7BE0
4940
7A20
0000
ENDCHAR

STARTCHAR Cb1a5
ENCODING 45477
SWIDTH 1000 0
DWIDTH 12 0
BBX 12 12 0 -2
BITMAP
0000
0040
7840
4FE0
4840
4A40
4940
4940
7840
0040
01C0
0000
ENDCHAR

STARTCHAR Cb1a6
ENCODING 45478
SWIDTH 1000 0
DWIDTH 12 0
BBX 12 12 0 -2
BITMAP
0000
0400
0400
7FE0
0800
0800
1FC0
3040
5040
1040
1FC0
0000
ENDCHAR

STARTCHAR Cb1a7
ENCODING 45479
SWIDTH 1000 0
DWIDTH 12 0
BBX 12 12 0 -2
BITMAP
0000
0400
7FE0
4020
1F80
0200
0200
7FE0
0200
0200
0E00
0000
ENDCHAR

STARTCHAR Cb1a8
ENCODING 45480
SWIDTH 1000 0
DWIDTH 12 0
BBX 12 12 0 -2
BITMAP
0000
0400
3F80
2080
3F80
2000
3FE0
2000
3FE0
2020
4AC0
0000
ENDCHAR

STARTCHAR Cb1a9
ENCODING 45481
SWIDTH 1000 0
DWIDTH 12 0
BBX 12 12 0 -2
BITMAP
0000
7DE0
0420
4620
2520
2520
0C60
14A0
6720
0420
1CE0
0000
ENDCHAR

STARTCHAR Cb1aa
ENCODING 45482
SWIDTH 1000 0
DWIDTH 12 0
BBX 12 12 0 -2
BITMAP
0000
47C0
2100
2100
0FE0
0100
6100
2100
2700
2000
5FE0
0000
ENDCHAR

STARTCHAR Cb1ab
ENCODING 45483
SWIDTH 1000 0
DWIDTH 12 0
BBX 12 12 0 -2
BITMAP
0000
7FE0
0400
0400
7FE0
5520
4CA0
4420
5520
4CA0
4460
0000
ENDCHAR

STARTCHAR Cb1ac
ENCODING 45484
SWIDTH 1000 0
DWIDTH 12 0
BBX 12 12 0 -2
BITMAP
0000
0400
39E0
2120
2520
2520
2520
3D20
6560
0900
3100
0000
ENDCHAR

STARTCHAR Cb1ad
ENCODING 45485
SWIDTH 1000 0
DWIDTH 12 0
BBX 12 12 0 -2
BITMAP
0000
2880
7DC0
1540
7DC0
5140
7DE0
1500
35E0
5020
1560
0000
ENDCHAR

STARTCHAR Cb1ae
ENCODING 45486
SWIDTH 1000 0
DWIDTH 12 0
BBX 12 12 0 -2
BITMAP
0000
0400
7FE0
4A20
13C0
7C40
17C0
7C40
17C0
2AA0
44E0
0000
ENDCHAR

STARTCHAR Cb1af
ENCODING 45487
SWIDTH 1000 0
DWIDTH 12 0
BBX 12 12 0 -2
BITMAP
0000
0000
1F80
0480
0480
0480
3FE0
0880
0880
0880
7FE0
0000
ENDCHAR

STARTCHAR Cb1b0
ENCODING 45488
SWIDTH 1000 0
DWIDTH 12 0
BBX 12 12 0 -2
BITMAP
0000
0140
7A80
13E0
2680
3BC0
6A80
2BC0
2A80
3A80
03E0
0000
ENDCHAR

STARTCHAR Cb1b1
ENCODING 45489
SWIDTH 1000 0
DWIDTH 12 0
BBX 12 12 0 -2
BITMAP
0000
0800
73C0
4040
4040
4040
73C0
4040
4040
4040
7FC0
0000
ENDCHAR

STARTCHAR Cb1b2
ENCODING 45490
SWIDTH 1000 0
DWIDTH 12 0
BBX 12 12 0 -2
BITMAP
0000
47C0
2440
05C0
4540
2FE0
0820
2BA0
2AA0
4BA0
4860
0000
ENDCHAR

STARTCHAR Cb1b3
ENCODING 45491
SWIDTH 1000 0
DWIDTH 12 0
BBX 12 12 0 -2
BITMAP
0000
0200
73C0
5200
5FE0
5420
5780
5000
7AA0
1280
2FE0
0000
ENDCHAR

STARTCHAR Cb1b4
ENCODING 45492
SWIDTH 1000 0
DWIDTH 12 0
BBX 12 12 0 -2
BITMAP
0000
07C0
7440
57C0
5440
57C0
5440
5440
77C0
0280
0C60
0000
ENDCHAR

STARTCHAR Cb1b5
ENCODING 45493
SWIDTH 1000 0
DWIDTH 12 0
BBX 12 12 0 -2
BITMAP
0000
2A80
75E0
2A80
7FE0
4920
7FE0
2840
3BE0
2940
74C0
0000
ENDCHAR

STARTCHAR Cb1b6
ENCODING 45494
SWIDTH 1000 0
DWIDTH 12 0
BBX 12 12 0 -2
BITMAP
0000
0880
7FE0
0880
3C40
27E0
3C40
2240
3D40
4840
2AC0
0000
ENDCHAR

STARTCHAR Cb1b7
ENCODING 45495
SWIDTH 1000 0
DWIDTH 12 0
BBX 12 12 0 -2
BITMAP
0000
3BC0
4A40
13C0
7A40
4FE0
4AA0
7FE0
0240
5180
5660
0000
ENDCHAR

STARTCHAR Cb1b8
ENCODING 45496
SWIDTH 1000 0
DWIDTH 12 0
BBX 12 12 0 -2
BITMAP
0000
2120
23A0
7940
2FE0
2880
4920
6BC0
1500
2920
41E0
0000
ENDCHAR

STARTCHAR Cb1b9
ENCODING 45497
SWIDTH 1000 0
DWIDTH 12 0
BBX 12 12 0 -2
BITMAP
0000
3FE0
2000
2FE0
2940
2F40
29E0
2F40
2840
2AC0
5D60
0000
ENDCHAR

STARTCHAR Cb1ba
ENCODING 45498
SWIDTH 1000 0
DWIDTH 12 0
BBX 12 12 0 -2
BITMAP
0000
4140
2FE0
0100
4FE0
2920
0FE0
2920
2FE0
4920
4960
0000
ENDCHAR

STARTCHAR Cb1bb
ENCODING 45499
SWIDTH 1000 0
DWIDTH 12 0
BBX 12 12 0 -2
BITMAP
0000
01C0
3E80
2480
2480
2480
2440
2440
2540
47A0
58A0
0000
ENDCHAR

STARTCHAR Cb1bc
ENCODING 45500
SWIDTH 1000 0
DWIDTH 12 0
BBX 12 12 0 -2
BITMAP
0000
79E0
4920
79E0
4020
5FA0
4420
4F20
4420
5FA0
4060
0000
ENDCHAR

STARTCHAR Cb1bd
ENCODING 45501
SWIDTH 1000 0
DWIDTH 12 0
BBX 12 12 0 -2
BITMAP
0000
0880
7FE0
5500
5FC0
5540
59C0
5040
7FE0
0880
0580
0000
ENDCHAR

STARTCHAR Cb1be
ENCODING 45502
SWIDTH 1000 0
DWIDTH 12 0
BBX 12 12 0 -2
BITMAP
0000
0000
3FC0
0000
0000
7FE0
0800
0880
1040
1020
7FE0
0000
ENDCHAR

STARTCHAR Cb1bf
ENCODING 45503
SWIDTH 1000 0
DWIDTH 12 0
BBX 12 12 0 -2
BITMAP
0000
4FE0
2920
2FE0
0540
07C0
6540
2540
2FE0
2100
5FE0
0000
ENDCHAR

STARTCHAR Cb1c0
ENCODING 45504
SWIDTH 1000 0
DWIDTH 12 0
BBX 12 12 0 -2
BITMAP
0000
3FC0
0400
7FE0
5520
0400
3FC0
0000
7FE0
1040
7FA0
0000
ENDCHAR

STARTCHAR Cb1c1
ENCODING 45505
SWIDTH 1000 0
DWIDTH 12 0
BBX 12 12 0 -2
BITMAP
0000
0900
7FE0
0900
1060
2F80
6100
2FE0
2100
2100
2FE0
0000
ENDCHAR

STARTCHAR Cb1c2
ENCODING 45506
SWIDTH 1000 0
DWIDTH 12 0
BBX 12 12 0 -2
BITMAP
0000
1000
2FE0
5240
3BC0
2A40
2BC0
3A40
2260
2BC0
7440
0000
ENDCHAR

STARTCHAR Cb1c3
ENCODING 45507
SWIDTH 1000 0
DWIDTH 12 0
BBX 12 12 0 -2
BITMAP
0000
1800
13E0
7D20
4520
2940
5540
2880
7C80
2940
3A20
0000
ENDCHAR

STARTCHAR Cb1c4
ENCODING 45508
SWIDTH 1000 0
DWIDTH 12 0
BBX 12 12 0 -2
BITMAP
0000
4840
2480
7FE0
5120
1F00
0400
3FC0
2040
2040
3FC0
0000
ENDCHAR

STARTCHAR Cb1c5
ENCODING 45509
SWIDTH 1000 0
DWIDTH 12 0
BBX 12 12 0 -2
BITMAP
0000
3DE0
2520
3DE0
2520
3DC0
4520
7FE0
0880
0F00
70E0
0000
ENDCHAR

STARTCHAR Cb1c6
ENCODING 45510
SWIDTH 1000 0
DWIDTH 12 0
BBX 12 12 0 -2
BITMAP
0000
3C40
2580
3C00
2420
7E40
2580
3C00
0820
2A40
5980
0000
ENDCHAR

STARTCHAR Cb1c7
ENCODING 45511
SWIDTH 1000 0
DWIDTH 12 0
BBX 12 12 0 -2
BITMAP
0000
0100
7100
57C0
5540
7540
5540
5FE0
7100
0280
0C60
0000
ENDCHAR

STARTCHAR Cb1c8
ENCODING 45512
SWIDTH 1000 0
DWIDTH 12 0
BBX 12 12 0 -2
BITMAP
0000
0400
0400
3FC0
2440
3FC0
2440
3FC0
0480
0320
7CE0
0000
ENDCHAR

STARTCHAR Cb1c9
ENCODING 45513
SWIDTH 1000 0
DWIDTH 12 0
BBX 12 12 0 -2
BITMAP
0000
2440
1280
7FE0
4420
0400
7FE0
1500
1480
2440
4420
0000
ENDCHAR

STARTCHAR Cb1ca
ENCODING 45514
SWIDTH 1000 0
DWIDTH 12 0
BBX 12 12 0 -2
BITMAP
0000
1F00
0000
3E20
02C0
7B00
0A80
1280
2240
4220
0E00
0000
ENDCHAR

STARTCHAR Cb1cb
ENCODING 45515
SWIDTH 1000 0
DWIDTH 12 0
BBX 12 12 0 -2
BITMAP
0000
4780
2000
0720
4140
2D40
0580
2540
2940
4920
5320
0000
ENDCHAR

STARTCHAR Cb1cc
ENCODING 45516
SWIDTH 1000 0
DWIDTH 12 0
BBX 12 12 0 -2
BITMAP
0000
4100
2FE0
0920
4FE0
2920
0FE0
2120
2140
40A0
4F60
0000
ENDCHAR

STARTCHAR Cb1cd
ENCODING 45517
SWIDTH 1000 0
DWIDTH 12 0
BBX 12 12 0 -2
BITMAP
0000
0440
7FE0
2440
2100
77C0
2540
2FE0
3100
6280
0C60
0000
ENDCHAR

STARTCHAR Cb1ce
ENCODING 45518
SWIDTH 1000 0
DWIDTH 12 0
BBX 12 12 0 -2
BITMAP
0000
7F80
1080
1EE0
2A20
2420
4AC0
0000
3FC0
2940
7FE0
0000
ENDCHAR

STARTCHAR Cb1cf
ENCODING 45519
SWIDTH 1000 0
DWIDTH 12 0
BBX 12 12 0 -2
BITMAP
0000
73E0
4900
7BE0
0620
7BE0
1220
7E20
13E0
3940
5620
0000
ENDCHAR

STARTCHAR Cb1d0
ENCODING 45520
SWIDTH 1000 0
DWIDTH 12 0
BBX 12 12 0 -2
BITMAP
0000
73E0
4900
7BE0
0220
3BE0
0220
7E20
13E0
3540
5220
0000
ENDCHAR

STARTCHAR Cb1d1
ENCODING 45521
SWIDTH 1000 0
DWIDTH 12 0
BBX 12 12 0 -2
BITMAP
0000
1080
7FE0
1080
0400
3FC0
2440
2440
7FE0
0900
70E0
0000
ENDCHAR

STARTCHAR Cb1d2
ENCODING 45522
SWIDTH 1000 0
DWIDTH 12 0
BBX 12 12 0 -2
BITMAP
0000
1400
2F60
4500
1FE0
2940
6F40
2A40
3F40
2240
22C0
0000
ENDCHAR

STARTCHAR Cb1d3
ENCODING 45523
SWIDTH 1000 0
DWIDTH 12 0
BBX 12 12 0 -2
BITMAP
0000
7380
0000
7720
0140
6D40
0580
7540
5540
5920
7320
0000
ENDCHAR

STARTCHAR Cb1d4
ENCODING 45524
SWIDTH 1000 0
DWIDTH 12 0
BBX 12 12 0 -2
BITMAP
0000
1220
2940
43E0
3A20
1220
7BE0
1140
5540
1940
6260
0000
ENDCHAR

STARTCHAR Cb1d5
ENCODING 45525
SWIDTH 1000 0
DWIDTH 12 0
BBX 12 12 0 -2
BITMAP
0000
4100
2FE0
0480
44E0
2920
1AA0
2D40
2880
4940
4A20
0000
ENDCHAR

STARTCHAR Cb1d6
ENCODING 45526
SWIDTH 1000 0
DWIDTH 12 0
BBX 12 12 0 -2
BITMAP
0000
0200
1FE0
5000
37A0
14E0
3800
57C0
2240
2180
4E60
0000
ENDCHAR

STARTCHAR Cb1d7
ENCODING 45527
SWIDTH 1000 0
DWIDTH 12 0
BBX 12 12 0 -2
BITMAP
0000
1080
0900
7FE0
1080
2040
4020
3FC0
2A40
2A40
7FE0
0000
ENDCHAR

STARTCHAR Cb1d8
ENCODING 45528
SWIDTH 1000 0
DWIDTH 12 0
BBX 12 12 0 -2
BITMAP
0000
7BE0
5220
7A20
5220
7BE0
5280
7A80
0A40
4A40
5C20
0000
ENDCHAR

STARTCHAR Cb1d9
ENCODING 45529
SWIDTH 1000 0
DWIDTH 12 0
BBX 12 12 0 -2
BITMAP
0000
1440
1280
17E0
5C20
5420
57E0
1280
1280
14A0
18E0
0000
ENDCHAR

STARTCHAR Cb1da
ENCODING 45530
SWIDTH 1000 0
DWIDTH 12 0
BBX 12 12 0 -2
BITMAP
0000
77C0
0440
7C40
07C0
7200
07E0
7C20
5720
5420
7760
0000
ENDCHAR

STARTCHAR Cb1db
ENCODING 45531
SWIDTH 1000 0
DWIDTH 12 0
BBX 12 12 0 -2
BITMAP
0000
10A0
3BE0
1280
7EA0
12A0
1240
5B40
56A0
7000
4FE0
0000
ENDCHAR

STARTCHAR Cb1dc
ENCODING 45532
SWIDTH 1000 0
DWIDTH 12 0
BBX 12 12 0 -2
BITMAP
0000
79E0
4920
79E0
4020
4A20
5F20
5120
5F20
4AA0
53A0
0000
ENDCHAR

STARTCHAR Cb1dd
ENCODING 45533
SWIDTH 1000 0
DWIDTH 12 0
BBX 12 12 0 -2
BITMAP
0000
17E0
1100
7BC0
1240
13C0
3A40
53C0
5640
5180
1660
0000
ENDCHAR

STARTCHAR Cb1de
ENCODING 45534
SWIDTH 1000 0
DWIDTH 12 0
BBX 12 12 0 -2
BITMAP
0000
3FE0
2480
3CC0
20A0
3FE0
2480
3C80
2540
3D40
4620
0000
ENDCHAR

STARTCHAR Cb1df
ENCODING 45535
SWIDTH 1000 0
DWIDTH 12 0
BBX 12 12 0 -2
BITMAP
0000
0000
7FC0
4440
4440
4440
7FC0
4040
4040
4040
41C0
0000
ENDCHAR

STARTCHAR Cb1e0
ENCODING 45536
SWIDTH 1000 0
DWIDTH 12 0
BBX 12 12 0 -2
BITMAP
0000
7FC0
4840
5E40
4840
7F40
5440
5D40
6A40
4940
7FC0
0000
ENDCHAR

STARTCHAR Cb1e1
ENCODING 45537
SWIDTH 1000 0
DWIDTH 12 0
BBX 12 12 0 -2
BITMAP
0000
2FE0
2A40
7A40
2BC0
2900
2FE0
3A40
4980
0A40
0FE0
0000
ENDCHAR

STARTCHAR Cb1e2
ENCODING 45538
SWIDTH 1000 0
DWIDTH 12 0
BBX 12 12 0 -2
BITMAP
0000
0400
7FE0
0900
1F80
34C0
5FA0
1480
1F80
0420
07E0
0000
ENDCHAR

STARTCHAR Cb1e3
ENCODING 45539
SWIDTH 1000 0
DWIDTH 12 0
BBX 12 12 0 -2
BITMAP
0000
0400
7FE0
50A0
1080
1F80
0400
7FE0
0880
0F00
70E0
0000
ENDCHAR

STARTCHAR Cb1e4
ENCODING 45540
SWIDTH 1000 0
DWIDTH 12 0
BBX 12 12 0 -2
BITMAP
0000
00C0
7700
1100
2100
45C0
7500
1500
57C0
2000
5FE0
0000
ENDCHAR

STARTCHAR Cb1e5
ENCODING 45541
SWIDTH 1000 0
DWIDTH 12 0
BBX 12 12 0 -2
BITMAP
0000
1000
1DC0
2540
5500
0920
11E0
6400
0A40
28A0
4FA0
0000
ENDCHAR

STARTCHAR Cb1e6
ENCODING 45542
SWIDTH 1000 0
DWIDTH 12 0
BBX 12 12 0 -2
BITMAP
0000
2100
2FE0
7280
27C0
2D60
37C0
6540
27C0
2120
61E0
0000
ENDCHAR

STARTCHAR Cb1e7
ENCODING 45543
SWIDTH 1000 0
DWIDTH 12 0
BBX 12 12 0 -2
BITMAP
0000
20C0
2F20
7540
2000
2FE0
3200
6FC0
2540
2880
7360
0000
ENDCHAR

STARTCHAR Cb1e8
ENCODING 45544
SWIDTH 1000 0
DWIDTH 12 0
BBX 12 12 0 -2
BITMAP
0000
4280
2280
0440
4440
2820
07C0
2440
2440
4440
47C0
0000
ENDCHAR

STARTCHAR Cb1e9
ENCODING 45545
SWIDTH 1000 0
DWIDTH 12 0
BBX 12 12 0 -2
BITMAP
0000
4100
2FE0
0820
47C0
2100
0FE0
2920
2FE0
4280
4C60
0000
ENDCHAR

STARTCHAR Cb1ea
ENCODING 45546
SWIDTH 1000 0
DWIDTH 12 0
BBX 12 12 0 -2
BITMAP
0000
0200
0A20
3240
0500
38E0
0200
0A40
3280
0500
78E0
0000
ENDCHAR

STARTCHAR Cb1eb
ENCODING 45547
SWIDTH 1000 0
DWIDTH 12 0
BBX 12 12 0 -2
BITMAP
0000
1100
11E0
1A20
5440
5080
15E0
1520
2DE0
2520
45E0
0000
ENDCHAR

STARTCHAR Cb1ec
ENCODING 45548
SWIDTH 1000 0
DWIDTH 12 0
BBX 12 12 0 -2
BITMAP
0000
2FE0
2280
3FE0
6AA0
2AA0
2FE0
2100
57C0
5100
4FE0
0000
ENDCHAR

STARTCHAR Cb1ed
ENCODING 45549
SWIDTH 1000 0
DWIDTH 12 0
BBX 12 12 0 -2
BITMAP
0000
1100
7FE0
1100
3FA0
6AC0
2A80
6EE0
0000
2A40
4920
0000
ENDCHAR

STARTCHAR Cb1ee
ENCODING 45550
SWIDTH 1000 0
DWIDTH 12 0
BBX 12 12 0 -2
BITMAP
0000
1100
57C0
2100
2FE0
5440
17C0
3280
56A0
1A40
6720
0000
ENDCHAR

STARTCHAR Cb1ef
ENCODING 45551
SWIDTH 1000 0
DWIDTH 12 0
BBX 12 12 0 -2
BITMAP
0000
13C0
2040
6BC0
1040
27E0
7940
1660
5940
56A0
11A0
0000
ENDCHAR

STARTCHAR Cb1f0
ENCODING 45552
SWIDTH 1000 0
DWIDTH 12 0
BBX 12 12 0 -2
BITMAP
0000
2880
7CC0
5540
7DE0
0120
7FE0
4500
7D00
2920
7DE0
0000
ENDCHAR

STARTCHAR Cb1f1
ENCODING 45553
SWIDTH 1000 0
DWIDTH 12 0
BBX 12 12 0 -2
BITMAP
0000
1100
7FE0
1100
2000
3BC0
2A40
5AC0
0A00
1220
63E0
0000
ENDCHAR

STARTCHAR Cb1f2
ENCODING 45554
SWIDTH 1000 0
DWIDTH 12 0
BBX 12 12 0 -2
BITMAP
0000
1100
7FE0
1100
7FC0
4440
5F40
4A40
4EC0
5540
7FC0
0000
ENDCHAR

STARTCHAR Cb1f3
ENCODING 45555
SWIDTH 1000 0
DWIDTH 12 0
BBX 12 12 0 -2
BITMAP
0000
4100
27C0
2100
0FE0
0440
67C0
22A0
2640
2A20
5FE0
0000
ENDCHAR

STARTCHAR Cb1f4
ENCODING 45556
SWIDTH 1000 0
DWIDTH 12 0
BBX 12 12 0 -2
BITMAP
0000
1280
2A80
4240
3C40
1420
7BC0
1240
5240
1E40
63C0
0000
ENDCHAR

STARTCHAR Cb1f5
ENCODING 45557
SWIDTH 1000 0
DWIDTH 12 0
BBX 12 12 0 -2
BITMAP
0000
1DC0
2540
5520
1FE0
7080
1FC0
1000
1FE0
2020
4AC0
0000
ENDCHAR

STARTCHAR Cb1f6
ENCODING 45558
SWIDTH 1000 0
DWIDTH 12 0
BBX 12 12 0 -2
BITMAP
0000
2400
27C0
2800
7780
2480
2780
3000
6FC0
0A40
1FE0
0000
ENDCHAR

STARTCHAR Cb1f7
ENCODING 45559
SWIDTH 1000 0
DWIDTH 12 0
BBX 12 12 0 -2
BITMAP
0000
1100
1280
7C40
2020
3B00
2880
2840
2B00
4880
5840
0000
ENDCHAR

STARTCHAR Cb1f8
ENCODING 45560
SWIDTH 1000 0
DWIDTH 12 0
BBX 12 12 0 -2
BITMAP
0000
4000
27C0
0200
4200
2FE0
0200
23C0
2440
4040
4180
0000
ENDCHAR

STARTCHAR Cb1f9
ENCODING 45561
SWIDTH 1000 0
DWIDTH 12 0
BBX 12 12 0 -2
BITMAP
0000
17E0
5520
7FE0
5520
17E0
3900
17E0
1920
6220
04C0
0000
ENDCHAR

STARTCHAR Cb1fa
ENCODING 45562
SWIDTH 1000 0
DWIDTH 12 0
BBX 12 12 0 -2
BITMAP
0000
0000
7BC0
4A40
4A40
4A40
4E40
4040
4040
7FC0
4040
0000
ENDCHAR

STARTCHAR Cb1fb
ENCODING 45563
SWIDTH 1000 0
DWIDTH 12 0
BBX 12 12 0 -2
BITMAP
0000
0400
0400
3FC0
2440
2440
2440
7FE0
0A00
1180
6060
0000
ENDCHAR

STARTCHAR Cb1fc
ENCODING 45564
SWIDTH 1000 0
DWIDTH 12 0
BBX 12 12 0 -2
BITMAP
0000
0800
3FC0
2440
3540
2E40
3540
2440
7FE0
0900
70E0
0000
ENDCHAR

STARTCHAR Cb1fd
ENCODING 45565
SWIDTH 1000 0
DWIDTH 12 0
BBX 12 12 0 -2
BITMAP
0000
1200
2100
4FE0
1100
2100
67C0
2100
2100
2100
2FE0
0000
ENDCHAR

STARTCHAR Cb1fe
ENCODING 45566
SWIDTH 1000 0
DWIDTH 12 0
BBX 12 12 0 -2
BITMAP
0000
0200
3FE0
2000
2200
2100
2240
2A20
2A20
52A0
4380
0000
ENDCHAR

STARTCHAR Cb2a1
ENCODING 45729
SWIDTH 1000 0
DWIDTH 12 0
BBX 12 12 0 -2
BITMAP
0000
1000
17E0
7D20
1520
17E0
1D20
7520
17E0
1100
3100
0000
ENDCHAR

STARTCHAR Cb2a2
ENCODING 45730
SWIDTH 1000 0
DWIDTH 12 0
BBX 12 12 0 -2
BITMAP
0000
0000
7FE0
4900
4900
7900
4FC0
4900
7900
0100
0FE0
0000
ENDCHAR

STARTCHAR Cb2a3
ENCODING 45731
SWIDTH 1000 0
DWIDTH 12 0
BBX 12 12 0 -2
BITMAP
0000
1280
17C0
7A80
17E0
1540
3FC0
5540
57C0
5280
1C60
0000
ENDCHAR

STARTCHAR Cb2a4
ENCODING 45732
SWIDTH 1000 0
DWIDTH 12 0
BBX 12 12 0 -2
BITMAP
0000
0100
7D00
49E0
6AA0
5280
5080
6880
4140
7D40
0220
0000
ENDCHAR

STARTCHAR Cb2a5
ENCODING 45733
SWIDTH 1000 0
DWIDTH 12 0
BBX 12 12 0 -2
BITMAP
0000
01C0
7D40
4940
6A60
5000
53E0
6920
4140
7C80
0360
0000
ENDCHAR

STARTCHAR Cb2a6
ENCODING 45734
SWIDTH 1000 0
DWIDTH 12 0
BBX 12 12 0 -2
BITMAP
0000
0000
7FC0
0400
0400
0400
3F80
0400
0400
0400
7FE0
0000
ENDCHAR

STARTCHAR Cb2a7
ENCODING 45735
SWIDTH 1000 0
DWIDTH 12 0
BBX 12 12 0 -2
BITMAP
0000
1100
2480
4940
1F80
0000
7BC0
2940
18C0
6B40
18C0
0000
ENDCHAR

STARTCHAR Cb2a8
ENCODING 45736
SWIDTH 1000 0
DWIDTH 12 0
BBX 12 12 0 -2
BITMAP
0000
2200
2FE0
7920
0D60
1BA0
2D60
6920
3FE0
2280
2C60
0000
ENDCHAR

STARTCHAR Cb2a9
ENCODING 45737
SWIDTH 1000 0
DWIDTH 12 0
BBX 12 12 0 -2
BITMAP
0000
2480
7FE0
4820
1F80
1080
1FE0
1000
1FE0
2020
4AC0
0000
ENDCHAR

STARTCHAR Cb2aa
ENCODING 45738
SWIDTH 1000 0
DWIDTH 12 0
BBX 12 12 0 -2
BITMAP
0000
0100
7FC0
4A40
6BC0
5240
53E0
6A00
43E0
7820
0560
0000
ENDCHAR

STARTCHAR Cb2ab
ENCODING 45739
SWIDTH 1000 0
DWIDTH 12 0
BBX 12 12 0 -2
BITMAP
0000
0900
3FC0
0900
7FE0
2440
3FC0
2440
3FC0
1100
60E0
0000
ENDCHAR

STARTCHAR Cb2ac
ENCODING 45740
SWIDTH 1000 0
DWIDTH 12 0
BBX 12 12 0 -2
BITMAP
0000
0000
7FC0
5140
4A40
7FC0
4440
5540
5540
5F40
40C0
0000
ENDCHAR

STARTCHAR Cb2ad
ENCODING 45741
SWIDTH 1000 0
DWIDTH 12 0
BBX 12 12 0 -2
BITMAP
0000
4100
2100
0FE0
4920
2920
0920
2FE0
2100
4100
4100
0000
ENDCHAR

STARTCHAR Cb2ae
ENCODING 45742
SWIDTH 1000 0
DWIDTH 12 0
BBX 12 12 0 -2
BITMAP
0000
0880
7FE0
0880
5100
2120
5520
1540
3100
5280
3460
0000
ENDCHAR

STARTCHAR Cb2af
ENCODING 45743
SWIDTH 1000 0
DWIDTH 12 0
BBX 12 12 0 -2
BITMAP
0000
1100
17C0
1280
2FE0
2440
67C0
2440
27C0
2A20
33A0
0000
ENDCHAR

STARTCHAR Cb2b0
ENCODING 45744
SWIDTH 1000 0
DWIDTH 12 0
BBX 12 12 0 -2
BITMAP
0000
3FC0
2040
3FC0
2000
3FC0
2200
2480
2FC0
4200
5FE0
0000
ENDCHAR

STARTCHAR Cb2b1
ENCODING 45745
SWIDTH 1000 0
DWIDTH 12 0
BBX 12 12 0 -2
BITMAP
0000
1100
17C0
1280
5FE0
5440
17C0
1440
17C0
1220
1BA0
0000
ENDCHAR

STARTCHAR Cb2b2
ENCODING 45746
SWIDTH 1000 0
DWIDTH 12 0
BBX 12 12 0 -2
BITMAP
0000
7100
57C0
5280
7FE0
5440
57C0
7440
57C0
5220
5BA0
0000
ENDCHAR

STARTCHAR Cb2b3
ENCODING 45747
SWIDTH 1000 0
DWIDTH 12 0
BBX 12 12 0 -2
BITMAP
0000
17C0
1040
7A80
17E0
1520
37E0
5D20
57E0
5520
1560
0000
ENDCHAR

STARTCHAR Cb2b4
ENCODING 45748
SWIDTH 1000 0
DWIDTH 12 0
BBX 12 12 0 -2
BITMAP
0000
1100
5100
7900
57C0
1100
1900
7100
1100
1100
17E0
0000
ENDCHAR

STARTCHAR Cb2b5
ENCODING 45749
SWIDTH 1000 0
DWIDTH 12 0
BBX 12 12 0 -2
BITMAP
0000
0000
3FC0
0080
0300
0C00
1000
2000
4020
4020
3FE0
0000
ENDCHAR

STARTCHAR Cb2b6
ENCODING 45750
SWIDTH 1000 0
DWIDTH 12 0
BBX 12 12 0 -2
BITMAP
0000
1100
1FE0
1280
27C0
2D60
77C0
2540
27C0
2120
21E0
0000
ENDCHAR

STARTCHAR Cb2b7
ENCODING 45751
SWIDTH 1000 0
DWIDTH 12 0
BBX 12 12 0 -2
BITMAP
0000
2000
3DE0
5120
1120
7D20
1120
5D20
5160
5D00
6100
0000
ENDCHAR

STARTCHAR Cb2b8
ENCODING 45752
SWIDTH 1000 0
DWIDTH 12 0
BBX 12 12 0 -2
BITMAP
0000
3FC0
2440
3F40
2A40
3140
2040
3FC0
2A40
28A0
4FA0
0000
ENDCHAR

STARTCHAR Cb2b9
ENCODING 45753
SWIDTH 1000 0
DWIDTH 12 0
BBX 12 12 0 -2
BITMAP
0000
4FC0
2840
0FC0
4840
2FC0
0000
2FC0
2940
4940
5FE0
0000
ENDCHAR

STARTCHAR Cb2ba
ENCODING 45754
SWIDTH 1000 0
DWIDTH 12 0
BBX 12 12 0 -2
BITMAP
0000
0860
7780
12A0
1040
7BE0
1020
3BE0
5140
5520
15A0
0000
ENDCHAR

STARTCHAR Cb2bb
ENCODING 45755
SWIDTH 1000 0
DWIDTH 12 0
BBX 12 12 0 -2
BITMAP
0000
0400
3FC0
0900
7FE0
0000
1F80
1080
1F80
1080
1F80
0000
ENDCHAR

STARTCHAR Cb2bc
ENCODING 45756
SWIDTH 1000 0
DWIDTH 12 0
BBX 12 12 0 -2
BITMAP
0000
0000
7FE0
0400
0400
0600
0580
0440
0400
0400
0400
0000
ENDCHAR

STARTCHAR Cb2bd
ENCODING 45757
SWIDTH 1000 0
DWIDTH 12 0
BBX 12 12 0 -2
BITMAP
0000
0A00
0A00
1220
1240
3380
5200
1200
1220
1220
13E0
0000
ENDCHAR

STARTCHAR Cb2be
ENCODING 45758
SWIDTH 1000 0
DWIDTH 12 0
BBX 12 12 0 -2
BITMAP
0000
1000
17E0
1400
2400
27E0
6520
2540
2880
2940
3220
0000
ENDCHAR

STARTCHAR Cb2bf
ENCODING 45759
SWIDTH 1000 0
DWIDTH 12 0
BBX 12 12 0 -2
BITMAP
0000
1000
17E0
1040
2740
2540
6540
2740
2040
2040
21C0
0000
ENDCHAR

STARTCHAR Cb2c0
ENCODING 45760
SWIDTH 1000 0
DWIDTH 12 0
BBX 12 12 0 -2
BITMAP
0000
1400
14E0
1EA0
2AA0
2AA0
6AA0
2AA0
2AA0
32A0
26E0
0000
ENDCHAR

STARTCHAR Cb2c1
ENCODING 45761
SWIDTH 1000 0
DWIDTH 12 0
BBX 12 12 0 -2
BITMAP
0000
1000
1FE0
1280
2280
2FE0
6AA0
2AA0
2AA0
2AA0
2FE0
0000
ENDCHAR

STARTCHAR Cb2c2
ENCODING 45762
SWIDTH 1000 0
DWIDTH 12 0
BBX 12 12 0 -2
BITMAP
0000
1100
1100
17C0
2100
2FE0
6100
27C0
2100
2100
2FE0
0000
ENDCHAR

STARTCHAR Cb2c3
ENCODING 45763
SWIDTH 1000 0
DWIDTH 12 0
BBX 12 12 0 -2
BITMAP
0000
1000
11E0
7D20
1520
1520
1520
1520
2520
25E0
5920
0000
ENDCHAR

STARTCHAR Cb2c4
ENCODING 45764
SWIDTH 1000 0
DWIDTH 12 0
BBX 12 12 0 -2
BITMAP
0000
0000
7FE0
0040
0040
3E40
2240
2240
3E40
0040
01C0
0000
ENDCHAR

STARTCHAR Cb2c5
ENCODING 45765
SWIDTH 1000 0
DWIDTH 12 0
BBX 12 12 0 -2
BITMAP
0000
0400
7FE0
0400
3FC0
1080
7FE0
1000
7DE0
2520
4DE0
0000
ENDCHAR

STARTCHAR Cb2c6
ENCODING 45766
SWIDTH 1000 0
DWIDTH 12 0
BBX 12 12 0 -2
BITMAP
0000
3FE0
0400
1FC0
1040
1FC0
1040
1FC0
7080
0F00
70E0
0000
ENDCHAR

STARTCHAR Cb2c7
ENCODING 45767
SWIDTH 1000 0
DWIDTH 12 0
BBX 12 12 0 -2
BITMAP
0000
2100
27E0
7C20
2BE0
2940
4A60
7540
12A0
2CA0
4180
0000
ENDCHAR

STARTCHAR Cb2c8
ENCODING 45768
SWIDTH 1000 0
DWIDTH 12 0
BBX 12 12 0 -2
BITMAP
0000
0400
7FE0
4020
3FC0
0520
1940
6480
1A40
6220
0C00
0000
ENDCHAR

STARTCHAR Cb2c9
ENCODING 45769
SWIDTH 1000 0
DWIDTH 12 0
BBX 12 12 0 -2
BITMAP
0000
0400
7FE0
4420
1F80
1080
7FE0
1040
6FA0
0480
3980
0000
ENDCHAR

STARTCHAR Cb2ca
ENCODING 45770
SWIDTH 1000 0
DWIDTH 12 0
BBX 12 12 0 -2
BITMAP
0000
0840
7240
1140
1040
7A40
1140
3860
57C0
5040
1040
0000
ENDCHAR

STARTCHAR Cb2cb
ENCODING 45771
SWIDTH 1000 0
DWIDTH 12 0
BBX 12 12 0 -2
BITMAP
0000
0760
7520
5520
5760
7400
57E0
54A0
76A0
0440
04A0
0000
ENDCHAR

STARTCHAR Cb2cc
ENCODING 45772
SWIDTH 1000 0
DWIDTH 12 0
BBX 12 12 0 -2
BITMAP
0000
3FC0
2440
3FC0
2440
3FC0
0400
7FE0
1500
2480
4460
0000
ENDCHAR

STARTCHAR Cb2cd
ENCODING 45773
SWIDTH 1000 0
DWIDTH 12 0
BBX 12 12 0 -2
BITMAP
0000
2000
7BC0
2A40
2A40
5BC0
0400
7FE0
1500
2480
4460
0000
ENDCHAR

STARTCHAR Cb2ce
ENCODING 45774
SWIDTH 1000 0
DWIDTH 12 0
BBX 12 12 0 -2
BITMAP
0000
0100
7D00
29E0
3AA0
0880
7C80
2880
3940
0940
1A20
0000
ENDCHAR

STARTCHAR Cb2cf
ENCODING 45775
SWIDTH 1000 0
DWIDTH 12 0
BBX 12 12 0 -2
BITMAP
0000
4000
2FE0
0040
4740
2540
0540
2740
2040
4040
41C0
0000
ENDCHAR

STARTCHAR Cb2d0
ENCODING 45776
SWIDTH 1000 0
DWIDTH 12 0
BBX 12 12 0 -2
BITMAP
0000
0200
0200
0240
1240
1280
2500
0500
0880
1040
6020
0000
ENDCHAR

STARTCHAR Cb2d1
ENCODING 45777
SWIDTH 1000 0
DWIDTH 12 0
BBX 12 12 0 -2
BITMAP
0000
0000
7FE0
1040
1740
7D40
1540
1740
1840
6040
01C0
0000
ENDCHAR

STARTCHAR Cb2d2
ENCODING 45778
SWIDTH 1000 0
DWIDTH 12 0
BBX 12 12 0 -2
BITMAP
0000
27C0
2440
75C0
1540
2FE0
2820
7BA0
2AA0
2BA0
2860
0000
ENDCHAR

STARTCHAR Cb2d3
ENCODING 45779
SWIDTH 1000 0
DWIDTH 12 0
BBX 12 12 0 -2
BITMAP
0000
01C0
3E00
0400
0400
7FE0
1500
1480
2440
4420
0400
0000
ENDCHAR

STARTCHAR Cb2d4
ENCODING 45780
SWIDTH 1000 0
DWIDTH 12 0
BBX 12 12 0 -2
BITMAP
0000
1100
6FE0
2820
27C0
7280
24A0
3240
6540
2920
2320
0000
ENDCHAR

STARTCHAR Cb2d5
ENCODING 45781
SWIDTH 1000 0
DWIDTH 12 0
BBX 12 12 0 -2
BITMAP
0000
1100
7FE0
1100
7FC0
4440
5F40
4440
4E40
4A40
7FC0
0000
ENDCHAR

STARTCHAR Cb2d6
ENCODING 45782
SWIDTH 1000 0
DWIDTH 12 0
BBX 12 12 0 -2
BITMAP
0000
1100
7FE0
1100
0000
1200
1240
3380
5200
1220
13E0
0000
ENDCHAR

STARTCHAR Cb2d7
ENCODING 45783
SWIDTH 1000 0
DWIDTH 12 0
BBX 12 12 0 -2
BITMAP
0000
1100
7FE0
1100
7FE0
0040
3E40
2240
3E40
0040
01C0
0000
ENDCHAR

STARTCHAR Cb2d8
ENCODING 45784
SWIDTH 1000 0
DWIDTH 12 0
BBX 12 12 0 -2
BITMAP
0000
0880
7FE0
0880
1000
7DE0
1520
1520
2520
2520
59E0
0000
ENDCHAR

STARTCHAR Cb2d9
ENCODING 45785
SWIDTH 1000 0
DWIDTH 12 0
BBX 12 12 0 -2
BITMAP
0000
1100
7FE0
1100
1FE0
2040
2F40
6940
2F40
2040
21C0
0000
ENDCHAR

STARTCHAR Cb2da
ENCODING 45786
SWIDTH 1000 0
DWIDTH 12 0
BBX 12 12 0 -2
BITMAP
0000
1100
7FE0
1100
3FC0
1480
7FE0
1480
3FC0
0400
0400
0000
ENDCHAR

STARTCHAR Cb2db
ENCODING 45787
SWIDTH 1000 0
DWIDTH 12 0
BBX 12 12 0 -2
BITMAP
0000
1100
7FE0
1100
3FC0
2440
3FC0
2440
7FE0
1480
6460
0000
ENDCHAR

STARTCHAR Cb2dc
ENCODING 45788
SWIDTH 1000 0
DWIDTH 12 0
BBX 12 12 0 -2
BITMAP
0000
1760
1520
7D20
5760
5400
7FE0
14A0
16A0
1C40
64A0
0000
ENDCHAR

STARTCHAR Cb2dd
ENCODING 45789
SWIDTH 1000 0
DWIDTH 12 0
BBX 12 12 0 -2
BITMAP
0000
77C0
0540
7FC0
0540
77C0
0100
7FE0
5540
5540
7920
0000
ENDCHAR

STARTCHAR Cb2de
ENCODING 45790
SWIDTH 1000 0
DWIDTH 12 0
BBX 12 12 0 -2
BITMAP
0000
0480
7FE0
5480
5FE0
5540
5FE0
5540
7FE0
0100
0100
0000
ENDCHAR

STARTCHAR Cb2df
ENCODING 45791
SWIDTH 1000 0
DWIDTH 12 0
BBX 12 12 0 -2
BITMAP
0000
0A40
1380
3220
5FE0
1040
1FC0
1040
1FC0
0880
3060
0000
ENDCHAR

STARTCHAR Cb2e0
ENCODING 45792
SWIDTH 1000 0
DWIDTH 12 0
BBX 12 12 0 -2
BITMAP
0000
4800
28E0
3EA0
0AA0
0AA0
6AA0
2AA0
36E0
2000
5FE0
0000
ENDCHAR

STARTCHAR Cb2e1
ENCODING 45793
SWIDTH 1000 0
DWIDTH 12 0
BBX 12 12 0 -2
BITMAP
0000
47C0
2440
25C0
0540
0FE0
6AA0
2BA0
2860
2000
5FE0
0000
ENDCHAR

STARTCHAR Cb2e2
ENCODING 45794
SWIDTH 1000 0
DWIDTH 12 0
BBX 12 12 0 -2
BITMAP
0000
3FC0
0400
7FE0
54A0
3BC0
2840
3BC0
2140
3880
2360
0000
ENDCHAR

STARTCHAR Cb2e3
ENCODING 45795
SWIDTH 1000 0
DWIDTH 12 0
BBX 12 12 0 -2
BITMAP
0000
1080
1080
7FE0
5540
5540
7D40
1080
1480
1D40
6220
0000
ENDCHAR

STARTCHAR Cb2e4
ENCODING 45796
SWIDTH 1000 0
DWIDTH 12 0
BBX 12 12 0 -2
BITMAP
0000
1280
1CC0
24A0
2480
6FE0
2480
26A0
2C40
2440
2DA0
0000
ENDCHAR

STARTCHAR Cb2e5
ENCODING 45797
SWIDTH 1000 0
DWIDTH 12 0
BBX 12 12 0 -2
BITMAP
0000
1280
1CC0
14A0
5480
5FE0
5480
56A0
5C40
7440
0DA0
0000
ENDCHAR

STARTCHAR Cb2e6
ENCODING 45798
SWIDTH 1000 0
DWIDTH 12 0
BBX 12 12 0 -2
BITMAP
0000
0540
7920
1100
7FE0
1100
1D40
7140
1080
10A0
3360
0000
ENDCHAR

STARTCHAR Cb2e7
ENCODING 45799
SWIDTH 1000 0
DWIDTH 12 0
BBX 12 12 0 -2
BITMAP
0000
0000
1FC0
1080
1080
1080
7FE0
0280
0480
1880
6380
0000
ENDCHAR

STARTCHAR Cb2e8
ENCODING 45800
SWIDTH 1000 0
DWIDTH 12 0
BBX 12 12 0 -2
BITMAP
0000
0000
3FC0
0400
5FA0
54A0
5FA0
54A0
5FA0
4020
7FE0
0000
ENDCHAR

STARTCHAR Cb2e9
ENCODING 45801
SWIDTH 1000 0
DWIDTH 12 0
BBX 12 12 0 -2
BITMAP
0000
0080
7E80
4880
7C80
4480
4480
7D40
4940
4920
7E20
0000
ENDCHAR

STARTCHAR Cb2ea
ENCODING 45802
SWIDTH 1000 0
DWIDTH 12 0
BBX 12 12 0 -2
BITMAP
0000
1100
7FE0
1100
3FC0
0880
0880
7FE0
0480
1880
6380
0000
ENDCHAR

STARTCHAR Cb2eb
ENCODING 45803
SWIDTH 1000 0
DWIDTH 12 0
BBX 12 12 0 -2
BITMAP
0000
1180
16A0
7A80
4FE0
4A80
7BA0
16A0
1240
1A40
66A0
0000
ENDCHAR

STARTCHAR Cb2ec
ENCODING 45804
SWIDTH 1000 0
DWIDTH 12 0
BBX 12 12 0 -2
BITMAP
0000
1000
7DE0
1520
3FE0
6040
3FC0
2040
3FC0
1080
6060
0000
ENDCHAR

STARTCHAR Cb2ed
ENCODING 45805
SWIDTH 1000 0
DWIDTH 12 0
BBX 12 12 0 -2
BITMAP
0000
0140
7A80
2BE0
2E80
2BC0
7A80
0BC0
1A80
2A80
5BE0
0000
ENDCHAR

STARTCHAR Cb2ee
ENCODING 45806
SWIDTH 1000 0
DWIDTH 12 0
BBX 12 12 0 -2
BITMAP
0000
2180
56A0
2280
7FE0
5280
53A0
76A0
4240
5240
6EA0
0000
ENDCHAR

STARTCHAR Cb2ef
ENCODING 45807
SWIDTH 1000 0
DWIDTH 12 0
BBX 12 12 0 -2
BITMAP
0000
1000
7DE0
1520
3FE0
6200
3FC0
2200
3FE0
2020
4AC0
0000
ENDCHAR

STARTCHAR Cb2f0
ENCODING 45808
SWIDTH 1000 0
DWIDTH 12 0
BBX 12 12 0 -2
BITMAP
0000
0400
0A00
1180
6060
1100
1100
1100
1100
2100
4100
0000
ENDCHAR

STARTCHAR Cb2f1
ENCODING 45809
SWIDTH 1000 0
DWIDTH 12 0
BBX 12 12 0 -2
BITMAP
0000
0600
0900
1080
6060
1F80
0000
7FE0
0800
1080
3F40
0000
ENDCHAR

STARTCHAR Cb2f2
ENCODING 45810
SWIDTH 1000 0
DWIDTH 12 0
BBX 12 12 0 -2
BITMAP
0000
3800
4BE0
10A0
7D20
5660
7D40
55E0
7E40
45E0
4C40
0000
ENDCHAR

STARTCHAR Cb2f3
ENCODING 45811
SWIDTH 1000 0
DWIDTH 12 0
BBX 12 12 0 -2
BITMAP
0000
0000
7FC0
4040
5F40
5140
5140
5140
5F40
4040
7FC0
0000
ENDCHAR

STARTCHAR Cb2f4
ENCODING 45812
SWIDTH 1000 0
DWIDTH 12 0
BBX 12 12 0 -2
BITMAP
0000
1100
17C0
1540
7FC0
1540
17C0
1AA0
62E0
0480
08E0
0000
ENDCHAR

STARTCHAR Cb2f5
ENCODING 45813
SWIDTH 1000 0
DWIDTH 12 0
BBX 12 12 0 -2
BITMAP
0000
2100
2FE0
2100
7FE0
2AA0
2FE0
3100
62A0
0E40
0320
0000
ENDCHAR

STARTCHAR Cb2f6
ENCODING 45814
SWIDTH 1000 0
DWIDTH 12 0
BBX 12 12 0 -2
BITMAP
0000
07C0
7440
1740
2540
4540
7740
1440
57C0
2000
5FE0
0000
ENDCHAR

STARTCHAR Cb2f7
ENCODING 45815
SWIDTH 1000 0
DWIDTH 12 0
BBX 12 12 0 -2
BITMAP
0000
1100
1100
17C0
5940
5140
1140
1FE0
1100
1280
1C60
0000
ENDCHAR

STARTCHAR Cb2f8
ENCODING 45816
SWIDTH 1000 0
DWIDTH 12 0
BBX 12 12 0 -2
BITMAP
0000
1000
17C0
1A40
5280
5100
1EE0
1100
17C0
1100
1FE0
0000
ENDCHAR

STARTCHAR Cb2f9
ENCODING 45817
SWIDTH 1000 0
DWIDTH 12 0
BBX 12 12 0 -2
BITMAP
0000
1400
17E0
1800
57C0
5540
1FE0
1540
1540
17E0
1040
0000
ENDCHAR

STARTCHAR Cb2fa
ENCODING 45818
SWIDTH 1000 0
DWIDTH 12 0
BBX 12 12 0 -2
BITMAP
0000
1000
17E0
1400
5C80
54A0
16A0
1480
1540
1940
1220
0000
ENDCHAR

STARTCHAR Cb2fb
ENCODING 45819
SWIDTH 1000 0
DWIDTH 12 0
BBX 12 12 0 -2
BITMAP
0000
2100
2FE0
3100
6FE0
2AA0
2FE0
2280
26A0
2A40
2720
0000
ENDCHAR

STARTCHAR Cb2fc
ENCODING 45820
SWIDTH 1000 0
DWIDTH 12 0
BBX 12 12 0 -2
BITMAP
0000
0280
0240
7FE0
0200
2A00
2940
7D40
2880
28A0
4360
0000
ENDCHAR

STARTCHAR Cb2fd
ENCODING 45821
SWIDTH 1000 0
DWIDTH 12 0
BBX 12 12 0 -2
BITMAP
0000
1000
13C0
7E40
1240
13C0
1800
77E0
1120
1220
34C0
0000
ENDCHAR

STARTCHAR Cb2fe
ENCODING 45822
SWIDTH 1000 0
DWIDTH 12 0
BBX 12 12 0 -2
BITMAP
0000
0100
7900
09E0
0A40
7D40
4140
4140
4880
7940
0620
0000
ENDCHAR

STARTCHAR Cb3a1
ENCODING 45985
SWIDTH 1000 0
DWIDTH 12 0
BBX 12 12 0 -2
BITMAP
0000
2040
7D40
5440
7D40
5460
7DC0
2A40
2E40
2820
4FE0
0000
ENDCHAR

STARTCHAR Cb3a2
ENCODING 45986
SWIDTH 1000 0
DWIDTH 12 0
BBX 12 12 0 -2
BITMAP
0000
0400
77E0
5800
57C0
7540
5FE0
5540
7540
07E0
0040
0000
ENDCHAR

STARTCHAR Cb3a3
ENCODING 45987
SWIDTH 1000 0
DWIDTH 12 0
BBX 12 12 0 -2
BITMAP
0000
10A0
1080
7FE0
1080
1280
3780
5AA0
52A0
5440
10A0
0000
ENDCHAR

STARTCHAR Cb3a4
ENCODING 45988
SWIDTH 1000 0
DWIDTH 12 0
BBX 12 12 0 -2
BITMAP
0000
4400
27E0
0800
47C0
2540
0FE0
2540
2540
47E0
4040
0000
ENDCHAR

STARTCHAR Cb3a5
ENCODING 45989
SWIDTH 1000 0
DWIDTH 12 0
BBX 12 12 0 -2
BITMAP
0000
0000
3FE0
2000
2100
2520
2520
2940
2280
4440
5820
0000
ENDCHAR

STARTCHAR Cb3a6
ENCODING 45990
SWIDTH 1000 0
DWIDTH 12 0
BBX 12 12 0 -2
BITMAP
0000
3FC0
2440
3FC0
2440
3FC0
1080
2940
4920
0900
1100
0000
ENDCHAR

STARTCHAR Cb3a7
ENCODING 45991
SWIDTH 1000 0
DWIDTH 12 0
BBX 12 12 0 -2
BITMAP
0000
4240
7B80
4220
7BE0
0400
3FC0
2040
3FC0
2040
3FC0
0000
ENDCHAR

STARTCHAR Cb3a8
ENCODING 45992
SWIDTH 1000 0
DWIDTH 12 0
BBX 12 12 0 -2
BITMAP
0000
1100
2280
6440
13A0
2800
7FE0
1100
5940
5220
17E0
0000
ENDCHAR

STARTCHAR Cb3a9
ENCODING 45993
SWIDTH 1000 0
DWIDTH 12 0
BBX 12 12 0 -2
BITMAP
0000
1100
7FE0
1100
0400
0A00
1180
6960
0900
1100
2100
0000
ENDCHAR

STARTCHAR Cb3aa
ENCODING 45994
SWIDTH 1000 0
DWIDTH 12 0
BBX 12 12 0 -2
BITMAP
0000
3BE0
48A0
3D20
26E0
2440
5FE0
1540
1F00
0440
7FA0
0000
ENDCHAR

STARTCHAR Cb3ab
ENCODING 45995
SWIDTH 1000 0
DWIDTH 12 0
BBX 12 12 0 -2
BITMAP
0000
79E0
4920
4920
79E0
4020
5FA0
4920
5FA0
4920
5160
0000
ENDCHAR

STARTCHAR Cb3ac
ENCODING 45996
SWIDTH 1000 0
DWIDTH 12 0
BBX 12 12 0 -2
BITMAP
0000
74A0
56C0
54A0
66E0
5100
57E0
5420
67E0
4420
47E0
0000
ENDCHAR

STARTCHAR Cb3ad
ENCODING 45997
SWIDTH 1000 0
DWIDTH 12 0
BBX 12 12 0 -2
BITMAP
0000
3FC0
2040
3FC0
2040
3FC0
2040
2040
3FC0
1080
6060
0000
ENDCHAR

STARTCHAR Cb3ae
ENCODING 45998
SWIDTH 1000 0
DWIDTH 12 0
BBX 12 12 0 -2
BITMAP
0000
55C0
7D40
0140
7D40
0140
7D40
4540
7D40
2A40
7C60
0000
ENDCHAR

STARTCHAR Cb3af
ENCODING 45999
SWIDTH 1000 0
DWIDTH 12 0
BBX 12 12 0 -2
BITMAP
0000
1080
7C80
13E0
20A0
68A0
10A0
24A0
4920
1520
62C0
0000
ENDCHAR

STARTCHAR Cb3b0
ENCODING 46000
SWIDTH 1000 0
DWIDTH 12 0
BBX 12 12 0 -2
BITMAP
0000
1100
1100
1D00
2700
2580
5560
0900
0900
1100
2100
0000
ENDCHAR

STARTCHAR Cb3b1
ENCODING 46001
SWIDTH 1000 0
DWIDTH 12 0
BBX 12 12 0 -2
BITMAP
0000
0100
77E0
5200
5440
5280
5120
5640
7080
0140
0620
0000
ENDCHAR

STARTCHAR Cb3b2
ENCODING 46002
SWIDTH 1000 0
DWIDTH 12 0
BBX 12 12 0 -2
BITMAP
0000
0400
7FE0
4420
3FC0
0400
7FE0
0000
3FC0
2040
3FC0
0000
ENDCHAR

STARTCHAR Cb3b3
ENCODING 46003
SWIDTH 1000 0
DWIDTH 12 0
BBX 12 12 0 -2
BITMAP
0000
2220
3FE0
0000
3FE0
2200
2FC0
2200
2FC0
4200
5FE0
0000
ENDCHAR

STARTCHAR Cb3b4
ENCODING 46004
SWIDTH 1000 0
DWIDTH 12 0
BBX 12 12 0 -2
BITMAP
0000
2FE0
2A80
3E80
6A80
2FE0
2880
2A80
2EC0
3940
2660
0000
ENDCHAR

STARTCHAR Cb3b5
ENCODING 46005
SWIDTH 1000 0
DWIDTH 12 0
BBX 12 12 0 -2
BITMAP
0000
1000
17E0
7D40
1740
1540
3FE0
5480
56C0
1940
1260
0000
ENDCHAR

STARTCHAR Cb3b6
ENCODING 46006
SWIDTH 1000 0
DWIDTH 12 0
BBX 12 12 0 -2
BITMAP
0000
4000
2FE0
0900
4BC0
2900
0FE0
2900
2BC0
5100
57E0
0000
ENDCHAR

STARTCHAR Cb3b7
ENCODING 46007
SWIDTH 1000 0
DWIDTH 12 0
BBX 12 12 0 -2
BITMAP
0000
03C0
7A40
13C0
2240
3FE0
6840
2FE0
2A40
3940
00C0
0000
ENDCHAR

STARTCHAR Cb3b8
ENCODING 46008
SWIDTH 1000 0
DWIDTH 12 0
BBX 12 12 0 -2
BITMAP
0000
1080
7FE0
1480
7FE0
0880
3F40
0000
3FC0
2940
7FE0
0000
ENDCHAR

STARTCHAR Cb3b9
ENCODING 46009
SWIDTH 1000 0
DWIDTH 12 0
BBX 12 12 0 -2
BITMAP
0000
1400
2EE0
4400
1F00
24E0
6E40
2440
2740
3840
20C0
0000
ENDCHAR

STARTCHAR Cb3ba
ENCODING 46010
SWIDTH 1000 0
DWIDTH 12 0
BBX 12 12 0 -2
BITMAP
0000
7100
07E0
7900
0640
7280
0120
7640
5080
5140
7620
0000
ENDCHAR

STARTCHAR Cb3bb
ENCODING 46011
SWIDTH 1000 0
DWIDTH 12 0
BBX 12 12 0 -2
BITMAP
0000
12A0
2BE0
4400
3BE0
1000
7BE0
1620
53E0
1940
63E0
0000
ENDCHAR

STARTCHAR Cb3bc
ENCODING 46012
SWIDTH 1000 0
DWIDTH 12 0
BBX 12 12 0 -2
BITMAP
0000
3C80
25E0
2480
7F00
42A0
3C40
2580
3C20
2440
25A0
0000
ENDCHAR

STARTCHAR Cb3bd
ENCODING 46013
SWIDTH 1000 0
DWIDTH 12 0
BBX 12 12 0 -2
BITMAP
0000
4000
2FC0
0A40
4FC0
2A40
0FC0
2200
2FC0
4200
5FE0
0000
ENDCHAR

STARTCHAR Cb3be
ENCODING 46014
SWIDTH 1000 0
DWIDTH 12 0
BBX 12 12 0 -2
BITMAP
0000
09C0
7E60
2B40
3E80
4160
3E00
0400
7FE0
2940
4F20
0000
ENDCHAR

STARTCHAR Cb3bf
ENCODING 46015
SWIDTH 1000 0
DWIDTH 12 0
BBX 12 12 0 -2
BITMAP
0000
1080
11C0
7C80
5480
57E0
7C80
11C0
1480
1C80
67E0
0000
ENDCHAR

STARTCHAR Cb3c0
ENCODING 46016
SWIDTH 1000 0
DWIDTH 12 0
BBX 12 12 0 -2
BITMAP
0000
1000
17E0
1000
7BC0
1240
13C0
1240
1BC0
6000
07E0
0000
ENDCHAR

STARTCHAR Cb3c1
ENCODING 46017
SWIDTH 1000 0
DWIDTH 12 0
BBX 12 12 0 -2
BITMAP
0000
1100
1100
7FE0
1100
17C0
3540
5D40
5540
15C0
1100
0000
ENDCHAR

STARTCHAR Cb3c2
ENCODING 46018
SWIDTH 1000 0
DWIDTH 12 0
BBX 12 12 0 -2
BITMAP
0000
1000
17E0
7C00
57E0
5500
7DE0
1520
1520
1920
62C0
0000
ENDCHAR

STARTCHAR Cb3c3
ENCODING 46019
SWIDTH 1000 0
DWIDTH 12 0
BBX 12 12 0 -2
BITMAP
0000
1200
2A00
43E0
3C20
1120
7D20
12A0
53A0
1C20
60C0
0000
ENDCHAR

STARTCHAR Cb3c4
ENCODING 46020
SWIDTH 1000 0
DWIDTH 12 0
BBX 12 12 0 -2
BITMAP
0000
0820
3EA0
0AA0
7FA0
0AA0
7FA0
2AA0
3EA0
2A20
7F60
0000
ENDCHAR

STARTCHAR Cb3c5
ENCODING 46021
SWIDTH 1000 0
DWIDTH 12 0
BBX 12 12 0 -2
BITMAP
0000
0280
77C0
5280
5FE0
5540
5540
5D60
7540
0540
0AC0
0000
ENDCHAR

STARTCHAR Cb3c6
ENCODING 46022
SWIDTH 1000 0
DWIDTH 12 0
BBX 12 12 0 -2
BITMAP
0000
0800
0F80
1080
2900
0600
0900
1F80
70E0
1080
1F80
0000
ENDCHAR

STARTCHAR Cb3c7
ENCODING 46023
SWIDTH 1000 0
DWIDTH 12 0
BBX 12 12 0 -2
BITMAP
0000
0200
3FE0
2400
3FE0
2AA0
2EC0
24A0
3FA0
24C0
4C80
0000
ENDCHAR

STARTCHAR Cb3c8
ENCODING 46024
SWIDTH 1000 0
DWIDTH 12 0
BBX 12 12 0 -2
BITMAP
0000
2100
2FE0
7800
2900
2900
3900
6940
2A40
3220
67E0
0000
ENDCHAR

STARTCHAR Cb3c9
ENCODING 46025
SWIDTH 1000 0
DWIDTH 12 0
BBX 12 12 0 -2
BITMAP
0000
2540
2FE0
7820
27C0
2440
37C0
6440
27C0
22A0
6CE0
0000
ENDCHAR

STARTCHAR Cb3ca
ENCODING 46026
SWIDTH 1000 0
DWIDTH 12 0
BBX 12 12 0 -2
BITMAP
0000
1200
13C0
7C40
1280
1100
3A80
57C0
5C60
5440
17C0
0000
ENDCHAR

STARTCHAR Cb3cb
ENCODING 46027
SWIDTH 1000 0
DWIDTH 12 0
BBX 12 12 0 -2
BITMAP
0000
1100
17E0
7900
1640
1280
3900
5640
5080
5140
1620
0000
ENDCHAR

STARTCHAR Cb3cc
ENCODING 46028
SWIDTH 1000 0
DWIDTH 12 0
BBX 12 12 0 -2
BITMAP
0000
11C0
7D40
1140
7A60
0000
7FE0
4520
3940
2880
4F60
0000
ENDCHAR

STARTCHAR Cb3cd
ENCODING 46029
SWIDTH 1000 0
DWIDTH 12 0
BBX 12 12 0 -2
BITMAP
0000
1240
57E0
2240
2480
5FE0
1480
37E0
5240
1180
6660
0000
ENDCHAR

STARTCHAR Cb3ce
ENCODING 46030
SWIDTH 1000 0
DWIDTH 12 0
BBX 12 12 0 -2
BITMAP
0000
0100
7FE0
1420
2280
3BE0
6E80
2BC0
2A80
3A80
03E0
0000
ENDCHAR

STARTCHAR Cb3cf
ENCODING 46031
SWIDTH 1000 0
DWIDTH 12 0
BBX 12 12 0 -2
BITMAP
0000
0940
77E0
1140
1280
7BE0
1680
3BE0
5140
5080
1360
0000
ENDCHAR

STARTCHAR Cb3d0
ENCODING 46032
SWIDTH 1000 0
DWIDTH 12 0
BBX 12 12 0 -2
BITMAP
0000
2440
1280
7FE0
50A0
5F80
1080
1F80
0900
1120
61E0
0000
ENDCHAR

STARTCHAR Cb3d1
ENCODING 46033
SWIDTH 1000 0
DWIDTH 12 0
BBX 12 12 0 -2
BITMAP
0000
1000
1F00
2200
7FC0
2440
3FC0
2440
3FC0
2040
41C0
0000
ENDCHAR

STARTCHAR Cb3d2
ENCODING 46034
SWIDTH 1000 0
DWIDTH 12 0
BBX 12 12 0 -2
BITMAP
0000
1080
39C0
1080
7FE0
2940
2D60
6B40
2940
2940
5AC0
0000
ENDCHAR

STARTCHAR Cb3d3
ENCODING 46035
SWIDTH 1000 0
DWIDTH 12 0
BBX 12 12 0 -2
BITMAP
0000
1080
7C80
13E0
7D40
5620
5540
7D40
1080
7D40
1220
0000
ENDCHAR

STARTCHAR Cb3d4
ENCODING 46036
SWIDTH 1000 0
DWIDTH 12 0
BBX 12 12 0 -2
BITMAP
0000
0800
7FE0
2520
3D20
0140
3D20
0520
7F20
09C0
3900
0000
ENDCHAR

STARTCHAR Cb3d5
ENCODING 46037
SWIDTH 1000 0
DWIDTH 12 0
BBX 12 12 0 -2
BITMAP
0000
79E0
4920
79E0
4720
5920
4620
4920
7FE0
4920
4F20
0000
ENDCHAR

STARTCHAR Cb3d6
ENCODING 46038
SWIDTH 1000 0
DWIDTH 12 0
BBX 12 12 0 -2
BITMAP
0000
77C0
5000
57C0
6440
5FE0
4AA0
5CE0
6BA0
4920
4960
0000
ENDCHAR

STARTCHAR Cb3d7
ENCODING 46039
SWIDTH 1000 0
DWIDTH 12 0
BBX 12 12 0 -2
BITMAP
0000
1080
7FE0
1080
1F80
0400
3FC0
2440
7FE0
0400
0400
0000
ENDCHAR

STARTCHAR Cb3d8
ENCODING 46040
SWIDTH 1000 0
DWIDTH 12 0
BBX 12 12 0 -2
BITMAP
0000
2440
1280
7FE0
4020
1F80
0100
0200
7FE0
0200
0E00
0000
ENDCHAR

STARTCHAR Cb3d9
ENCODING 46041
SWIDTH 1000 0
DWIDTH 12 0
BBX 12 12 0 -2
BITMAP
0000
00C0
1F00
1000
1FC0
1100
1100
7FE0
0400
2440
3FC0
0000
ENDCHAR

STARTCHAR Cb3da
ENCODING 46042
SWIDTH 1000 0
DWIDTH 12 0
BBX 12 12 0 -2
BITMAP
0000
0400
4F20
2940
0F00
2940
4F20
0400
7FE0
1480
6460
0000
ENDCHAR

STARTCHAR Cb3db
ENCODING 46043
SWIDTH 1000 0
DWIDTH 12 0
BBX 12 12 0 -2
BITMAP
0000
13E0
7C80
47E0
1A20
2BE0
1220
2A20
7FE0
2940
3A20
0000
ENDCHAR

STARTCHAR Cb3dc
ENCODING 46044
SWIDTH 1000 0
DWIDTH 12 0
BBX 12 12 0 -2
BITMAP
0000
7FE0
5480
7FE0
0220
7FE0
2220
3A20
4BE0
0940
3220
0000
ENDCHAR

STARTCHAR Cb3dd
ENCODING 46045
SWIDTH 1000 0
DWIDTH 12 0
BBX 12 12 0 -2
BITMAP
0000
2080
2480
7E80
2480
2FC0
34A0
6E80
2480
2680
6C80
0000
ENDCHAR

STARTCHAR Cb3de
ENCODING 46046
SWIDTH 1000 0
DWIDTH 12 0
BBX 12 12 0 -2
BITMAP
0000
2100
3DE0
5280
1080
0400
3FC0
0080
1080
0900
7FE0
0000
ENDCHAR

STARTCHAR Cb3df
ENCODING 46047
SWIDTH 1000 0
DWIDTH 12 0
BBX 12 12 0 -2
BITMAP
0000
1000
16E0
7CA0
17A0
1540
37A0
5900
53C0
5100
17E0
0000
ENDCHAR

STARTCHAR Cb3e0
ENCODING 46048
SWIDTH 1000 0
DWIDTH 12 0
BBX 12 12 0 -2
BITMAP
0000
1000
17E0
7D40
17C0
1540
3FE0
5540
57C0
5540
1FE0
0000
ENDCHAR

STARTCHAR Cb3e1
ENCODING 46049
SWIDTH 1000 0
DWIDTH 12 0
BBX 12 12 0 -2
BITMAP
0000
1000
17E0
7C20
17E0
1480
35E0
5C80
57E0
5480
18E0
0000
ENDCHAR

STARTCHAR Cb3e2
ENCODING 46050
SWIDTH 1000 0
DWIDTH 12 0
BBX 12 12 0 -2
BITMAP
0000
3280
5C80
24A0
75A0
5EC0
5480
7480
0D40
5540
5620
0000
ENDCHAR

STARTCHAR Cb3e3
ENCODING 46051
SWIDTH 1000 0
DWIDTH 12 0
BBX 12 12 0 -2
BITMAP
0000
4200
2CC0
0840
4CC0
2840
0FC0
2400
27E0
4920
52C0
0000
ENDCHAR

STARTCHAR Cb3e4
ENCODING 46052
SWIDTH 1000 0
DWIDTH 12 0
BBX 12 12 0 -2
BITMAP
0000
0820
7EA0
4AA0
3CA0
08A0
7EA0
00A0
3E20
2220
3E60
0000
ENDCHAR

STARTCHAR Cb3e5
ENCODING 46053
SWIDTH 1000 0
DWIDTH 12 0
BBX 12 12 0 -2
BITMAP
0000
07C0
7440
5440
57C0
5200
57E0
5C20
7720
0420
0760
0000
ENDCHAR

STARTCHAR Cb3e6
ENCODING 46054
SWIDTH 1000 0
DWIDTH 12 0
BBX 12 12 0 -2
BITMAP
0000
1100
1280
1440
5820
57C0
1000
17C0
1440
1440
17C0
0000
ENDCHAR

STARTCHAR Cb3e7
ENCODING 46055
SWIDTH 1000 0
DWIDTH 12 0
BBX 12 12 0 -2
BITMAP
0000
1060
1380
7880
17E0
1080
1880
73E0
1220
1220
33E0
0000
ENDCHAR

STARTCHAR Cb3e8
ENCODING 46056
SWIDTH 1000 0
DWIDTH 12 0
BBX 12 12 0 -2
BITMAP
0000
40C0
2700
0100
4FE0
2100
0100
27C0
2440
4440
47C0
0000
ENDCHAR

STARTCHAR Cb3e9
ENCODING 46057
SWIDTH 1000 0
DWIDTH 12 0
BBX 12 12 0 -2
BITMAP
0000
47C0
2440
0440
47C0
2200
07E0
2C20
2720
4420
4760
0000
ENDCHAR

STARTCHAR Cb3ea
ENCODING 46058
SWIDTH 1000 0
DWIDTH 12 0
BBX 12 12 0 -2
BITMAP
0000
47C0
2440
05C0
4540
2FE0
0820
27C0
2440
47C0
4440
0000
ENDCHAR

STARTCHAR Cb3eb
ENCODING 46059
SWIDTH 1000 0
DWIDTH 12 0
BBX 12 12 0 -2
BITMAP
0000
0900
7FE0
0900
1F80
1080
1FE0
3220
5C20
1120
1F60
0000
ENDCHAR

STARTCHAR Cb3ec
ENCODING 46060
SWIDTH 1000 0
DWIDTH 12 0
BBX 12 12 0 -2
BITMAP
0000
27C0
2440
7440
17C0
2200
23E0
7420
2F20
2420
2760
0000
ENDCHAR

STARTCHAR Cb3ed
ENCODING 46061
SWIDTH 1000 0
DWIDTH 12 0
BBX 12 12 0 -2
BITMAP
0000
1080
7FE0
12A0
7DC0
5480
57E0
7C00
13E0
7E20
13E0
0000
ENDCHAR

STARTCHAR Cb3ee
ENCODING 46062
SWIDTH 1000 0
DWIDTH 12 0
BBX 12 12 0 -2
BITMAP
0000
0000
1F80
1080
1F80
1080
1080
1F80
1080
1080
7FE0
0000
ENDCHAR

STARTCHAR Cb3ef
ENCODING 46063
SWIDTH 1000 0
DWIDTH 12 0
BBX 12 12 0 -2
BITMAP
0000
3000
56E0
24A0
77A0
5540
57A0
7080
01C0
5480
57E0
0000
ENDCHAR

STARTCHAR Cb3f0
ENCODING 46064
SWIDTH 1000 0
DWIDTH 12 0
BBX 12 12 0 -2
BITMAP
0000
0100
7900
4900
4900
4FE0
4900
4900
7900
0100
0100
0000
ENDCHAR

STARTCHAR Cb3f1
ENCODING 46065
SWIDTH 1000 0
DWIDTH 12 0
BBX 12 12 0 -2
BITMAP
0000
1240
17E0
7A40
1100
12A0
36C0
5A80
5280
52A0
12E0
0000
ENDCHAR

STARTCHAR Cb3f2
ENCODING 46066
SWIDTH 1000 0
DWIDTH 12 0
BBX 12 12 0 -2
BITMAP
0000
1240
17E0
7A40
17E0
1540
3FE0
5540
5FE0
5100
1100
0000
ENDCHAR

STARTCHAR Cb3f3
ENCODING 46067
SWIDTH 1000 0
DWIDTH 12 0
BBX 12 12 0 -2
BITMAP
0000
2A00
7FE0
2A20
7FA0
54A0
7CA0
13C0
7E00
1220
13E0
0000
ENDCHAR

STARTCHAR Cb3f4
ENCODING 46068
SWIDTH 1000 0
DWIDTH 12 0
BBX 12 12 0 -2
BITMAP
0000
1080
1280
7BC0
1280
1480
33E0
5880
51C0
52A0
14A0
0000
ENDCHAR

STARTCHAR Cb3f5
ENCODING 46069
SWIDTH 1000 0
DWIDTH 12 0
BBX 12 12 0 -2
BITMAP
0000
0400
2F60
4920
4F20
4920
6F60
0000
0A00
0A20
73E0
0000
ENDCHAR

STARTCHAR Cb3f6
ENCODING 46070
SWIDTH 1000 0
DWIDTH 12 0
BBX 12 12 0 -2
BITMAP
0000
0400
7FE0
5520
3FC0
1500
7FE0
2480
3F80
04A0
07E0
0000
ENDCHAR

STARTCHAR Cb3f7
ENCODING 46071
SWIDTH 1000 0
DWIDTH 12 0
BBX 12 12 0 -2
BITMAP
0000
1100
7FE0
1140
2FE0
1100
47E0
2520
17E0
2520
4560
0000
ENDCHAR

STARTCHAR Cb3f8
ENCODING 46072
SWIDTH 1000 0
DWIDTH 12 0
BBX 12 12 0 -2
BITMAP
0000
0900
1080
6960
0600
1980
6F60
0400
3FC0
1480
7FE0
0000
ENDCHAR

STARTCHAR Cb3f9
ENCODING 46073
SWIDTH 1000 0
DWIDTH 12 0
BBX 12 12 0 -2
BITMAP
0000
1440
2A80
47E0
3A80
17E0
7AA0
17E0
5280
1AC0
66A0
0000
ENDCHAR

STARTCHAR Cb3fa
ENCODING 46074
SWIDTH 1000 0
DWIDTH 12 0
BBX 12 12 0 -2
BITMAP
0000
0100
75C0
5500
5FE0
5440
56C0
5540
76C0
0440
07C0
0000
ENDCHAR

STARTCHAR Cb3fb
ENCODING 46075
SWIDTH 1000 0
DWIDTH 12 0
BBX 12 12 0 -2
BITMAP
0000
0080
7DC0
5540
7DC0
5540
55E0
7D00
11E0
1020
1560
0000
ENDCHAR

STARTCHAR Cb3fc
ENCODING 46076
SWIDTH 1000 0
DWIDTH 12 0
BBX 12 12 0 -2
BITMAP
0000
17E0
1080
7900
13E0
1220
3A20
57E0
5220
5220
13E0
0000
ENDCHAR

STARTCHAR Cb3fd
ENCODING 46077
SWIDTH 1000 0
DWIDTH 12 0
BBX 12 12 0 -2
BITMAP
0000
1100
7FE0
1100
3FC0
0080
0500
7FE0
0920
1140
6700
0000
ENDCHAR

STARTCHAR Cb3fe
ENCODING 46078
SWIDTH 1000 0
DWIDTH 12 0
BBX 12 12 0 -2
BITMAP
0000
1080
7FE0
1480
7FE0
4020
3FC0
1080
1F80
1080
7FE0
0000
ENDCHAR

STARTCHAR Cb4a1
ENCODING 46241
SWIDTH 1000 0
DWIDTH 12 0
BBX 12 12 0 -2
BITMAP
0000
72E0
1B20
1620
72E0
4F80
72E0
1720
1AA0
1220
62C0
0000
ENDCHAR

STARTCHAR Cb4a2
ENCODING 46242
SWIDTH 1000 0
DWIDTH 12 0
BBX 12 12 0 -2
BITMAP
0000
0420
0520
4520
2920
2920
1120
1120
2920
2420
44E0
0000
ENDCHAR

STARTCHAR Cb4a3
ENCODING 46243
SWIDTH 1000 0
DWIDTH 12 0
BBX 12 12 0 -2
BITMAP
0000
1100
7FE0
1100
0440
4540
2940
1140
1140
2840
41C0
0000
ENDCHAR

STARTCHAR Cb4a4
ENCODING 46244
SWIDTH 1000 0
DWIDTH 12 0
BBX 12 12 0 -2
BITMAP
0000
7FC0
0800
0800
0F80
1080
1480
1280
10A0
1FA0
60E0
0000
ENDCHAR

STARTCHAR Cb4a5
ENCODING 46245
SWIDTH 1000 0
DWIDTH 12 0
BBX 12 12 0 -2
BITMAP
0000
1200
7BE0
1400
7800
4BC0
4840
7880
1100
7A20
13E0
0000
ENDCHAR

STARTCHAR Cb4a6
ENCODING 46246
SWIDTH 1000 0
DWIDTH 12 0
BBX 12 12 0 -2
BITMAP
0000
1000
17C0
1440
2440
27C0
6000
2540
2540
2540
2860
0000
ENDCHAR

STARTCHAR Cb4a7
ENCODING 46247
SWIDTH 1000 0
DWIDTH 12 0
BBX 12 12 0 -2
BITMAP
0000
7FE0
4020
0040
3BE0
0040
7D40
2840
28C0
2820
4FE0
0000
ENDCHAR

STARTCHAR Cb4a8
ENCODING 46248
SWIDTH 1000 0
DWIDTH 12 0
BBX 12 12 0 -2
BITMAP
0000
0400
7FE0
4920
1F80
0900
7FE0
1480
6260
0C00
0300
0000
ENDCHAR

STARTCHAR Cb4a9
ENCODING 46249
SWIDTH 1000 0
DWIDTH 12 0
BBX 12 12 0 -2
BITMAP
0000
0020
7D20
1120
1120
1120
7D20
1120
1020
1020
10E0
0000
ENDCHAR

STARTCHAR Cb4aa
ENCODING 46250
SWIDTH 1000 0
DWIDTH 12 0
BBX 12 12 0 -2
BITMAP
0000
2480
7E80
25E0
3CA0
24A0
7EA0
54A0
66A0
4120
7D60
0000
ENDCHAR

STARTCHAR Cb4ab
ENCODING 46251
SWIDTH 1000 0
DWIDTH 12 0
BBX 12 12 0 -2
BITMAP
0000
2080
3E80
49E0
7EA0
28A0
3CA0
68A0
3D20
2920
3E60
0000
ENDCHAR

STARTCHAR Cb4ac
ENCODING 46252
SWIDTH 1000 0
DWIDTH 12 0
BBX 12 12 0 -2
BITMAP
0000
2440
1480
3FC0
0A00
7FE0
1280
2240
5E20
1080
1F80
0000
ENDCHAR

STARTCHAR Cb4ad
ENCODING 46253
SWIDTH 1000 0
DWIDTH 12 0
BBX 12 12 0 -2
BITMAP
0000
0380
7480
5100
5FC0
5540
59C0
5240
7FE0
0500
18C0
0000
ENDCHAR

STARTCHAR Cb4ae
ENCODING 46254
SWIDTH 1000 0
DWIDTH 12 0
BBX 12 12 0 -2
BITMAP
0000
1240
17E0
1240
7BC0
1240
1FE0
1540
1E60
6400
07E0
0000
ENDCHAR

STARTCHAR Cb4af
ENCODING 46255
SWIDTH 1000 0
DWIDTH 12 0
BBX 12 12 0 -2
BITMAP
0000
0400
3FC0
0900
0E00
31C0
0880
7FE0
1540
1980
6660
0000
ENDCHAR

STARTCHAR Cb4b0
ENCODING 46256
SWIDTH 1000 0
DWIDTH 12 0
BBX 12 12 0 -2
BITMAP
0000
0400
7FE0
4020
1F80
0000
7FE0
0900
0900
1120
61E0
0000
ENDCHAR

STARTCHAR Cb4b1
ENCODING 46257
SWIDTH 1000 0
DWIDTH 12 0
BBX 12 12 0 -2
BITMAP
0000
0400
7FE0
4020
1F80
1080
1F80
1000
1FC0
1040
1FC0
0000
ENDCHAR

STARTCHAR Cb4b2
ENCODING 46258
SWIDTH 1000 0
DWIDTH 12 0
BBX 12 12 0 -2
BITMAP
0000
0400
7FE0
4920
3FC0
1080
1F80
1080
1F80
0920
71E0
0000
ENDCHAR

STARTCHAR Cb4b3
ENCODING 46259
SWIDTH 1000 0
DWIDTH 12 0
BBX 12 12 0 -2
BITMAP
0000
0000
3FC0
0400
0400
0400
7FE0
0400
0400
0400
0400
0000
ENDCHAR

STARTCHAR Cb4b4
ENCODING 46260
SWIDTH 1000 0
DWIDTH 12 0
BBX 12 12 0 -2
BITMAP
0000
1100
7A80
1440
7BA0
4900
4900
7FC0
1100
7900
1100
0000
ENDCHAR

STARTCHAR Cb4b5
ENCODING 46261
SWIDTH 1000 0
DWIDTH 12 0
BBX 12 12 0 -2
BITMAP
0000
0400
1F80
1480
3FC0
2440
3FC0
0400
2A40
28A0
4FA0
0000
ENDCHAR

STARTCHAR Cb4b6
ENCODING 46262
SWIDTH 1000 0
DWIDTH 12 0
BBX 12 12 0 -2
BITMAP
0000
00A0
3FE0
2080
3EA0
2A40
2E40
40A0
0A00
2940
4F20
0000
ENDCHAR

STARTCHAR Cb4b7
ENCODING 46263
SWIDTH 1000 0
DWIDTH 12 0
BBX 12 12 0 -2
BITMAP
0000
17C0
1540
1FE0
5540
57E0
1420
1420
17E0
1280
1C60
0000
ENDCHAR

STARTCHAR Cb4b8
ENCODING 46264
SWIDTH 1000 0
DWIDTH 12 0
BBX 12 12 0 -2
BITMAP
0000
20A0
2FE0
3880
6FA0
2AA0
2E40
30A0
2500
2C40
37A0
0000
ENDCHAR

STARTCHAR Cb4b9
ENCODING 46265
SWIDTH 1000 0
DWIDTH 12 0
BBX 12 12 0 -2
BITMAP
0000
1200
1380
7C80
17C0
1540
1EC0
7440
1FE0
1280
3C60
0000
ENDCHAR

STARTCHAR Cb4ba
ENCODING 46266
SWIDTH 1000 0
DWIDTH 12 0
BBX 12 12 0 -2
BITMAP
0000
3900
1100
7DE0
2A40
3D40
2940
3880
2880
7940
0A20
0000
ENDCHAR

STARTCHAR Cb4bb
ENCODING 46267
SWIDTH 1000 0
DWIDTH 12 0
BBX 12 12 0 -2
BITMAP
0000
1240
1240
7FE0
1240
1240
3BC0
5640
5240
5240
13C0
0000
ENDCHAR

STARTCHAR Cb4bc
ENCODING 46268
SWIDTH 1000 0
DWIDTH 12 0
BBX 12 12 0 -2
BITMAP
0000
1000
17E0
7800
13C0
1240
3BC0
5640
53C0
5000
17E0
0000
ENDCHAR

STARTCHAR Cb4bd
ENCODING 46269
SWIDTH 1000 0
DWIDTH 12 0
BBX 12 12 0 -2
BITMAP
0000
1100
17E0
7C20
13C0
1240
3BC0
5600
53E0
5220
13E0
0000
ENDCHAR

STARTCHAR Cb4be
ENCODING 46270
SWIDTH 1000 0
DWIDTH 12 0
BBX 12 12 0 -2
BITMAP
0000
1100
7D00
11E0
3AA0
0080
3880
0140
7D40
1220
5420
0000
ENDCHAR

STARTCHAR Cb4bf
ENCODING 46271
SWIDTH 1000 0
DWIDTH 12 0
BBX 12 12 0 -2
BITMAP
0000
2100
3D00
51E0
7EA0
2A80
3C80
6880
3D40
2940
3E20
0000
ENDCHAR

STARTCHAR Cb4c0
ENCODING 46272
SWIDTH 1000 0
DWIDTH 12 0
BBX 12 12 0 -2
BITMAP
0000
4000
27C0
0100
4100
2100
0FE0
2100
2100
4100
4100
0000
ENDCHAR

STARTCHAR Cb4c1
ENCODING 46273
SWIDTH 1000 0
DWIDTH 12 0
BBX 12 12 0 -2
BITMAP
0000
4280
2FE0
0280
47C0
2540
0FE0
2100
2FE0
4280
4C60
0000
ENDCHAR

STARTCHAR Cb4c2
ENCODING 46274
SWIDTH 1000 0
DWIDTH 12 0
BBX 12 12 0 -2
BITMAP
0000
4EE0
2AA0
0EE0
4AA0
2FE0
0AA0
2BA0
2AA0
4BA0
4860
0000
ENDCHAR

STARTCHAR Cb4c3
ENCODING 46275
SWIDTH 1000 0
DWIDTH 12 0
BBX 12 12 0 -2
BITMAP
0000
4800
2FC0
1400
47E0
2900
1FC0
2900
2FC0
4900
4FE0
0000
ENDCHAR

STARTCHAR Cb4c4
ENCODING 46276
SWIDTH 1000 0
DWIDTH 12 0
BBX 12 12 0 -2
BITMAP
0000
0FC0
7A40
2FC0
2000
7FE0
2480
3780
4D40
1480
0E60
0000
ENDCHAR

STARTCHAR Cb4c5
ENCODING 46277
SWIDTH 1000 0
DWIDTH 12 0
BBX 12 12 0 -2
BITMAP
0000
1080
1080
7FE0
1080
1080
1F80
1080
1080
1080
1F80
0000
ENDCHAR

STARTCHAR Cb4c6
ENCODING 46278
SWIDTH 1000 0
DWIDTH 12 0
BBX 12 12 0 -2
BITMAP
0000
7D00
51E0
7900
4A00
79E0
5000
7FC0
2940
2940
7FE0
0000
ENDCHAR

STARTCHAR Cb4c7
ENCODING 46279
SWIDTH 1000 0
DWIDTH 12 0
BBX 12 12 0 -2
BITMAP
0000
0180
3E00
0400
3FC0
0800
7FE0
1080
3F80
5080
1F80
0000
ENDCHAR

STARTCHAR Cb4c8
ENCODING 46280
SWIDTH 1000 0
DWIDTH 12 0
BBX 12 12 0 -2
BITMAP
0000
2100
3DE0
5280
0000
3F80
0400
7FE0
0400
0400
0400
0000
ENDCHAR

STARTCHAR Cb4c9
ENCODING 46281
SWIDTH 1000 0
DWIDTH 12 0
BBX 12 12 0 -2
BITMAP
0000
2100
3DE0
5280
7FE0
50A0
1F80
1000
1FC0
1040
1FC0
0000
ENDCHAR

STARTCHAR Cb4ca
ENCODING 46282
SWIDTH 1000 0
DWIDTH 12 0
BBX 12 12 0 -2
BITMAP
0000
2100
3DE0
5280
3DE0
2520
3FE0
2920
2F20
2920
2F60
0000
ENDCHAR

STARTCHAR Cb4cb
ENCODING 46283
SWIDTH 1000 0
DWIDTH 12 0
BBX 12 12 0 -2
BITMAP
0000
10E0
2700
6820
1540
27E0
7900
17E0
52A0
5440
19A0
0000
ENDCHAR

STARTCHAR Cb4cc
ENCODING 46284
SWIDTH 1000 0
DWIDTH 12 0
BBX 12 12 0 -2
BITMAP
0000
1000
1000
1FC0
2400
4400
7FE0
0400
2440
2440
3FC0
0000
ENDCHAR

STARTCHAR Cb4cd
ENCODING 46285
SWIDTH 1000 0
DWIDTH 12 0
BBX 12 12 0 -2
BITMAP
0000
2100
7280
2440
7FE0
5240
5B40
76C0
2B40
7240
26C0
0000
ENDCHAR

STARTCHAR Cb4ce
ENCODING 46286
SWIDTH 1000 0
DWIDTH 12 0
BBX 12 12 0 -2
BITMAP
0000
0000
3BE0
2880
3880
2880
2FE0
3880
2880
4880
5880
0000
ENDCHAR

STARTCHAR Cb4cf
ENCODING 46287
SWIDTH 1000 0
DWIDTH 12 0
BBX 12 12 0 -2
BITMAP
0000
2E80
78E0
4F00
6A00
4EE0
7800
4FC0
4940
4940
5FE0
0000
ENDCHAR

STARTCHAR Cb4d0
ENCODING 46288
SWIDTH 1000 0
DWIDTH 12 0
BBX 12 12 0 -2
BITMAP
0000
1080
7FE0
1480
7FE0
4020
5FA0
0000
3FC0
0920
71E0
0000
ENDCHAR

STARTCHAR Cb4d1
ENCODING 46289
SWIDTH 1000 0
DWIDTH 12 0
BBX 12 12 0 -2
BITMAP
0000
23C0
3E40
4BC0
7E40
2BC0
3E40
6BC0
3E80
2AA0
3CE0
0000
ENDCHAR

STARTCHAR Cb4d2
ENCODING 46290
SWIDTH 1000 0
DWIDTH 12 0
BBX 12 12 0 -2
BITMAP
0000
2100
7FE0
0100
77C0
0540
77C0
0540
77C0
5540
7920
0000
ENDCHAR

STARTCHAR Cb4d3
ENCODING 46291
SWIDTH 1000 0
DWIDTH 12 0
BBX 12 12 0 -2
BITMAP
0000
1FC0
1240
7FE0
2480
3FC0
2040
3FC0
2040
3FC0
6060
0000
ENDCHAR

STARTCHAR Cb4d4
ENCODING 46292
SWIDTH 1000 0
DWIDTH 12 0
BBX 12 12 0 -2
BITMAP
0000
4FE0
2AA0
2FE0
0440
07C0
62A0
2640
2B20
2000
5FE0
0000
ENDCHAR

STARTCHAR Cb4d5
ENCODING 46293
SWIDTH 1000 0
DWIDTH 12 0
BBX 12 12 0 -2
BITMAP
0000
1740
2C60
4780
3D00
1760
7C00
17C0
5D40
1540
6FE0
0000
ENDCHAR

STARTCHAR Cb4d6
ENCODING 46294
SWIDTH 1000 0
DWIDTH 12 0
BBX 12 12 0 -2
BITMAP
0000
79E0
4920
79E0
4920
79E0
4F20
4920
4F20
4920
4F60
0000
ENDCHAR

STARTCHAR Cb4d7
ENCODING 46295
SWIDTH 1000 0
DWIDTH 12 0
BBX 12 12 0 -2
BITMAP
0000
79E0
4920
79E0
4420
4420
7FA0
5520
5520
64A0
4460
0000
ENDCHAR

STARTCHAR Cb4d8
ENCODING 46296
SWIDTH 1000 0
DWIDTH 12 0
BBX 12 12 0 -2
BITMAP
0000
79E0
4920
79E0
4A20
5F20
4420
5FA0
4420
4A20
5160
0000
ENDCHAR

STARTCHAR Cb4d9
ENCODING 46297
SWIDTH 1000 0
DWIDTH 12 0
BBX 12 12 0 -2
BITMAP
0000
7200
53E0
5440
6880
55E0
5520
55E0
6520
4520
45E0
0000
ENDCHAR

STARTCHAR Cb4da
ENCODING 46298
SWIDTH 1000 0
DWIDTH 12 0
BBX 12 12 0 -2
BITMAP
0000
1080
7BC0
1140
7FE0
4A40
4BE0
7940
1240
7FE0
1040
0000
ENDCHAR

STARTCHAR Cb4db
ENCODING 46299
SWIDTH 1000 0
DWIDTH 12 0
BBX 12 12 0 -2
BITMAP
0000
1080
2BE0
5620
39C0
2940
29C0
3900
21E0
2920
75E0
0000
ENDCHAR

STARTCHAR Cb4dc
ENCODING 46300
SWIDTH 1000 0
DWIDTH 12 0
BBX 12 12 0 -2
BITMAP
0000
1100
2FE0
4420
3BC0
1240
7FC0
1200
3BE0
2A20
3BE0
0000
ENDCHAR

STARTCHAR Cb4dd
ENCODING 46301
SWIDTH 1000 0
DWIDTH 12 0
BBX 12 12 0 -2
BITMAP
0000
0800
0800
7F00
0900
0900
2900
1900
1520
2120
41E0
0000
ENDCHAR

STARTCHAR Cb4de
ENCODING 46302
SWIDTH 1000 0
DWIDTH 12 0
BBX 12 12 0 -2
BITMAP
0000
0600
0900
1080
6F60
0000
1F80
0100
3FC0
2040
3FC0
0000
ENDCHAR

STARTCHAR Cb4df
ENCODING 46303
SWIDTH 1000 0
DWIDTH 12 0
BBX 12 12 0 -2
BITMAP
0000
2440
3FC0
0000
3FE0
2000
2F80
2200
3FE0
4200
4200
0000
ENDCHAR

STARTCHAR Cb4e0
ENCODING 46304
SWIDTH 1000 0
DWIDTH 12 0
BBX 12 12 0 -2
BITMAP
0000
2220
3FE0
1480
3FE0
2900
3FE0
2540
2540
3C80
4560
0000
ENDCHAR

STARTCHAR Cb4e1
ENCODING 46305
SWIDTH 1000 0
DWIDTH 12 0
BBX 12 12 0 -2
BITMAP
0000
0000
7BC0
1000
1000
7FE0
1280
1280
1A80
64A0
08E0
0000
ENDCHAR

STARTCHAR Cb4e2
ENCODING 46306
SWIDTH 1000 0
DWIDTH 12 0
BBX 12 12 0 -2
BITMAP
0000
0200
3FE0
2880
6F80
2000
3DE0
6520
3DE0
5240
5FC0
0000
ENDCHAR

STARTCHAR Cb4e3
ENCODING 46307
SWIDTH 1000 0
DWIDTH 12 0
BBX 12 12 0 -2
BITMAP
0000
77C0
5440
77C0
5440
57C0
7480
54A0
5440
7740
0C20
0000
ENDCHAR

STARTCHAR Cb4e4
ENCODING 46308
SWIDTH 1000 0
DWIDTH 12 0
BBX 12 12 0 -2
BITMAP
0000
0400
2440
3FC0
0000
7FE0
0800
1FC0
3040
5040
1FC0
0000
ENDCHAR

STARTCHAR Cb4e5
ENCODING 46309
SWIDTH 1000 0
DWIDTH 12 0
BBX 12 12 0 -2
BITMAP
0000
6DC0
2400
6C00
27E0
6D40
1140
7D40
4540
4540
7E60
0000
ENDCHAR

STARTCHAR Cb4e6
ENCODING 46310
SWIDTH 1000 0
DWIDTH 12 0
BBX 12 12 0 -2
BITMAP
0000
3FE0
2540
2BE0
3940
2FE0
2840
2FC0
2840
4FC0
5860
0000
ENDCHAR

STARTCHAR Cb4e7
ENCODING 46311
SWIDTH 1000 0
DWIDTH 12 0
BBX 12 12 0 -2
BITMAP
0000
0000
3FE0
24A0
2540
29E0
2B40
39E0
2940
4940
49E0
0000
ENDCHAR

STARTCHAR Cb4e8
ENCODING 46312
SWIDTH 1000 0
DWIDTH 12 0
BBX 12 12 0 -2
BITMAP
0000
03E0
3880
03E0
0220
7FE0
2A20
2A20
2BE0
2940
4E20
0000
ENDCHAR

STARTCHAR Cb4e9
ENCODING 46313
SWIDTH 1000 0
DWIDTH 12 0
BBX 12 12 0 -2
BITMAP
0000
09E0
3E80
15E0
3F20
21E0
2520
3920
21E0
4540
5A20
0000
ENDCHAR

STARTCHAR Cb4ea
ENCODING 46314
SWIDTH 1000 0
DWIDTH 12 0
BBX 12 12 0 -2
BITMAP
0000
3FE0
2880
3FE0
2220
3FE0
2220
3E20
2BE0
5940
4A20
0000
ENDCHAR

STARTCHAR Cb4eb
ENCODING 46315
SWIDTH 1000 0
DWIDTH 12 0
BBX 12 12 0 -2
BITMAP
0000
0600
0900
1080
6060
0400
2400
2780
2400
2400
7FE0
0000
ENDCHAR

STARTCHAR Cb4ec
ENCODING 46316
SWIDTH 1000 0
DWIDTH 12 0
BBX 12 12 0 -2
BITMAP
0000
1100
1FE0
1100
2100
2FC0
6440
2280
2100
2280
2C60
0000
ENDCHAR

STARTCHAR Cb4ed
ENCODING 46317
SWIDTH 1000 0
DWIDTH 12 0
BBX 12 12 0 -2
BITMAP
0000
0800
0F80
1100
3FE0
6000
2F80
2880
2980
2820
4FE0
0000
ENDCHAR

STARTCHAR Cb4ee
ENCODING 46318
SWIDTH 1000 0
DWIDTH 12 0
BBX 12 12 0 -2
BITMAP
0000
0400
7FE0
0400
3FC0
1080
1F80
0900
7FE0
2040
3FC0
0000
ENDCHAR

STARTCHAR Cb4ef
ENCODING 46319
SWIDTH 1000 0
DWIDTH 12 0
BBX 12 12 0 -2
BITMAP
0000
3BC0
2A40
3BC0
0400
7FE0
0900
1080
7BE0
2A40
3BC0
0000
ENDCHAR

STARTCHAR Cb4f0
ENCODING 46320
SWIDTH 1000 0
DWIDTH 12 0
BBX 12 12 0 -2
BITMAP
0000
1080
3FC0
1080
1F80
1080
7FE0
1480
2F40
4420
3FC0
0000
ENDCHAR

STARTCHAR Cb4f1
ENCODING 46321
SWIDTH 1000 0
DWIDTH 12 0
BBX 12 12 0 -2
BITMAP
0000
0400
3FC0
0A00
1100
7FE0
0040
3E40
2240
3E40
01C0
0000
ENDCHAR

STARTCHAR Cb4f2
ENCODING 46322
SWIDTH 1000 0
DWIDTH 12 0
BBX 12 12 0 -2
BITMAP
0000
2100
2FE0
7900
2FE0
2840
4FC0
7280
1FE0
2440
47C0
0000
ENDCHAR

STARTCHAR Cb4f3
ENCODING 46323
SWIDTH 1000 0
DWIDTH 12 0
BBX 12 12 0 -2
BITMAP
0000
0400
7FE0
4420
3FC0
0900
1080
7FE0
2240
3E40
01C0
0000
ENDCHAR

STARTCHAR Cb4f4
ENCODING 46324
SWIDTH 1000 0
DWIDTH 12 0
BBX 12 12 0 -2
BITMAP
0000
1080
13E0
5480
5480
57E0
5520
5540
5480
7D40
0620
0000
ENDCHAR

STARTCHAR Cb4f5
ENCODING 46325
SWIDTH 1000 0
DWIDTH 12 0
BBX 12 12 0 -2
BITMAP
0000
1980
0600
3980
0800
7FE0
1200
3FC0
5240
12C0
0200
0000
ENDCHAR

STARTCHAR Cb4f6
ENCODING 46326
SWIDTH 1000 0
DWIDTH 12 0
BBX 12 12 0 -2
BITMAP
0000
1480
2500
6F40
1480
2520
7FE0
2240
3140
28A0
4360
0000
ENDCHAR

STARTCHAR Cb4f7
ENCODING 46327
SWIDTH 1000 0
DWIDTH 12 0
BBX 12 12 0 -2
BITMAP
0000
3F80
0080
0080
3F80
2020
3FE0
0200
2940
2820
4FA0
0000
ENDCHAR

STARTCHAR Cb4f8
ENCODING 46328
SWIDTH 1000 0
DWIDTH 12 0
BBX 12 12 0 -2
BITMAP
0000
2FE0
2920
7FE0
2540
27C0
3540
67C0
2100
2FE0
6100
0000
ENDCHAR

STARTCHAR Cb4f9
ENCODING 46329
SWIDTH 1000 0
DWIDTH 12 0
BBX 12 12 0 -2
BITMAP
0000
1000
1780
7C80
1480
1480
3480
5C80
54A0
54A0
18E0
0000
ENDCHAR

STARTCHAR Cb4fa
ENCODING 46330
SWIDTH 1000 0
DWIDTH 12 0
BBX 12 12 0 -2
BITMAP
0000
1200
17E0
7A40
27E0
3A40
2BC0
2A40
2FE0
4A40
5420
0000
ENDCHAR

STARTCHAR Cb4fb
ENCODING 46331
SWIDTH 1000 0
DWIDTH 12 0
BBX 12 12 0 -2
BITMAP
0000
0000
3FE0
2480
3C80
27E0
3C80
2080
2140
3D40
6260
0000
ENDCHAR

STARTCHAR Cb4fc
ENCODING 46332
SWIDTH 1000 0
DWIDTH 12 0
BBX 12 12 0 -2
BITMAP
0000
25E0
7F20
2520
3DE0
2520
3D20
25E0
7F20
2520
4260
0000
ENDCHAR

STARTCHAR Cb4fd
ENCODING 46333
SWIDTH 1000 0
DWIDTH 12 0
BBX 12 12 0 -2
BITMAP
0000
1240
17E0
7A40
13C0
1240
33C0
5A40
57E0
5240
1420
0000
ENDCHAR

STARTCHAR Cb4fe
ENCODING 46334
SWIDTH 1000 0
DWIDTH 12 0
BBX 12 12 0 -2
BITMAP
0000
0400
7FE0
1080
3F40
1480
7FE0
1480
7FE0
1480
6460
0000
ENDCHAR

STARTCHAR Cb5a1
ENCODING 46497
SWIDTH 1000 0
DWIDTH 12 0
BBX 12 12 0 -2
BITMAP
0000
1100
1320
7D40
1320
1540
37E0
5480
56A0
5440
19A0
0000
ENDCHAR

STARTCHAR Cb5a2
ENCODING 46498
SWIDTH 1000 0
DWIDTH 12 0
BBX 12 12 0 -2
BITMAP
0000
17C0
1040
57C0
5040
5FE0
5120
57C0
1540
25C0
4100
0000
ENDCHAR

STARTCHAR Cb5a3
ENCODING 46499
SWIDTH 1000 0
DWIDTH 12 0
BBX 12 12 0 -2
BITMAP
0000
1000
7DC0
2940
7D60
1200
2BC0
4940
1480
2540
5A20
0000
ENDCHAR

STARTCHAR Cb5a4
ENCODING 46500
SWIDTH 1000 0
DWIDTH 12 0
BBX 12 12 0 -2
BITMAP
0000
1000
1FC0
2000
5F80
0000
7F80
1480
08A0
14A0
6260
0000
ENDCHAR

STARTCHAR Cb5a5
ENCODING 46501
SWIDTH 1000 0
DWIDTH 12 0
BBX 12 12 0 -2
BITMAP
0000
4400
27C0
0800
4780
2000
0F80
2080
20A0
40A0
4060
0000
ENDCHAR

STARTCHAR Cb5a6
ENCODING 46502
SWIDTH 1000 0
DWIDTH 12 0
BBX 12 12 0 -2
BITMAP
0000
1240
2280
1240
2AA0
7FE0
2A00
3F40
2A80
3EA0
0160
0000
ENDCHAR

STARTCHAR Cb5a7
ENCODING 46503
SWIDTH 1000 0
DWIDTH 12 0
BBX 12 12 0 -2
BITMAP
0000
1040
1380
7A00
0A00
13E0
1240
3A40
5240
1240
1440
0000
ENDCHAR

STARTCHAR Cb5a8
ENCODING 46504
SWIDTH 1000 0
DWIDTH 12 0
BBX 12 12 0 -2
BITMAP
0000
0180
3E00
0400
7FE0
2440
5FA0
0100
7FE0
0200
0E00
0000
ENDCHAR

STARTCHAR Cb5a9
ENCODING 46505
SWIDTH 1000 0
DWIDTH 12 0
BBX 12 12 0 -2
BITMAP
0000
0A40
7180
1640
1120
7FE0
1280
37E0
5AA0
52E0
1080
0000
ENDCHAR

STARTCHAR Cb5aa
ENCODING 46506
SWIDTH 1000 0
DWIDTH 12 0
BBX 12 12 0 -2
BITMAP
0000
1000
23E0
6820
1020
23E0
7E00
1200
5A20
5220
13E0
0000
ENDCHAR

STARTCHAR Cb5ab
ENCODING 46507
SWIDTH 1000 0
DWIDTH 12 0
BBX 12 12 0 -2
BITMAP
0000
2A80
2FE0
42A0
14A0
22A0
6540
2F40
2240
26A0
2AA0
0000
ENDCHAR

STARTCHAR Cb5ac
ENCODING 46508
SWIDTH 1000 0
DWIDTH 12 0
BBX 12 12 0 -2
BITMAP
0000
17C0
1440
7FC0
1440
17C0
7C40
17C0
2A80
22A0
4CE0
0000
ENDCHAR

STARTCHAR Cb5ad
ENCODING 46509
SWIDTH 1000 0
DWIDTH 12 0
BBX 12 12 0 -2
BITMAP
0000
3800
03E0
7820
0020
3BE0
0200
3A00
2A20
2A20
3BE0
0000
ENDCHAR

STARTCHAR Cb5ae
ENCODING 46510
SWIDTH 1000 0
DWIDTH 12 0
BBX 12 12 0 -2
BITMAP
0000
0400
3F80
2480
7FE0
2080
3F80
2080
3F80
1100
60E0
0000
ENDCHAR

STARTCHAR Cb5af
ENCODING 46511
SWIDTH 1000 0
DWIDTH 12 0
BBX 12 12 0 -2
BITMAP
0000
0800
09E0
3C20
09E0
7F00
0900
2F20
29E0
5800
47E0
0000
ENDCHAR

STARTCHAR Cb5b0
ENCODING 46512
SWIDTH 1000 0
DWIDTH 12 0
BBX 12 12 0 -2
BITMAP
0000
1100
7D00
13C0
7D40
5540
5540
7D40
1140
7E40
1260
0000
ENDCHAR

STARTCHAR Cb5b1
ENCODING 46513
SWIDTH 1000 0
DWIDTH 12 0
BBX 12 12 0 -2
BITMAP
0000
13E0
56A0
59C0
12A0
7FE0
2AA0
2BE0
2C80
4BE0
4080
0000
ENDCHAR

STARTCHAR Cb5b2
ENCODING 46514
SWIDTH 1000 0
DWIDTH 12 0
BBX 12 12 0 -2
BITMAP
0000
1000
2B80
5680
3A80
2A80
2A80
3A80
22A0
2AA0
74E0
0000
ENDCHAR

STARTCHAR Cb5b3
ENCODING 46515
SWIDTH 1000 0
DWIDTH 12 0
BBX 12 12 0 -2
BITMAP
0000
7900
57C0
7A80
5440
7FE0
5040
7F40
0940
4F40
58C0
0000
ENDCHAR

STARTCHAR Cb5b4
ENCODING 46516
SWIDTH 1000 0
DWIDTH 12 0
BBX 12 12 0 -2
BITMAP
0000
0400
3FC0
2440
3FC0
2440
3FC0
0A80
0BC0
1220
63E0
0000
ENDCHAR

STARTCHAR Cb5b5
ENCODING 46517
SWIDTH 1000 0
DWIDTH 12 0
BBX 12 12 0 -2
BITMAP
0000
1000
1F00
2200
7F00
2900
7F80
4880
7F80
48A0
0FE0
0000
ENDCHAR

STARTCHAR Cb5b6
ENCODING 46518
SWIDTH 1000 0
DWIDTH 12 0
BBX 12 12 0 -2
BITMAP
0000
1480
1500
1F80
2280
27C0
6440
2FE0
3020
2520
24C0
0000
ENDCHAR

STARTCHAR Cb5b7
ENCODING 46519
SWIDTH 1000 0
DWIDTH 12 0
BBX 12 12 0 -2
BITMAP
0000
1480
1FE0
1100
2FE0
2500
6FE0
2540
2F40
24A0
2D60
0000
ENDCHAR

STARTCHAR Cb5b8
ENCODING 46520
SWIDTH 1000 0
DWIDTH 12 0
BBX 12 12 0 -2
BITMAP
0000
2100
27E0
7900
2900
2FC0
4A40
6A80
1100
2A80
4460
0000
ENDCHAR

STARTCHAR Cb5b9
ENCODING 46521
SWIDTH 1000 0
DWIDTH 12 0
BBX 12 12 0 -2
BITMAP
0000
0400
7FE0
4020
1F80
1080
1F80
1080
1F80
1080
7FE0
0000
ENDCHAR

STARTCHAR Cb5ba
ENCODING 46522
SWIDTH 1000 0
DWIDTH 12 0
BBX 12 12 0 -2
BITMAP
0000
0880
0EA0
0880
3FE0
2880
2EA0
20A0
5440
5540
3EA0
0000
ENDCHAR

STARTCHAR Cb5bb
ENCODING 46523
SWIDTH 1000 0
DWIDTH 12 0
BBX 12 12 0 -2
BITMAP
0000
1080
17E0
7880
1080
17E0
1A20
7140
1080
1140
3620
0000
ENDCHAR

STARTCHAR Cb5bc
ENCODING 46524
SWIDTH 1000 0
DWIDTH 12 0
BBX 12 12 0 -2
BITMAP
0000
29E0
2C20
7AA0
2E40
29E0
2E40
7560
2F40
2540
6AE0
0000
ENDCHAR

STARTCHAR Cb5bd
ENCODING 46525
SWIDTH 1000 0
DWIDTH 12 0
BBX 12 12 0 -2
BITMAP
0000
2500
7F00
25E0
3EA0
2480
3C80
2480
7F40
2540
4220
0000
ENDCHAR

STARTCHAR Cb5be
ENCODING 46526
SWIDTH 1000 0
DWIDTH 12 0
BBX 12 12 0 -2
BITMAP
0000
1280
5FE0
7100
5FC0
5500
1FE0
3540
5F40
14A0
1D60
0000
ENDCHAR

STARTCHAR Cb5bf
ENCODING 46527
SWIDTH 1000 0
DWIDTH 12 0
BBX 12 12 0 -2
BITMAP
0000
4BE0
7020
4940
7BE0
20A0
3880
52E0
3A80
1280
6DE0
0000
ENDCHAR

STARTCHAR Cb5c0
ENCODING 46528
SWIDTH 1000 0
DWIDTH 12 0
BBX 12 12 0 -2
BITMAP
0000
1020
13C0
7A80
0A80
13E0
1280
3A80
5240
1240
1720
0000
ENDCHAR

STARTCHAR Cb5c1
ENCODING 46529
SWIDTH 1000 0
DWIDTH 12 0
BBX 12 12 0 -2
BITMAP
0000
0900
3FC0
0200
3FC0
1200
7FE0
1140
7D40
10A0
3360
0000
ENDCHAR

STARTCHAR Cb5c2
ENCODING 46530
SWIDTH 1000 0
DWIDTH 12 0
BBX 12 12 0 -2
BITMAP
0000
2480
2FE0
7100
5FC0
5500
7FE0
2480
2EA0
3440
6DA0
0000
ENDCHAR

STARTCHAR Cb5c3
ENCODING 46531
SWIDTH 1000 0
DWIDTH 12 0
BBX 12 12 0 -2
BITMAP
0000
3900
07E0
7C20
03C0
3A40
03C0
3A40
2BC0
2A40
3FE0
0000
ENDCHAR

STARTCHAR Cb5c4
ENCODING 46532
SWIDTH 1000 0
DWIDTH 12 0
BBX 12 12 0 -2
BITMAP
0000
7240
07E0
7880
07E0
7280
07E0
7280
57A0
5240
76A0
0000
ENDCHAR

STARTCHAR Cb5c5
ENCODING 46533
SWIDTH 1000 0
DWIDTH 12 0
BBX 12 12 0 -2
BITMAP
0000
1400
17E0
7AA0
1720
1220
1FE0
7220
1720
1AA0
32C0
0000
ENDCHAR

STARTCHAR Cb5c6
ENCODING 46534
SWIDTH 1000 0
DWIDTH 12 0
BBX 12 12 0 -2
BITMAP
0000
0900
7FE0
2900
3FC0
2440
5540
3FC0
1440
2640
4580
0000
ENDCHAR

STARTCHAR Cb5c7
ENCODING 46535
SWIDTH 1000 0
DWIDTH 12 0
BBX 12 12 0 -2
BITMAP
0000
2A00
7FE0
2920
13A0
7D20
57E0
7D20
13A0
7D20
1160
0000
ENDCHAR

STARTCHAR Cb5c8
ENCODING 46536
SWIDTH 1000 0
DWIDTH 12 0
BBX 12 12 0 -2
BITMAP
0000
0400
7FE0
0400
0400
3FC0
0000
3FC0
2040
2040
3FC0
0000
ENDCHAR

STARTCHAR Cb5c9
ENCODING 46537
SWIDTH 1000 0
DWIDTH 12 0
BBX 12 12 0 -2
BITMAP
0000
0400
77E0
5400
5800
57C0
5080
5100
7220
0420
07E0
0000
ENDCHAR

STARTCHAR Cb5ca
ENCODING 46538
SWIDTH 1000 0
DWIDTH 12 0
BBX 12 12 0 -2
BITMAP
0000
0400
7FE0
54A0
5EA0
5520
5E60
5100
7FE0
0280
0C60
0000
ENDCHAR

STARTCHAR Cb5cb
ENCODING 46539
SWIDTH 1000 0
DWIDTH 12 0
BBX 12 12 0 -2
BITMAP
0000
1080
17E0
7880
1080
13E0
3800
53E0
5220
5220
13E0
0000
ENDCHAR

STARTCHAR Cb5cc
ENCODING 46540
SWIDTH 1000 0
DWIDTH 12 0
BBX 12 12 0 -2
BITMAP
0000
13C0
1040
7FE0
12A0
1480
3FE0
54A0
57E0
5520
1760
0000
ENDCHAR

STARTCHAR Cb5cd
ENCODING 46541
SWIDTH 1000 0
DWIDTH 12 0
BBX 12 12 0 -2
BITMAP
0000
3880
03E0
7C80
0080
3BE0
0000
3BE0
2A20
2A20
3BE0
0000
ENDCHAR

STARTCHAR Cb5ce
ENCODING 46542
SWIDTH 1000 0
DWIDTH 12 0
BBX 12 12 0 -2
BITMAP
0000
0080
7C80
10E0
2080
3880
6BE0
2A20
2A20
3A20
03E0
0000
ENDCHAR

STARTCHAR Cb5cf
ENCODING 46543
SWIDTH 1000 0
DWIDTH 12 0
BBX 12 12 0 -2
BITMAP
0000
1200
13C0
7D00
1500
1100
37E0
5900
5100
5100
1100
0000
ENDCHAR

STARTCHAR Cb5d0
ENCODING 46544
SWIDTH 1000 0
DWIDTH 12 0
BBX 12 12 0 -2
BITMAP
0000
3F80
0400
7FC0
2480
4A40
1500
64C0
1680
0D00
34C0
0000
ENDCHAR

STARTCHAR Cb5d1
ENCODING 46545
SWIDTH 1000 0
DWIDTH 12 0
BBX 12 12 0 -2
BITMAP
0000
1000
11E0
7D20
1120
1120
7F20
1120
2560
7B00
0100
0000
ENDCHAR

STARTCHAR Cb5d2
ENCODING 46546
SWIDTH 1000 0
DWIDTH 12 0
BBX 12 12 0 -2
BITMAP
0000
0400
7FE0
4820
0F80
3900
0600
1980
6F60
0900
0F00
0000
ENDCHAR

STARTCHAR Cb5d3
ENCODING 46547
SWIDTH 1000 0
DWIDTH 12 0
BBX 12 12 0 -2
BITMAP
0000
3A00
2FE0
2AA0
3AA0
2FA0
2AA0
3CA0
28E0
4F80
5880
0000
ENDCHAR

STARTCHAR Cb5d4
ENCODING 46548
SWIDTH 1000 0
DWIDTH 12 0
BBX 12 12 0 -2
BITMAP
0000
0400
07C0
0400
3FE0
2420
3F00
2440
2FE0
4800
4FE0
0000
ENDCHAR

STARTCHAR Cb5d5
ENCODING 46549
SWIDTH 1000 0
DWIDTH 12 0
BBX 12 12 0 -2
BITMAP
0000
4840
2480
3FE0
0200
0A40
6A40
2FC0
2200
2400
5FE0
0000
ENDCHAR

STARTCHAR Cb5d6
ENCODING 46550
SWIDTH 1000 0
DWIDTH 12 0
BBX 12 12 0 -2
BITMAP
0000
0180
1E00
1000
1000
1FC0
1100
1100
1100
1100
7FE0
0000
ENDCHAR

STARTCHAR Cb5d7
ENCODING 46551
SWIDTH 1000 0
DWIDTH 12 0
BBX 12 12 0 -2
BITMAP
0000
0800
0F80
1080
1080
2100
4100
0200
0500
1880
6060
0000
ENDCHAR

STARTCHAR Cb5d8
ENCODING 46552
SWIDTH 1000 0
DWIDTH 12 0
BBX 12 12 0 -2
BITMAP
0000
1200
1200
1F80
2280
2280
6280
2280
24A0
24A0
28E0
0000
ENDCHAR

STARTCHAR Cb5d9
ENCODING 46553
SWIDTH 1000 0
DWIDTH 12 0
BBX 12 12 0 -2
BITMAP
0000
1100
1100
1FE0
2540
2540
6540
2940
2920
3120
2100
0000
ENDCHAR

STARTCHAR Cb5da
ENCODING 46554
SWIDTH 1000 0
DWIDTH 12 0
BBX 12 12 0 -2
BITMAP
0000
0000
1F80
0880
0880
09C0
0840
1480
1300
2480
5860
0000
ENDCHAR

STARTCHAR Cb5db
ENCODING 46555
SWIDTH 1000 0
DWIDTH 12 0
BBX 12 12 0 -2
BITMAP
0000
0000
77C0
5240
5240
52E0
5220
5520
7540
0880
1360
0000
ENDCHAR

STARTCHAR Cb5dc
ENCODING 46556
SWIDTH 1000 0
DWIDTH 12 0
BBX 12 12 0 -2
BITMAP
0000
0400
7FE0
4020
5FA0
1080
1F80
0400
3FC0
2040
3FC0
0000
ENDCHAR

STARTCHAR Cb5dd
ENCODING 46557
SWIDTH 1000 0
DWIDTH 12 0
BBX 12 12 0 -2
BITMAP
0000
0000
7F80
0080
0080
7F80
4000
7FC0
0040
0040
0F80
0000
ENDCHAR

STARTCHAR Cb5de
ENCODING 46558
SWIDTH 1000 0
DWIDTH 12 0
BBX 12 12 0 -2
BITMAP
0000
0F00
1200
3F80
4080
1F80
0080
1F80
2A40
28A0
4FA0
0000
ENDCHAR

STARTCHAR Cb5df
ENCODING 46559
SWIDTH 1000 0
DWIDTH 12 0
BBX 12 12 0 -2
BITMAP
0000
1100
1500
7DE0
1240
5540
3940
1080
3880
5540
3220
0000
ENDCHAR

STARTCHAR Cb5e0
ENCODING 46560
SWIDTH 1000 0
DWIDTH 12 0
BBX 12 12 0 -2
BITMAP
0000
1000
17E0
7900
1100
11E0
3220
5A20
5020
5020
10C0
0000
ENDCHAR

STARTCHAR Cb5e1
ENCODING 46561
SWIDTH 1000 0
DWIDTH 12 0
BBX 12 12 0 -2
BITMAP
0000
0480
0440
7FE0
0400
2440
1680
0D00
1480
6460
0C00
0000
ENDCHAR

STARTCHAR Cb5e2
ENCODING 46562
SWIDTH 1000 0
DWIDTH 12 0
BBX 12 12 0 -2
BITMAP
0000
4000
27C0
0240
4240
22E0
0220
2520
2540
4880
5360
0000
ENDCHAR

STARTCHAR Cb5e3
ENCODING 46563
SWIDTH 1000 0
DWIDTH 12 0
BBX 12 12 0 -2
BITMAP
0000
4100
2100
0FE0
4040
2440
0440
2280
2280
4080
4FE0
0000
ENDCHAR

STARTCHAR Cb5e4
ENCODING 46564
SWIDTH 1000 0
DWIDTH 12 0
BBX 12 12 0 -2
BITMAP
0000
0400
0F80
3100
0200
0D80
7260
0A40
3280
0500
78E0
0000
ENDCHAR

STARTCHAR Cb5e5
ENCODING 46565
SWIDTH 1000 0
DWIDTH 12 0
BBX 12 12 0 -2
BITMAP
0000
0140
7120
2FE0
2100
7940
2580
2340
3540
6920
0300
0000
ENDCHAR

STARTCHAR Cb5e6
ENCODING 46566
SWIDTH 1000 0
DWIDTH 12 0
BBX 12 12 0 -2
BITMAP
0000
0400
7FE0
4A20
1240
6BC0
0800
3F00
0920
1120
61E0
0000
ENDCHAR

STARTCHAR Cb5e7
ENCODING 46567
SWIDTH 1000 0
DWIDTH 12 0
BBX 12 12 0 -2
BITMAP
0000
0400
7FE0
5220
3DC0
6440
3DC0
2500
7DE0
1420
6CC0
0000
ENDCHAR

STARTCHAR Cb5e8
ENCODING 46568
SWIDTH 1000 0
DWIDTH 12 0
BBX 12 12 0 -2
BITMAP
0000
2100
3DE0
5280
0000
3F80
0880
09C0
1440
2380
4C60
0000
ENDCHAR

STARTCHAR Cb5e9
ENCODING 46569
SWIDTH 1000 0
DWIDTH 12 0
BBX 12 12 0 -2
BITMAP
0000
1000
27C0
6A40
1240
22E0
7A20
1520
5540
5880
1360
0000
ENDCHAR

STARTCHAR Cb5ea
ENCODING 46570
SWIDTH 1000 0
DWIDTH 12 0
BBX 12 12 0 -2
BITMAP
0000
1040
2240
6A40
1240
2A40
7A40
1260
57C0
5040
1040
0000
ENDCHAR

STARTCHAR Cb5eb
ENCODING 46571
SWIDTH 1000 0
DWIDTH 12 0
BBX 12 12 0 -2
BITMAP
0000
1100
2280
6440
17A0
2000
7800
17C0
5C40
5440
17C0
0000
ENDCHAR

STARTCHAR Cb5ec
ENCODING 46572
SWIDTH 1000 0
DWIDTH 12 0
BBX 12 12 0 -2
BITMAP
0000
0000
27E0
2420
2420
27E0
2420
2420
2420
27E0
2420
0000
ENDCHAR

STARTCHAR Cb5ed
ENCODING 46573
SWIDTH 1000 0
DWIDTH 12 0
BBX 12 12 0 -2
BITMAP
0000
1200
1200
1FC0
2200
4200
0200
7FE0
0200
0200
0200
0000
ENDCHAR

STARTCHAR Cb5ee
ENCODING 46574
SWIDTH 1000 0
DWIDTH 12 0
BBX 12 12 0 -2
BITMAP
0000
0400
0400
3FC0
0400
0400
7FE0
0800
0880
1040
7FA0
0000
ENDCHAR

STARTCHAR Cb5ef
ENCODING 46575
SWIDTH 1000 0
DWIDTH 12 0
BBX 12 12 0 -2
BITMAP
0000
3FC0
2040
3FC0
2200
3FE0
2200
2FC0
2840
4840
4FC0
0000
ENDCHAR

STARTCHAR Cb5f0
ENCODING 46576
SWIDTH 1000 0
DWIDTH 12 0
BBX 12 12 0 -2
BITMAP
0000
0000
7FC0
4000
7F80
4080
4080
7F80
4000
4000
7FC0
0000
ENDCHAR

STARTCHAR Cb5f1
ENCODING 46577
SWIDTH 1000 0
DWIDTH 12 0
BBX 12 12 0 -2
BITMAP
0000
1000
17E0
7C00
17C0
1440
1C40
77C0
1400
1400
37E0
0000
ENDCHAR

STARTCHAR Cb5f2
ENCODING 46578
SWIDTH 1000 0
DWIDTH 12 0
BBX 12 12 0 -2
BITMAP
0000
2800
2B80
7E80
2A80
2A80
3AA0
6AA0
34E0
2400
6BE0
0000
ENDCHAR

STARTCHAR Cb5f3
ENCODING 46579
SWIDTH 1000 0
DWIDTH 12 0
BBX 12 12 0 -2
BITMAP
0000
2480
7FE0
1080
2F40
4220
1F80
0200
3FE0
0200
0E00
0000
ENDCHAR

STARTCHAR Cb5f4
ENCODING 46580
SWIDTH 1000 0
DWIDTH 12 0
BBX 12 12 0 -2
BITMAP
0000
27E0
1400
47C0
2C40
17C0
2400
7FE0
1500
2480
4460
0000
ENDCHAR

STARTCHAR Cb5f5
ENCODING 46581
SWIDTH 1000 0
DWIDTH 12 0
BBX 12 12 0 -2
BITMAP
0000
0780
0400
3FE0
2420
3F80
2440
27C0
2520
5540
5FE0
0000
ENDCHAR

STARTCHAR Cb5f6
ENCODING 46582
SWIDTH 1000 0
DWIDTH 12 0
BBX 12 12 0 -2
BITMAP
0000
3200
03E0
7A80
0480
3080
07E0
3880
2880
2880
3880
0000
ENDCHAR

STARTCHAR Cb5f7
ENCODING 46583
SWIDTH 1000 0
DWIDTH 12 0
BBX 12 12 0 -2
BITMAP
0000
0000
7BE0
4A00
4BC0
7A40
1240
5FC0
5200
5E00
63E0
0000
ENDCHAR

STARTCHAR Cb5f8
ENCODING 46584
SWIDTH 1000 0
DWIDTH 12 0
BBX 12 12 0 -2
BITMAP
0000
17E0
2C20
47E0
3C80
17E0
7C80
15E0
5520
1920
69E0
0000
ENDCHAR

STARTCHAR Cb5f9
ENCODING 46585
SWIDTH 1000 0
DWIDTH 12 0
BBX 12 12 0 -2
BITMAP
0000
4780
2900
1FC0
4A40
2FC0
0A40
2FC0
2000
4AA0
52A0
0000
ENDCHAR

STARTCHAR Cb5fa
ENCODING 46586
SWIDTH 1000 0
DWIDTH 12 0
BBX 12 12 0 -2
BITMAP
0000
28E0
4FA0
12A0
2FA0
62A0
2BE0
2A80
7FE0
2440
4420
0000
ENDCHAR

STARTCHAR Cb5fb
ENCODING 46587
SWIDTH 1000 0
DWIDTH 12 0
BBX 12 12 0 -2
BITMAP
0000
0F00
1200
3FC0
6440
3FC0
2440
3FC0
0000
2A40
4920
0000
ENDCHAR

STARTCHAR Cb5fc
ENCODING 46588
SWIDTH 1000 0
DWIDTH 12 0
BBX 12 12 0 -2
BITMAP
0000
0400
7FE0
1080
1F80
0000
3FC0
0080
0300
0200
0E00
0000
ENDCHAR

STARTCHAR Cb5fd
ENCODING 46589
SWIDTH 1000 0
DWIDTH 12 0
BBX 12 12 0 -2
BITMAP
0000
0400
7FE0
1080
1F80
0000
3FC0
0080
7FE0
0200
0E00
0000
ENDCHAR

STARTCHAR Cb5fe
ENCODING 46590
SWIDTH 1000 0
DWIDTH 12 0
BBX 12 12 0 -2
BITMAP
0000
0400
7FE0
0000
3FC0
2040
2040
3FC0
0200
2240
4E20
0000
ENDCHAR

STARTCHAR Cb6a1
ENCODING 46753
SWIDTH 1000 0
DWIDTH 12 0
BBX 12 12 0 -2
BITMAP
0000
1480
1480
1FC0
2480
2480
6480
3FE0
2000
2480
2840
0000
ENDCHAR

STARTCHAR Cb6a2
ENCODING 46754
SWIDTH 1000 0
DWIDTH 12 0
BBX 12 12 0 -2
BITMAP
0000
1100
17C0
1100
2920
2540
6FE0
2100
2280
2440
2820
0000
ENDCHAR

STARTCHAR Cb6a3
ENCODING 46755
SWIDTH 1000 0
DWIDTH 12 0
BBX 12 12 0 -2
BITMAP
0000
17C0
1200
1FE0
2440
2BA0
6280
2FE0
2AA0
2BA0
2860
0000
ENDCHAR

STARTCHAR Cb6a4
ENCODING 46756
SWIDTH 1000 0
DWIDTH 12 0
BBX 12 12 0 -2
BITMAP
0000
0900
2540
2240
2540
2840
3FC0
0900
0920
1120
61E0
0000
ENDCHAR

STARTCHAR Cb6a5
ENCODING 46757
SWIDTH 1000 0
DWIDTH 12 0
BBX 12 12 0 -2
BITMAP
0000
1080
7FE0
2940
7FE0
4A20
7BE0
2940
2B40
2D40
4A60
0000
ENDCHAR

STARTCHAR Cb6a6
ENCODING 46758
SWIDTH 1000 0
DWIDTH 12 0
BBX 12 12 0 -2
BITMAP
0000
1080
1080
3FC0
1080
1080
1080
7FE0
0000
1180
6060
0000
ENDCHAR

STARTCHAR Cb6a7
ENCODING 46759
SWIDTH 1000 0
DWIDTH 12 0
BBX 12 12 0 -2
BITMAP
0000
0100
2100
5240
4A40
4440
4A40
5140
6140
4040
7FC0
0000
ENDCHAR

STARTCHAR Cb6a8
ENCODING 46760
SWIDTH 1000 0
DWIDTH 12 0
BBX 12 12 0 -2
BITMAP
0000
2200
2FC0
2240
7240
25C0
2880
3FE0
2AA0
2AA0
3760
0000
ENDCHAR

STARTCHAR Cb6a9
ENCODING 46761
SWIDTH 1000 0
DWIDTH 12 0
BBX 12 12 0 -2
BITMAP
0000
7FE0
4000
5FC0
4200
4F80
4200
4200
5FC0
4000
7FE0
0000
ENDCHAR

STARTCHAR Cb6aa
ENCODING 46762
SWIDTH 1000 0
DWIDTH 12 0
BBX 12 12 0 -2
BITMAP
0000
1000
67E0
44A0
57A0
54A0
57A0
74A0
15E0
2E80
4080
0000
ENDCHAR

STARTCHAR Cb6ab
ENCODING 46763
SWIDTH 1000 0
DWIDTH 12 0
BBX 12 12 0 -2
BITMAP
0000
0040
7A40
4A40
4A40
4A40
4A40
4A60
7FC0
0040
0040
0000
ENDCHAR

STARTCHAR Cb6ac
ENCODING 46764
SWIDTH 1000 0
DWIDTH 12 0
BBX 12 12 0 -2
BITMAP
0000
00C0
3F00
0400
7FE0
2940
4920
3FC0
2940
2F40
20C0
0000
ENDCHAR

STARTCHAR Cb6ad
ENCODING 46765
SWIDTH 1000 0
DWIDTH 12 0
BBX 12 12 0 -2
BITMAP
0000
1100
17C0
1280
7FE0
1440
17C0
1440
1FC0
62A0
0CE0
0000
ENDCHAR

STARTCHAR Cb6ae
ENCODING 46766
SWIDTH 1000 0
DWIDTH 12 0
BBX 12 12 0 -2
BITMAP
0000
1080
13E0
5480
56A0
5480
57E0
5480
5540
7D40
0220
0000
ENDCHAR

STARTCHAR Cb6af
ENCODING 46767
SWIDTH 1000 0
DWIDTH 12 0
BBX 12 12 0 -2
BITMAP
0000
0100
7240
17E0
1100
77E0
4520
77E0
1140
1120
67E0
0000
ENDCHAR

STARTCHAR Cb6b0
ENCODING 46768
SWIDTH 1000 0
DWIDTH 12 0
BBX 12 12 0 -2
BITMAP
0000
0000
7FE0
1540
17C0
7540
4FE0
7540
17C0
1540
6FE0
0000
ENDCHAR

STARTCHAR Cb6b1
ENCODING 46769
SWIDTH 1000 0
DWIDTH 12 0
BBX 12 12 0 -2
BITMAP
0000
1100
1100
17C0
5900
5100
1FE0
1200
1240
1420
1FE0
0000
ENDCHAR

STARTCHAR Cb6b2
ENCODING 46770
SWIDTH 1000 0
DWIDTH 12 0
BBX 12 12 0 -2
BITMAP
0000
0380
7A80
1280
13A0
1AA0
64E0
0000
2A40
28A0
4FA0
0000
ENDCHAR

STARTCHAR Cb6b3
ENCODING 46771
SWIDTH 1000 0
DWIDTH 12 0
BBX 12 12 0 -2
BITMAP
0000
0900
3FC0
0900
0900
7FE0
1080
6460
1680
2540
0C00
0000
ENDCHAR

STARTCHAR Cb6b4
ENCODING 46772
SWIDTH 1000 0
DWIDTH 12 0
BBX 12 12 0 -2
BITMAP
0000
1100
17C0
7900
1120
1540
1FE0
7100
1280
1440
3820
0000
ENDCHAR

STARTCHAR Cb6b5
ENCODING 46773
SWIDTH 1000 0
DWIDTH 12 0
BBX 12 12 0 -2
BITMAP
0000
1100
3B00
15E0
7E40
1140
3D40
4880
3C80
1140
3220
0000
ENDCHAR

STARTCHAR Cb6b6
ENCODING 46774
SWIDTH 1000 0
DWIDTH 12 0
BBX 12 12 0 -2
BITMAP
0000
17C0
1100
7FE0
1240
17A0
3A80
57E0
54A0
57A0
1460
0000
ENDCHAR

STARTCHAR Cb6b7
ENCODING 46775
SWIDTH 1000 0
DWIDTH 12 0
BBX 12 12 0 -2
BITMAP
0000
4000
2FC0
0840
4840
2840
0FC0
2500
2520
4920
51E0
0000
ENDCHAR

STARTCHAR Cb6b8
ENCODING 46776
SWIDTH 1000 0
DWIDTH 12 0
BBX 12 12 0 -2
BITMAP
0000
1000
5FE0
2100
2100
5100
17C0
3100
5100
1100
6FE0
0000
ENDCHAR

STARTCHAR Cb6b9
ENCODING 46777
SWIDTH 1000 0
DWIDTH 12 0
BBX 12 12 0 -2
BITMAP
0000
1100
57C0
2100
2920
5540
1FE0
3100
5280
1440
6820
0000
ENDCHAR

STARTCHAR Cb6ba
ENCODING 46778
SWIDTH 1000 0
DWIDTH 12 0
BBX 12 12 0 -2
BITMAP
0000
23C0
2100
3FE0
5240
17A0
7A80
17E0
2CA0
27A0
4460
0000
ENDCHAR

STARTCHAR Cb6bb
ENCODING 46779
SWIDTH 1000 0
DWIDTH 12 0
BBX 12 12 0 -2
BITMAP
0000
3A00
2BE0
2C20
38A0
2DA0
2AA0
3DA0
28A0
4FA0
58C0
0000
ENDCHAR

STARTCHAR Cb6bc
ENCODING 46780
SWIDTH 1000 0
DWIDTH 12 0
BBX 12 12 0 -2
BITMAP
0000
0200
1F80
2480
7BE0
2920
7FE0
2040
3FC0
2040
20C0
0000
ENDCHAR

STARTCHAR Cb6bd
ENCODING 46781
SWIDTH 1000 0
DWIDTH 12 0
BBX 12 12 0 -2
BITMAP
0000
1000
2EC0
2A40
3EC0
2A40
3AC0
2A40
7FE0
1080
6060
0000
ENDCHAR

STARTCHAR Cb6be
ENCODING 46782
SWIDTH 1000 0
DWIDTH 12 0
BBX 12 12 0 -2
BITMAP
0000
1080
7FE0
1480
7FE0
1100
3FC0
6060
2F40
2940
2FC0
0000
ENDCHAR

STARTCHAR Cb6bf
ENCODING 46783
SWIDTH 1000 0
DWIDTH 12 0
BBX 12 12 0 -2
BITMAP
0000
1000
2EE0
4AA0
6EA0
2AC0
4EA0
68A0
2AA0
3DC0
4080
0000
ENDCHAR

STARTCHAR Cb6c0
ENCODING 46784
SWIDTH 1000 0
DWIDTH 12 0
BBX 12 12 0 -2
BITMAP
0000
1100
2FC0
4280
3FE0
1440
7FC0
1440
57C0
1AA0
6CE0
0000
ENDCHAR

STARTCHAR Cb6c1
ENCODING 46785
SWIDTH 1000 0
DWIDTH 12 0
BBX 12 12 0 -2
BITMAP
0000
2EE0
4AA0
2EC0
48A0
6AE0
3F80
4900
7FE0
2040
3FC0
0000
ENDCHAR

STARTCHAR Cb6c2
ENCODING 46786
SWIDTH 1000 0
DWIDTH 12 0
BBX 12 12 0 -2
BITMAP
0000
2EE0
4AA0
2EC0
48A0
6AE0
1F80
30C0
5FA0
1100
3CE0
0000
ENDCHAR

STARTCHAR Cb6c3
ENCODING 46787
SWIDTH 1000 0
DWIDTH 12 0
BBX 12 12 0 -2
BITMAP
0000
2900
7DE0
2740
5C80
1560
3FC0
2200
3FE0
2020
4AC0
0000
ENDCHAR

STARTCHAR Cb6c4
ENCODING 46788
SWIDTH 1000 0
DWIDTH 12 0
BBX 12 12 0 -2
BITMAP
0000
1200
15E0
2920
2920
6920
2920
2920
2F60
3900
2100
0000
ENDCHAR

STARTCHAR Cb6c5
ENCODING 46789
SWIDTH 1000 0
DWIDTH 12 0
BBX 12 12 0 -2
BITMAP
0000
1200
5DE0
32A0
1E40
11E0
3C80
2AE0
5E80
4A80
15E0
0000
ENDCHAR

STARTCHAR Cb6c6
ENCODING 46790
SWIDTH 1000 0
DWIDTH 12 0
BBX 12 12 0 -2
BITMAP
0000
0400
3FC0
0400
1480
7FE0
1080
7FE0
0900
1120
61E0
0000
ENDCHAR

STARTCHAR Cb6c7
ENCODING 46791
SWIDTH 1000 0
DWIDTH 12 0
BBX 12 12 0 -2
BITMAP
0000
0100
77C0
5100
5440
7FE0
5440
5FE0
7280
04A0
18E0
0000
ENDCHAR

STARTCHAR Cb6c8
ENCODING 46792
SWIDTH 1000 0
DWIDTH 12 0
BBX 12 12 0 -2
BITMAP
0000
4920
2940
7FE0
1080
3FC0
0400
7FE0
1500
2480
4460
0000
ENDCHAR

STARTCHAR Cb6c9
ENCODING 46793
SWIDTH 1000 0
DWIDTH 12 0
BBX 12 12 0 -2
BITMAP
0000
3FC0
2040
3FC0
2000
3FE0
2020
2F20
2920
4F20
40C0
0000
ENDCHAR

STARTCHAR Cb6ca
ENCODING 46794
SWIDTH 1000 0
DWIDTH 12 0
BBX 12 12 0 -2
BITMAP
0000
0900
0900
7FE0
4920
4920
7FE0
4920
4920
4920
7FE0
0000
ENDCHAR

STARTCHAR Cb6cb
ENCODING 46795
SWIDTH 1000 0
DWIDTH 12 0
BBX 12 12 0 -2
BITMAP
0000
1000
17E0
7A00
1300
11E0
3720
5D40
57A0
5100
17E0
0000
ENDCHAR

STARTCHAR Cb6cc
ENCODING 46796
SWIDTH 1000 0
DWIDTH 12 0
BBX 12 12 0 -2
BITMAP
0000
0000
3FC0
0400
0400
0400
3FC0
0400
0500
0480
7FE0
0000
ENDCHAR

STARTCHAR Cb6cd
ENCODING 46797
SWIDTH 1000 0
DWIDTH 12 0
BBX 12 12 0 -2
BITMAP
0000
1000
17E0
7C20
17A0
1420
3FA0
54A0
57A0
5420
1460
0000
ENDCHAR

STARTCHAR Cb6ce
ENCODING 46798
SWIDTH 1000 0
DWIDTH 12 0
BBX 12 12 0 -2
BITMAP
0000
10C0
5700
5900
1100
7900
17E0
3100
5900
5100
1100
0000
ENDCHAR

STARTCHAR Cb6cf
ENCODING 46799
SWIDTH 1000 0
DWIDTH 12 0
BBX 12 12 0 -2
BITMAP
0000
1280
1FE0
1280
27C0
2540
67C0
2100
27C0
2100
2FE0
0000
ENDCHAR

STARTCHAR Cb6d0
ENCODING 46800
SWIDTH 1000 0
DWIDTH 12 0
BBX 12 12 0 -2
BITMAP
0000
1480
7E80
1480
3FE0
2AA0
3EA0
08A0
3F20
0920
7EC0
0000
ENDCHAR

STARTCHAR Cb6d1
ENCODING 46801
SWIDTH 1000 0
DWIDTH 12 0
BBX 12 12 0 -2
BITMAP
0000
1200
1200
13E0
7C20
1220
1120
1020
19A0
6620
00C0
0000
ENDCHAR

STARTCHAR Cb6d2
ENCODING 46802
SWIDTH 1000 0
DWIDTH 12 0
BBX 12 12 0 -2
BITMAP
0000
0400
0400
7FC0
4440
4440
4440
4440
45C0
0400
0400
0000
ENDCHAR

STARTCHAR Cb6d3
ENCODING 46803
SWIDTH 1000 0
DWIDTH 12 0
BBX 12 12 0 -2
BITMAP
0000
1100
2BC0
4240
3BC0
1240
7FE0
1520
5520
1D60
6100
0000
ENDCHAR

STARTCHAR Cb6d4
ENCODING 46804
SWIDTH 1000 0
DWIDTH 12 0
BBX 12 12 0 -2
BITMAP
0000
00C0
1F00
1000
1000
1FE0
1080
1080
2080
2080
4080
0000
ENDCHAR

STARTCHAR Cb6d5
ENCODING 46805
SWIDTH 1000 0
DWIDTH 12 0
BBX 12 12 0 -2
BITMAP
0000
0500
3900
21E0
3EA0
2A80
2880
2880
2940
4940
4A20
0000
ENDCHAR

STARTCHAR Cb6d6
ENCODING 46806
SWIDTH 1000 0
DWIDTH 12 0
BBX 12 12 0 -2
BITMAP
0000
1100
2900
45E0
3AA0
1280
7C80
1080
5140
1D40
6220
0000
ENDCHAR

STARTCHAR Cb6d7
ENCODING 46807
SWIDTH 1000 0
DWIDTH 12 0
BBX 12 12 0 -2
BITMAP
0000
7BE0
1080
39C0
1680
79E0
1680
6060
1F80
0100
0200
0000
ENDCHAR

STARTCHAR Cb6d8
ENCODING 46808
SWIDTH 1000 0
DWIDTH 12 0
BBX 12 12 0 -2
BITMAP
0000
1080
7BE0
1080
39C0
52A0
3FC0
0000
7FE0
1280
2640
0000
ENDCHAR

STARTCHAR Cb6d9
ENCODING 46809
SWIDTH 1000 0
DWIDTH 12 0
BBX 12 12 0 -2
BITMAP
0000
0400
0A00
1580
6F60
0A00
2480
2A80
7FC0
4A40
5DC0
0000
ENDCHAR

STARTCHAR Cb6da
ENCODING 46810
SWIDTH 1000 0
DWIDTH 12 0
BBX 12 12 0 -2
BITMAP
0000
2100
3DE0
4A40
3D00
27E0
3D20
2520
3D20
2620
4CC0
0000
ENDCHAR

STARTCHAR Cb6db
ENCODING 46811
SWIDTH 1000 0
DWIDTH 12 0
BBX 12 12 0 -2
BITMAP
0000
7BE0
5120
7940
4C80
7B60
1100
0A20
7FE0
2480
4440
0000
ENDCHAR

STARTCHAR Cb6dc
ENCODING 46812
SWIDTH 1000 0
DWIDTH 12 0
BBX 12 12 0 -2
BITMAP
0000
1080
7FE0
1080
01C0
3E00
2000
3FE0
2080
2080
4080
0000
ENDCHAR

STARTCHAR Cb6dd
ENCODING 46813
SWIDTH 1000 0
DWIDTH 12 0
BBX 12 12 0 -2
BITMAP
0000
1100
7FE0
1100
7FC0
4140
5E40
4440
4E40
5540
7FC0
0000
ENDCHAR

STARTCHAR Cb6de
ENCODING 46814
SWIDTH 1000 0
DWIDTH 12 0
BBX 12 12 0 -2
BITMAP
0000
1100
1280
7C40
0820
13C0
1000
3BC0
5040
1080
1100
0000
ENDCHAR

STARTCHAR Cb6df
ENCODING 46815
SWIDTH 1000 0
DWIDTH 12 0
BBX 12 12 0 -2
BITMAP
0000
2480
2FE0
7480
16C0
2CA0
27C0
7000
2FE0
2540
2B20
0000
ENDCHAR

STARTCHAR Cb6e0
ENCODING 46816
SWIDTH 1000 0
DWIDTH 12 0
BBX 12 12 0 -2
BITMAP
0000
7280
0FE0
7280
07C0
7540
07C0
7100
57C0
5100
7FE0
0000
ENDCHAR

STARTCHAR Cb6e1
ENCODING 46817
SWIDTH 1000 0
DWIDTH 12 0
BBX 12 12 0 -2
BITMAP
0000
40C0
2700
2400
07E0
0480
6480
2880
2880
2000
5FE0
0000
ENDCHAR

STARTCHAR Cb6e2
ENCODING 46818
SWIDTH 1000 0
DWIDTH 12 0
BBX 12 12 0 -2
BITMAP
0000
0600
0900
1080
6060
3F80
0400
7FC0
2480
1500
7FE0
0000
ENDCHAR

STARTCHAR Cb6e3
ENCODING 46819
SWIDTH 1000 0
DWIDTH 12 0
BBX 12 12 0 -2
BITMAP
0000
0100
7280
5440
5BA0
5000
57C0
5040
7080
0080
0100
0000
ENDCHAR

STARTCHAR Cb6e4
ENCODING 46820
SWIDTH 1000 0
DWIDTH 12 0
BBX 12 12 0 -2
BITMAP
0000
1000
2BC0
4240
3BC0
1240
7BC0
12A0
52A0
1B40
6620
0000
ENDCHAR

STARTCHAR Cb6e5
ENCODING 46821
SWIDTH 1000 0
DWIDTH 12 0
BBX 12 12 0 -2
BITMAP
0000
0800
0800
3F00
0900
0900
0900
1120
1120
2120
41E0
0000
ENDCHAR

STARTCHAR Cb6e6
ENCODING 46822
SWIDTH 1000 0
DWIDTH 12 0
BBX 12 12 0 -2
BITMAP
0000
1000
17C0
1440
27C0
2440
67C0
2440
2FE0
2440
2820
0000
ENDCHAR

STARTCHAR Cb6e7
ENCODING 46823
SWIDTH 1000 0
DWIDTH 12 0
BBX 12 12 0 -2
BITMAP
0000
1000
1FE0
1020
2020
5F20
1120
1120
1F20
0020
01C0
0000
ENDCHAR

STARTCHAR Cb6e8
ENCODING 46824
SWIDTH 1000 0
DWIDTH 12 0
BBX 12 12 0 -2
BITMAP
0000
7FC0
4000
4080
5880
4500
4200
4500
5880
4000
7FE0
0000
ENDCHAR

STARTCHAR Cb6e9
ENCODING 46825
SWIDTH 1000 0
DWIDTH 12 0
BBX 12 12 0 -2
BITMAP
0000
1200
5200
23E0
2420
53A0
12A0
32A0
53A0
1020
60C0
0000
ENDCHAR

STARTCHAR Cb6ea
ENCODING 46826
SWIDTH 1000 0
DWIDTH 12 0
BBX 12 12 0 -2
BITMAP
0000
0200
7A00
23C0
2240
7440
2080
2080
3940
6240
0420
0000
ENDCHAR

STARTCHAR Cb6eb
ENCODING 46827
SWIDTH 1000 0
DWIDTH 12 0
BBX 12 12 0 -2
BITMAP
0000
2000
23E0
3A00
53C0
1240
7E40
13C0
2A00
2600
43E0
0000
ENDCHAR

STARTCHAR Cb6ec
ENCODING 46828
SWIDTH 1000 0
DWIDTH 12 0
BBX 12 12 0 -2
BITMAP
0000
1080
7FE0
1080
0400
7FE0
0400
3FC0
2040
2040
3FC0
0000
ENDCHAR

STARTCHAR Cb6ed
ENCODING 46829
SWIDTH 1000 0
DWIDTH 12 0
BBX 12 12 0 -2
BITMAP
0000
1000
3BE0
2A00
3B20
2EA0
3A40
6AA0
1B20
2A00
5BE0
0000
ENDCHAR

STARTCHAR Cb6ee
ENCODING 46830
SWIDTH 1000 0
DWIDTH 12 0
BBX 12 12 0 -2
BITMAP
0000
7800
53E0
7A00
5320
7AA0
5240
7AA0
0B20
4A00
5BE0
0000
ENDCHAR

STARTCHAR Cb6ef
ENCODING 46831
SWIDTH 1000 0
DWIDTH 12 0
BBX 12 12 0 -2
BITMAP
0000
7840
5380
7A00
5200
7BE0
5240
7A40
0A40
4A40
5FE0
0000
ENDCHAR

STARTCHAR Cb6f0
ENCODING 46832
SWIDTH 1000 0
DWIDTH 12 0
BBX 12 12 0 -2
BITMAP
0000
7A00
53E0
7A20
5420
7BA0
52A0
7AA0
0BA0
4820
58C0
0000
ENDCHAR

STARTCHAR Cb6f1
ENCODING 46833
SWIDTH 1000 0
DWIDTH 12 0
BBX 12 12 0 -2
BITMAP
0000
0000
1F80
1080
1F80
1080
1F80
1080
7FE0
1080
6060
0000
ENDCHAR

STARTCHAR Cb6f2
ENCODING 46834
SWIDTH 1000 0
DWIDTH 12 0
BBX 12 12 0 -2
BITMAP
0000
3FC0
2440
3FC0
2440
7FE0
44A0
5F60
0200
2840
4FA0
0000
ENDCHAR

STARTCHAR Cb6f3
ENCODING 46835
SWIDTH 1000 0
DWIDTH 12 0
BBX 12 12 0 -2
BITMAP
0000
0780
0400
3FE0
2420
2780
2800
2F80
2080
5FE0
4840
0000
ENDCHAR

STARTCHAR Cb6f4
ENCODING 46836
SWIDTH 1000 0
DWIDTH 12 0
BBX 12 12 0 -2
BITMAP
0000
0100
7280
57C0
5C60
57C0
5440
57C0
7540
0480
0E60
0000
ENDCHAR

STARTCHAR Cb6f5
ENCODING 46837
SWIDTH 1000 0
DWIDTH 12 0
BBX 12 12 0 -2
BITMAP
0000
0400
7FE0
4A20
4A40
13C0
6000
1F80
0400
0400
7FE0
0000
ENDCHAR

STARTCHAR Cb6f6
ENCODING 46838
SWIDTH 1000 0
DWIDTH 12 0
BBX 12 12 0 -2
BITMAP
0000
17C0
1540
17C0
2540
27C0
6100
2FE0
2920
2BA0
2860
0000
ENDCHAR

STARTCHAR Cb6f7
ENCODING 46839
SWIDTH 1000 0
DWIDTH 12 0
BBX 12 12 0 -2
BITMAP
0000
0400
7FE0
54A0
5FA0
1480
1480
7FE0
4520
5EA0
4060
0000
ENDCHAR

STARTCHAR Cb6f8
ENCODING 46840
SWIDTH 1000 0
DWIDTH 12 0
BBX 12 12 0 -2
BITMAP
0000
47C0
2540
27C0
0540
0FE0
6920
2BA0
2860
2000
5FE0
0000
ENDCHAR

STARTCHAR Cb6f9
ENCODING 46841
SWIDTH 1000 0
DWIDTH 12 0
BBX 12 12 0 -2
BITMAP
0000
77C0
5540
57C0
6540
57C0
5100
5FE0
6920
4BA0
4860
0000
ENDCHAR

STARTCHAR Cb6fa
ENCODING 46842
SWIDTH 1000 0
DWIDTH 12 0
BBX 12 12 0 -2
BITMAP
0000
0400
3FC0
2440
3FC0
0400
7FE0
4420
7FE0
0400
0400
0000
ENDCHAR

STARTCHAR Cb6fb
ENCODING 46843
SWIDTH 1000 0
DWIDTH 12 0
BBX 12 12 0 -2
BITMAP
0000
1480
17E0
7A40
17E0
14A0
37A0
54A0
55A0
5EE0
1080
0000
ENDCHAR

STARTCHAR Cb6fc
ENCODING 46844
SWIDTH 1000 0
DWIDTH 12 0
BBX 12 12 0 -2
BITMAP
0000
1020
2AA0
42A0
3AA0
12A0
7EA0
12A0
52A0
1A20
6420
0000
ENDCHAR

STARTCHAR Cb6fd
ENCODING 46845
SWIDTH 1000 0
DWIDTH 12 0
BBX 12 12 0 -2
BITMAP
0000
3FE0
2020
3FE0
2A40
2280
2FC0
2840
2FC0
4840
48C0
0000
ENDCHAR

STARTCHAR Cb6fe
ENCODING 46846
SWIDTH 1000 0
DWIDTH 12 0
BBX 12 12 0 -2
BITMAP
0000
3FC0
2040
3FC0
2200
2A40
2A40
2FC0
3220
5220
5FE0
0000
ENDCHAR

STARTCHAR Cb7a1
ENCODING 47009
SWIDTH 1000 0
DWIDTH 12 0
BBX 12 12 0 -2
BITMAP
0000
2000
2FE0
7820
2FE0
2880
3AA0
6BE0
2880
2AA0
73E0
0000
ENDCHAR

STARTCHAR Cb7a2
ENCODING 47010
SWIDTH 1000 0
DWIDTH 12 0
BBX 12 12 0 -2
BITMAP
0000
0400
7FE0
5120
3FC0
6060
3FC0
2A40
2FC0
5220
5FE0
0000
ENDCHAR

STARTCHAR Cb7a3
ENCODING 47011
SWIDTH 1000 0
DWIDTH 12 0
BBX 12 12 0 -2
BITMAP
0000
0400
0440
7680
1580
2460
7FC0
2040
3FC0
2040
3FC0
0000
ENDCHAR

STARTCHAR Cb7a4
ENCODING 47012
SWIDTH 1000 0
DWIDTH 12 0
BBX 12 12 0 -2
BITMAP
0000
2900
7D80
2A80
12A0
7EC0
5280
7E80
12A0
7EA0
12E0
0000
ENDCHAR

STARTCHAR Cb7a5
ENCODING 47013
SWIDTH 1000 0
DWIDTH 12 0
BBX 12 12 0 -2
BITMAP
0000
2440
5FA0
70E0
2F40
7AE0
2E40
0000
3FC0
2040
3FC0
0000
ENDCHAR

STARTCHAR Cb7a6
ENCODING 47014
SWIDTH 1000 0
DWIDTH 12 0
BBX 12 12 0 -2
BITMAP
0000
0400
7FE0
4A20
13C0
6100
0FE0
4100
07C0
2100
4FE0
0000
ENDCHAR

STARTCHAR Cb7a7
ENCODING 47015
SWIDTH 1000 0
DWIDTH 12 0
BBX 12 12 0 -2
BITMAP
0000
1100
25C0
7F20
25E0
3D00
25C0
3D20
25E0
2A40
4920
0000
ENDCHAR

STARTCHAR Cb7a8
ENCODING 47016
SWIDTH 1000 0
DWIDTH 12 0
BBX 12 12 0 -2
BITMAP
0000
77C0
5540
57C0
6540
57C0
5000
5FE0
6540
4480
4E60
0000
ENDCHAR

STARTCHAR Cb7a9
ENCODING 47017
SWIDTH 1000 0
DWIDTH 12 0
BBX 12 12 0 -2
BITMAP
0000
0400
0F80
3080
0300
0C80
7460
2480
7FE0
1480
6460
0000
ENDCHAR

STARTCHAR Cb7aa
ENCODING 47018
SWIDTH 1000 0
DWIDTH 12 0
BBX 12 12 0 -2
BITMAP
0000
7FE0
0900
3FC0
2940
3FC0
0400
7FE0
1500
2480
4460
0000
ENDCHAR

STARTCHAR Cb7ab
ENCODING 47019
SWIDTH 1000 0
DWIDTH 12 0
BBX 12 12 0 -2
BITMAP
0000
17C0
2440
6FE0
1AA0
2EE0
7100
1FE0
5540
5920
1100
0000
ENDCHAR

STARTCHAR Cb7ac
ENCODING 47020
SWIDTH 1000 0
DWIDTH 12 0
BBX 12 12 0 -2
BITMAP
0000
3F80
0880
0700
0880
7FE0
28A0
1240
7FE0
1280
6260
0000
ENDCHAR

STARTCHAR Cb7ad
ENCODING 47021
SWIDTH 1000 0
DWIDTH 12 0
BBX 12 12 0 -2
BITMAP
0000
1280
2C80
44A0
3EA0
14C0
7C80
1680
5540
1D40
6620
0000
ENDCHAR

STARTCHAR Cb7ae
ENCODING 47022
SWIDTH 1000 0
DWIDTH 12 0
BBX 12 12 0 -2
BITMAP
0000
3C80
0880
7FE0
2AA0
3EA0
0920
7EC0
0000
2A40
4920
0000
ENDCHAR

STARTCHAR Cb7af
ENCODING 47023
SWIDTH 1000 0
DWIDTH 12 0
BBX 12 12 0 -2
BITMAP
0000
3F80
0480
7FE0
0480
3F80
0800
1FC0
3040
5040
1FC0
0000
ENDCHAR

STARTCHAR Cb7b0
ENCODING 47024
SWIDTH 1000 0
DWIDTH 12 0
BBX 12 12 0 -2
BITMAP
0000
1080
7FE0
1480
7FE0
2440
3FC0
0400
7FE0
2A40
4920
0000
ENDCHAR

STARTCHAR Cb7b1
ENCODING 47025
SWIDTH 1000 0
DWIDTH 12 0
BBX 12 12 0 -2
BITMAP
0000
3820
0220
7EA0
02A0
3AA0
02A0
3AA0
2A20
2C20
3820
0000
ENDCHAR

STARTCHAR Cb7b2
ENCODING 47026
SWIDTH 1000 0
DWIDTH 12 0
BBX 12 12 0 -2
BITMAP
0000
3E20
1540
7FE0
1480
3DC0
1080
3FE0
6480
2480
3C80
0000
ENDCHAR

STARTCHAR Cb7b3
ENCODING 47027
SWIDTH 1000 0
DWIDTH 12 0
BBX 12 12 0 -2
BITMAP
0000
7FC0
4440
3F80
0400
3F80
2480
3F80
2480
7FE0
0400
0000
ENDCHAR

STARTCHAR Cb7b4
ENCODING 47028
SWIDTH 1000 0
DWIDTH 12 0
BBX 12 12 0 -2
BITMAP
0000
3DE0
1520
7F20
1540
3D20
1120
3D20
65C0
2500
3D00
0000
ENDCHAR

STARTCHAR Cb7b5
ENCODING 47029
SWIDTH 1000 0
DWIDTH 12 0
BBX 12 12 0 -2
BITMAP
0000
0880
0880
3C80
0880
7EC0
08A0
3C80
0880
0E80
7080
0000
ENDCHAR

STARTCHAR Cb7b6
ENCODING 47030
SWIDTH 1000 0
DWIDTH 12 0
BBX 12 12 0 -2
BITMAP
0000
1000
7DE0
1520
2520
59E0
0400
7FE0
0A40
7180
1C60
0000
ENDCHAR

STARTCHAR Cb7b7
ENCODING 47031
SWIDTH 1000 0
DWIDTH 12 0
BBX 12 12 0 -2
BITMAP
0000
1000
11E0
7D20
0940
0920
1120
3920
55C0
1100
1100
0000
ENDCHAR

STARTCHAR Cb7b8
ENCODING 47032
SWIDTH 1000 0
DWIDTH 12 0
BBX 12 12 0 -2
BITMAP
0000
10C0
1700
1240
2680
2100
6240
2FA0
2100
2540
2920
0000
ENDCHAR

STARTCHAR Cb7b9
ENCODING 47033
SWIDTH 1000 0
DWIDTH 12 0
BBX 12 12 0 -2
BITMAP
0000
13E0
1080
2BE0
2A20
6FE0
2A20
2A20
2FE0
2140
2220
0000
ENDCHAR

STARTCHAR Cb7ba
ENCODING 47034
SWIDTH 1000 0
DWIDTH 12 0
BBX 12 12 0 -2
BITMAP
0000
0020
7D20
2920
2920
2920
7F20
2920
2820
2820
48E0
0000
ENDCHAR

STARTCHAR Cb7bb
ENCODING 47035
SWIDTH 1000 0
DWIDTH 12 0
BBX 12 12 0 -2
BITMAP
0000
0000
3F80
2080
2080
2080
3F80
0A00
0A00
1220
63E0
0000
ENDCHAR

STARTCHAR Cb7bc
ENCODING 47036
SWIDTH 1000 0
DWIDTH 12 0
BBX 12 12 0 -2
BITMAP
0000
7D00
01E0
3E40
2540
3C80
2140
4220
3FC0
2040
3FC0
0000
ENDCHAR

STARTCHAR Cb7bd
ENCODING 47037
SWIDTH 1000 0
DWIDTH 12 0
BBX 12 12 0 -2
BITMAP
0000
0400
0400
3F80
0400
7FC0
0400
3F80
0400
0400
7FE0
0000
ENDCHAR

STARTCHAR Cb7be
ENCODING 47038
SWIDTH 1000 0
DWIDTH 12 0
BBX 12 12 0 -2
BITMAP
0000
0100
7900
17C0
1100
7FE0
1100
17C0
1900
6100
0FE0
0000
ENDCHAR

STARTCHAR Cb7bf
ENCODING 47039
SWIDTH 1000 0
DWIDTH 12 0
BBX 12 12 0 -2
BITMAP
0000
0040
7D40
2940
7D40
2840
28C0
4400
1F80
0400
7FE0
0000
ENDCHAR

STARTCHAR Cb7c0
ENCODING 47040
SWIDTH 1000 0
DWIDTH 12 0
BBX 12 12 0 -2
BITMAP
0000
1000
7BE0
1120
7920
1120
7AC0
0400
7FE0
0900
70E0
0000
ENDCHAR

STARTCHAR Cb7c1
ENCODING 47041
SWIDTH 1000 0
DWIDTH 12 0
BBX 12 12 0 -2
BITMAP
0000
0040
7E80
2500
2420
2440
7E80
2400
2420
2440
4580
0000
ENDCHAR

STARTCHAR Cb7c2
ENCODING 47042
SWIDTH 1000 0
DWIDTH 12 0
BBX 12 12 0 -2
BITMAP
0000
1000
2FC0
4440
1280
2100
6EE0
2100
27C0
2100
2FE0
0000
ENDCHAR

STARTCHAR Cb7c3
ENCODING 47043
SWIDTH 1000 0
DWIDTH 12 0
BBX 12 12 0 -2
BITMAP
0000
0400
7FE0
2440
3FC0
2440
3FC0
0400
2A40
28A0
4FA0
0000
ENDCHAR

STARTCHAR Cb7c4
ENCODING 47044
SWIDTH 1000 0
DWIDTH 12 0
BBX 12 12 0 -2
BITMAP
0000
0200
3FE0
2940
3FE0
2520
3480
27A0
2C80
4300
5CE0
0000
ENDCHAR

STARTCHAR Cb7c5
ENCODING 47045
SWIDTH 1000 0
DWIDTH 12 0
BBX 12 12 0 -2
BITMAP
0000
7BE0
1080
39C0
1080
7FE0
0080
1F80
2A40
28A0
4FA0
0000
ENDCHAR

STARTCHAR Cb7c6
ENCODING 47046
SWIDTH 1000 0
DWIDTH 12 0
BBX 12 12 0 -2
BITMAP
0000
3C80
11E0
7F20
11E0
3D20
2520
3DE0
0A40
28A0
4FA0
0000
ENDCHAR

STARTCHAR Cb7c7
ENCODING 47047
SWIDTH 1000 0
DWIDTH 12 0
BBX 12 12 0 -2
BITMAP
0000
27C0
2440
7440
27C0
2200
37E0
6C20
2720
2420
6760
0000
ENDCHAR

STARTCHAR Cb7c8
ENCODING 47048
SWIDTH 1000 0
DWIDTH 12 0
BBX 12 12 0 -2
BITMAP
0000
2480
27E0
7C80
27C0
2480
3FE0
6240
22E0
2420
68C0
0000
ENDCHAR

STARTCHAR Cb7c9
ENCODING 47049
SWIDTH 1000 0
DWIDTH 12 0
BBX 12 12 0 -2
BITMAP
0000
2900
7D00
29E0
3D40
4740
7540
5480
7480
0540
1A20
0000
ENDCHAR

STARTCHAR Cb7ca
ENCODING 47050
SWIDTH 1000 0
DWIDTH 12 0
BBX 12 12 0 -2
BITMAP
0000
3FC0
2040
3FC0
0200
7FE0
2040
3FC0
0200
2240
4E20
0000
ENDCHAR

STARTCHAR Cb7cb
ENCODING 47051
SWIDTH 1000 0
DWIDTH 12 0
BBX 12 12 0 -2
BITMAP
0000
1100
1100
7BC0
1100
17E0
3100
5BC0
5100
5100
17E0
0000
ENDCHAR

STARTCHAR Cb7cc
ENCODING 47052
SWIDTH 1000 0
DWIDTH 12 0
BBX 12 12 0 -2
BITMAP
0000
40C0
2F00
0040
4A40
2A80
0FC0
2100
2FE0
4280
4C60
0000
ENDCHAR

STARTCHAR Cb7cd
ENCODING 47053
SWIDTH 1000 0
DWIDTH 12 0
BBX 12 12 0 -2
BITMAP
0000
0100
7D00
57C0
5500
7FE0
5500
57C0
7D00
0100
0FE0
0000
ENDCHAR

STARTCHAR Cb7ce
ENCODING 47054
SWIDTH 1000 0
DWIDTH 12 0
BBX 12 12 0 -2
BITMAP
0000
0A40
77E0
1280
14E0
7900
13E0
3A40
53C0
5240
13C0
0000
ENDCHAR

STARTCHAR Cb7cf
ENCODING 47055
SWIDTH 1000 0
DWIDTH 12 0
BBX 12 12 0 -2
BITMAP
0000
0180
3E00
0900
1A00
0440
7FA0
0400
1480
2440
4420
0000
ENDCHAR

STARTCHAR Cb7d0
ENCODING 47056
SWIDTH 1000 0
DWIDTH 12 0
BBX 12 12 0 -2
BITMAP
0000
1000
27C0
6A40
1280
2900
7EE0
1100
5BC0
5100
17E0
0000
ENDCHAR

STARTCHAR Cb7d1
ENCODING 47057
SWIDTH 1000 0
DWIDTH 12 0
BBX 12 12 0 -2
BITMAP
0000
1480
26A0
6DC0
1480
27E0
7C80
15C0
5EA0
5480
17E0
0000
ENDCHAR

STARTCHAR Cb7d2
ENCODING 47058
SWIDTH 1000 0
DWIDTH 12 0
BBX 12 12 0 -2
BITMAP
0000
11C0
7D60
2A00
39C0
2940
7C80
1140
7FE0
2480
4440
0000
ENDCHAR

STARTCHAR Cb7d3
ENCODING 47059
SWIDTH 1000 0
DWIDTH 12 0
BBX 12 12 0 -2
BITMAP
0000
7FE0
4920
7FE0
0880
3E80
08C0
7EA0
0880
0E80
7080
0000
ENDCHAR

STARTCHAR Cb7d4
ENCODING 47060
SWIDTH 1000 0
DWIDTH 12 0
BBX 12 12 0 -2
BITMAP
0000
0900
7FE0
0900
3F80
1080
0F00
74E0
0F00
0400
7FE0
0000
ENDCHAR

STARTCHAR Cb7d5
ENCODING 47061
SWIDTH 1000 0
DWIDTH 12 0
BBX 12 12 0 -2
BITMAP
0000
1100
7FE0
1100
7C40
2A40
2A40
7E40
2A40
2840
49C0
0000
ENDCHAR

STARTCHAR Cb7d6
ENCODING 47062
SWIDTH 1000 0
DWIDTH 12 0
BBX 12 12 0 -2
BITMAP
0000
2440
1280
7FE0
4420
3FC0
2440
3FC0
0400
0440
7FA0
0000
ENDCHAR

STARTCHAR Cb7d7
ENCODING 47063
SWIDTH 1000 0
DWIDTH 12 0
BBX 12 12 0 -2
BITMAP
0000
3880
0080
7C80
03E0
3880
0080
3880
2880
2880
3880
0000
ENDCHAR

STARTCHAR Cb7d8
ENCODING 47064
SWIDTH 1000 0
DWIDTH 12 0
BBX 12 12 0 -2
BITMAP
0000
3A40
0380
7A20
03E0
3800
03E0
3A20
2BE0
2A20
3BE0
0000
ENDCHAR

STARTCHAR Cb7d9
ENCODING 47065
SWIDTH 1000 0
DWIDTH 12 0
BBX 12 12 0 -2
BITMAP
0000
2900
3FE0
4540
7480
5540
7FE0
0000
3FC0
2040
3FC0
0000
ENDCHAR

STARTCHAR Cb7da
ENCODING 47066
SWIDTH 1000 0
DWIDTH 12 0
BBX 12 12 0 -2
BITMAP
0000
1000
7FC0
1240
7D40
5480
5760
7C80
11C0
7C80
13E0
0000
ENDCHAR

STARTCHAR Cb7db
ENCODING 47067
SWIDTH 1000 0
DWIDTH 12 0
BBX 12 12 0 -2
BITMAP
0000
7BE0
2880
13E0
2A20
57E0
1220
7A20
13E0
1D40
6220
0000
ENDCHAR

STARTCHAR Cb7dc
ENCODING 47068
SWIDTH 1000 0
DWIDTH 12 0
BBX 12 12 0 -2
BITMAP
0000
0D00
73C0
4A40
2BC0
7E40
13E0
7E00
13E0
2A20
4560
0000
ENDCHAR

STARTCHAR Cb7dd
ENCODING 47069
SWIDTH 1000 0
DWIDTH 12 0
BBX 12 12 0 -2
BITMAP
0000
1080
7FE0
1080
0000
1F80
0000
7FE0
0880
1040
7FA0
0000
ENDCHAR

STARTCHAR Cb7de
ENCODING 47070
SWIDTH 1000 0
DWIDTH 12 0
BBX 12 12 0 -2
BITMAP
0000
4200
2DE0
2920
0920
0920
6920
2F60
3900
2100
5FE0
0000
ENDCHAR

STARTCHAR Cb7df
ENCODING 47071
SWIDTH 1000 0
DWIDTH 12 0
BBX 12 12 0 -2
BITMAP
0000
3880
4BE0
1000
7BE0
4A20
4BE0
7880
02C0
52A0
55A0
0000
ENDCHAR

STARTCHAR Cb7e0
ENCODING 47072
SWIDTH 1000 0
DWIDTH 12 0
BBX 12 12 0 -2
BITMAP
0000
0E20
08A0
3EA0
2AA0
3CA0
28A0
35A0
2EA0
5520
4D60
0000
ENDCHAR

STARTCHAR Cb7e1
ENCODING 47073
SWIDTH 1000 0
DWIDTH 12 0
BBX 12 12 0 -2
BITMAP
0000
1140
7D20
1100
7FE0
4500
4540
7D40
1080
7CA0
1360
0000
ENDCHAR

STARTCHAR Cb7e2
ENCODING 47074
SWIDTH 1000 0
DWIDTH 12 0
BBX 12 12 0 -2
BITMAP
0000
11C0
7E40
1160
7C80
5540
7FE0
0200
7FE0
0200
0E00
0000
ENDCHAR

STARTCHAR Cb7e3
ENCODING 47075
SWIDTH 1000 0
DWIDTH 12 0
BBX 12 12 0 -2
BITMAP
0000
4480
2E80
0AE0
4EA0
2BA0
0EA0
2440
2E40
4AA0
56A0
0000
ENDCHAR

STARTCHAR Cb7e4
ENCODING 47076
SWIDTH 1000 0
DWIDTH 12 0
BBX 12 12 0 -2
BITMAP
0000
7540
5920
57C0
6440
57C0
5440
57C0
6100
4540
4B20
0000
ENDCHAR

STARTCHAR Cb7e5
ENCODING 47077
SWIDTH 1000 0
DWIDTH 12 0
BBX 12 12 0 -2
BITMAP
0000
1200
15E0
7800
1200
15E0
3C40
5440
5440
5440
14C0
0000
ENDCHAR

STARTCHAR Cb7e6
ENCODING 47078
SWIDTH 1000 0
DWIDTH 12 0
BBX 12 12 0 -2
BITMAP
0000
1440
17E0
2940
3540
63E0
2C40
2100
2FE0
2540
2920
0000
ENDCHAR

STARTCHAR Cb7e7
ENCODING 47079
SWIDTH 1000 0
DWIDTH 12 0
BBX 12 12 0 -2
BITMAP
0000
1000
1000
1FC0
2440
4480
0400
0A00
0900
1080
6060
0000
ENDCHAR

STARTCHAR Cb7e8
ENCODING 47080
SWIDTH 1000 0
DWIDTH 12 0
BBX 12 12 0 -2
BITMAP
0000
4200
2200
0FC0
4240
2240
1FE0
2200
2500
4880
5060
0000
ENDCHAR

STARTCHAR Cb7e9
ENCODING 47081
SWIDTH 1000 0
DWIDTH 12 0
BBX 12 12 0 -2
BITMAP
0000
4400
2FE0
04A0
4EA0
2520
0E40
2280
2FE0
4540
4920
0000
ENDCHAR

ENDFONT
